<svg xmlns="http://www.w3.org/2000/svg" xmlns:svg="http://www.w3.org/2000/svg" xmlns:xlink="http://www.w3.org/1999/xlink" id="svg36" width="1193.705" height="738.85" version="1.1" viewBox="0 0 1193.705 738.85" xml:space="preserve"><defs id="defs36"><color-profile id="color-profile2" name="sRGB-IEC61966-2.1" xlink:href="file:///C:/WINDOWS/system32/spool/drivers/color/sRGB%20Color%20Space%20Profile.icm"/><clipPath id="clipPath1" clipPathUnits="userSpaceOnUse"><rect style="fill:#000" id="rect2" width="1193.705" height="738.85" x="5.772" y="9.236"/></clipPath><clipPath id="clipPath2" clipPathUnits="userSpaceOnUse"><rect style="fill:#000" id="rect3" width="1193.705" height="738.85" x="5.772" y="9.236"/></clipPath><clipPath id="clipPath3" clipPathUnits="userSpaceOnUse"><rect style="fill:#000" id="rect4" width="1193.705" height="738.85" x="5.772" y="9.236"/></clipPath><clipPath id="clipPath4" clipPathUnits="userSpaceOnUse"><rect style="fill:#000" id="rect5" width="1193.705" height="738.85" x="5.772" y="9.236"/></clipPath><clipPath id="clipPath5" clipPathUnits="userSpaceOnUse"><rect style="fill:#000" id="rect6" width="1193.705" height="738.85" x="5.772" y="9.236"/></clipPath><clipPath id="clipPath6" clipPathUnits="userSpaceOnUse"><rect style="fill:#000" id="rect7" width="1193.705" height="738.85" x="5.772" y="9.236"/></clipPath><clipPath id="clipPath7" clipPathUnits="userSpaceOnUse"><rect style="fill:#000" id="rect8" width="1193.705" height="738.85" x="5.772" y="9.236"/></clipPath><clipPath id="clipPath8" clipPathUnits="userSpaceOnUse"><rect style="fill:#000" id="rect9" width="1193.705" height="738.85" x="5.772" y="9.236"/></clipPath><clipPath id="clipPath9" clipPathUnits="userSpaceOnUse"><rect style="fill:#000" id="rect10" width="1193.705" height="738.85" x="5.772" y="9.236"/></clipPath><clipPath id="clipPath10" clipPathUnits="userSpaceOnUse"><rect style="fill:#000" id="rect11" width="1193.705" height="738.85" x="5.772" y="9.236"/></clipPath><clipPath id="clipPath11" clipPathUnits="userSpaceOnUse"><rect style="fill:#000" id="rect12" width="1193.705" height="738.85" x="5.772" y="9.236"/></clipPath><clipPath id="clipPath12" clipPathUnits="userSpaceOnUse"><rect style="fill:#000" id="rect13" width="1193.705" height="738.85" x="5.772" y="9.236"/></clipPath><clipPath id="clipPath13" clipPathUnits="userSpaceOnUse"><rect style="fill:#000" id="rect14" width="1193.705" height="738.85" x="5.772" y="9.236"/></clipPath><clipPath id="clipPath14" clipPathUnits="userSpaceOnUse"><rect style="fill:#000" id="rect15" width="1193.705" height="738.85" x="5.772" y="9.236"/></clipPath><clipPath id="clipPath15" clipPathUnits="userSpaceOnUse"><rect style="fill:#000" id="rect16" width="1193.705" height="738.85" x="5.772" y="9.236"/></clipPath><clipPath id="clipPath16" clipPathUnits="userSpaceOnUse"><rect style="fill:#000" id="rect17" width="1193.705" height="738.85" x="5.772" y="9.236"/></clipPath><clipPath id="clipPath17" clipPathUnits="userSpaceOnUse"><rect style="fill:#000" id="rect18" width="1193.705" height="738.85" x="5.772" y="9.236"/></clipPath><clipPath id="clipPath18" clipPathUnits="userSpaceOnUse"><rect style="fill:#000" id="rect19" width="1193.705" height="738.85" x="5.772" y="9.236"/></clipPath><clipPath id="clipPath19" clipPathUnits="userSpaceOnUse"><rect style="fill:#000" id="rect20" width="1193.705" height="738.85" x="5.772" y="9.236"/></clipPath><clipPath id="clipPath20" clipPathUnits="userSpaceOnUse"><rect style="fill:#000" id="rect21" width="1193.705" height="738.85" x="5.772" y="9.236"/></clipPath><clipPath id="clipPath21" clipPathUnits="userSpaceOnUse"><rect style="fill:#000" id="rect22" width="1193.705" height="738.85" x="5.772" y="9.236"/></clipPath><clipPath id="clipPath22" clipPathUnits="userSpaceOnUse"><rect style="fill:#000" id="rect23" width="1193.705" height="738.85" x="5.772" y="9.236"/></clipPath><clipPath id="clipPath23" clipPathUnits="userSpaceOnUse"><rect style="fill:#000" id="rect24" width="1193.705" height="738.85" x="5.772" y="9.236"/></clipPath><clipPath id="clipPath24" clipPathUnits="userSpaceOnUse"><rect style="fill:#000" id="rect25" width="1193.705" height="738.85" x="5.772" y="9.236"/></clipPath><clipPath id="clipPath25" clipPathUnits="userSpaceOnUse"><rect style="fill:#000" id="rect26" width="1193.705" height="738.85" x="5.772" y="9.236"/></clipPath><clipPath id="clipPath26" clipPathUnits="userSpaceOnUse"><rect style="fill:#000" id="rect27" width="1193.705" height="738.85" x="5.772" y="9.236"/></clipPath><clipPath id="clipPath27" clipPathUnits="userSpaceOnUse"><rect style="fill:#000" id="rect28" width="1193.705" height="738.85" x="5.772" y="9.236"/></clipPath><clipPath id="clipPath28" clipPathUnits="userSpaceOnUse"><rect style="fill:#000" id="rect29" width="1193.705" height="738.85" x="5.772" y="9.236"/></clipPath><clipPath id="clipPath29" clipPathUnits="userSpaceOnUse"><rect style="fill:#000" id="rect30" width="1193.705" height="738.85" x="5.772" y="9.236"/></clipPath></defs><path id="path2" fill="#8fe3fa" d="M 1206,755.25 H 309 v -3 h 1 l -1,-1 c 10,-13 20,-26 31,-37 13,-13 29,-25 43,-38 12,-10 24,-20 31,-34 9,-19 19,-38 27,-58 a 305,305 0 0 1 66,-108 c 13,-13 29,-22 45,-31 l 28,-14 7,17 c 8,17 20,30 32,44 l 27,29 c 2,3 3,4 2,7 -3,10 1,17 8,23 7,6 16,7 25,4 10,-5 16,-16 14,-26 -3,-12 -12,-20 -24,-20 -5,0 -7,-1 -10,-5 l -43,-48 a 65,65 0 0 1 -17,-39 l 8,-12 c 15,-22 34,-38 58,-47 14,-5 27,-11 40,-18 17,-9 33,-21 45,-36 l 35,-45 c 11,-15 23,-30 37,-42 25,-22 54,-38 86,-45 19,-4 38,-5 57,-8 37,-5 70,-18 101,-37 18,-10 34,-22 51,-34 l 61,-44 25,-19 1,6 z" clip-path="url(#clipPath29)" transform="translate(-5.7722659,-9.2356253)"/><path id="path3" fill="#f1f0ed" d="m 1205,30.25 -25,19 -61,44 c -17,12 -33,24 -51,34 -31,19 -64,32 -101,37 -19,3 -38,4 -57,8 -32,7 -61,23 -86,45 -14,12 -26,27 -37,42 l -35,45 c -12,15 -28,27 -45,36 -13,7 -26,13 -40,18 -24,9 -43,25 -58,47 l -8,11 c -2,-30 10,-54 35,-71 l 16,-12 c 29,-23 40,-54 20,-90 l -18,-36 71,-52 48,-32 39,-23 62,-26 64,-26 78,-40 11,-7 6,-1 h 169 c 4,0 5,1 5,5 v 23 z" clip-path="url(#clipPath28)" transform="translate(-5.7722659,-9.2356253)"/><path id="path4" fill="#f1f0ed" d="m 580,431.25 -28,14 a 184,184 0 0 0 -73,65 c -16,23 -27,48 -38,74 -8,20 -18,39 -27,58 -7,14 -19,24 -31,34 -14,13 -30,25 -43,38 -11,11 -21,24 -31,37 v 1 l -2,3 H 184 l -1,-1 2,-2 43,-48 44,-48 36,-40 c 22,-24 43,-50 60,-78 l 29,-46 40,-62 a 2404,2404 0 0 1 99,-130 c 6,-7 15,-13 23,-19 l 54,-43 a 1223,1223 0 0 1 22,-15 363,363 0 0 1 23,50 c 3,18 -6,30 -19,41 l -24,18 a 95,95 0 0 0 -37,83 z" clip-path="url(#clipPath27)" transform="translate(-5.7722659,-9.2356253)"/><path id="path5" fill="#2fbbfd" d="m 580,431.25 -2,-16 c -2,-34 11,-62 37,-83 l 24,-18 c 13,-11 22,-23 19,-41 -1,-7 -5,-14 -8,-21 -4,-10 -10,-19 -15,-29 l -5,-9 -3,-8 -15,-29 c -3,-6 -8,-9 -15,-7 l -32,13 -6,4 -12,6 -62,33 -5,3 -54,33 -13,-16 c -2,-3 1,-3 3,-5 a 8878604,8878604 0 0 0 61,-38 l 42,-22 7,-3 13,-7 51,-24 h 17 c 12,2 20,8 25,18 l 17,33 4,9 19,36 c 20,36 9,67 -20,90 l -16,12 a 75,75 0 0 0 -35,71 c 1,16 8,29 17,40 l 43,48 c 3,4 5,5 10,5 12,0 21,8 24,20 2,10 -4,21 -14,26 -9,3 -18,2 -25,-4 -7,-6 -11,-13 -8,-23 1,-3 0,-4 -2,-7 l -27,-29 c -12,-14 -24,-27 -32,-44 z" clip-path="url(#clipPath26)" transform="translate(-5.7722659,-9.2356253)"/><path id="path6" fill="#f1f0ed" d="m 394,0.25 h 15 c 5,-1 6,1 7,6 l 10,38 5,20 -84,63 -71,-127 z m -393,24 -1,-22 5,-2 h 84 c 6,0 10,2 13,7 l 48,61 4,8 -3,2 -55,46 c -3,2 -5,2 -7,0 l -18,-21 -37,-42 -17,-20 z m 810,69 -22,-65 -9,-28 h 126 l 8,21 11,25 -56,23 z" clip-path="url(#clipPath25)" transform="translate(-5.7722659,-9.2356253)"/><path id="path7" fill="#f0f0ed" d="m 96,532.25 c -6,7 -11,15 -22,15 H 6 c -5,0 -6,-1 -6,-6 v -82 c 0,-5 1,-6 6,-6 h 88 l 1,6 v 65 z" clip-path="url(#clipPath24)" transform="translate(-5.7722659,-9.2356253)"/><path id="path8" fill="#f1f0ed" d="m 29,723.25 -29,27 v -111 c 0,-3 1,-5 3,-7 l 31,-29 14,-12 55,61 -14,14 -37,35 z m 749,-613 -54,34 -8,-18 -26,-59 c -1,-4 -1,-6 3,-8 l 74,-52 3,-2 4,10 23,68 c 5,13 5,13 -7,19 z m -584,268 10,9 24,28 -20,18 -14,13 -35,33 -46,40 -11,8 -1,-29 v -45 c 0,-3 1,-4 4,-4 3,0 8,0 10,-2 l 32,-28 28,-23 z m 232,-303 6,-4 7,26 13,51 c 1,3 1,5 -2,8 l -58,46 -2,1 -16,-28 -20,-36 c -4,-7 -3,-6 1,-10 l 70,-53 z m -414,673 65,-62 27,-26 4,-3 c 4,11 13,8 21,8 5,0 6,1 6,6 v 49 a 649,649 0 0 1 -33,35 H 9 l -5,-1 z" clip-path="url(#clipPath23)" transform="translate(-5.7722659,-9.2356253)"/><path id="path9" fill="#f0f0ed" d="m 210,445.25 24,-23 27,30 13,14 15,16 c 2,2 2,4 0,7 l -12,17 -4,2 H 141 l 15,-14 14,-13 36,-33 z m 314,-445 h 122 c 4,0 7,1 8,5 l 6,16 -3,1 -49,31 c -4,2 -8,6 -13,6 l -65,1 c -5,0 -6,-1 -6,-6 z" clip-path="url(#clipPath22)" transform="translate(-5.7722659,-9.2356253)"/><path id="path11" fill="#f1f0ed" d="m 200,1.25 5,-1 h 55 c 2,0 5,1 6,3 l 30,54 v 2 l -36,29 -18,14 -40,-52 -2,-7 z m -199,32 24,28 42,48 20,22 -15,12 -38,32 -4,3 -20,-22 -2,-2 c -8,-5 -8,-13 -8,-22 v -93 z m 255,169 -14,11 -45,36 -53,-60 62,-49 17,20 32,40 z m 55,67 -55,47 -55,-62 15,-12 43,-36 12,12 33,41 z m -170,32 15,-10 40,-33 14,14 23,28 16,18 c 2,2 2,3 0,5 l -48,41 -2,2 -24,-26 -21,-24 z m 285,-39 54,-33 46,58 c 2,4 4,6 0,10 l -24,29 -9,10 c -2,3 -3,4 -7,0 l -38,-46 -20,-24 z m -341,-24 55,-45 52,60 -55,44 -21,-23 -21,-24 z m 117,-103 -15,11 -42,35 c -3,2 -5,2 -7,0 l -26,-31 -16,-18 26,-22 36,-30 15,17 28,36 z" clip-path="url(#clipPath21)" transform="translate(-5.7722659,-9.2356253)"/><path id="path12" fill="#f0f0ed" d="m 662,26.25 7,16 25,59 1,3 -29,11 -34,13 c -2,1 -4,2 -5,-2 l -23,-55 c -2,-6 -1,-9 4,-11 l 2,-2 z m -453,536 v -43 c 0,-4 1,-5 4,-5 h 57 c 4,0 5,1 5,4 v 75 c 0,4 -1,5 -5,5 a 1031,1031 0 0 0 -56,1 c -4,0 -5,-1 -5,-6 z M 0,290.25 v -129 l 2,1 26,30 21,22 22,24 1,4 -6,5 -43,47 c -3,3 -5,3 -8,1 z m 485,-64 a 5183,5183 0 0 1 74,-39 l 2,6 24,48 c 2,4 2,6 -2,9 l -47,37 -2,2 z" clip-path="url(#clipPath20)" transform="translate(-5.7722659,-9.2356253)"/><path id="path14" fill="#f0f0ed" d="m 297,476.25 -8,-7 -36,-41 -11,-13 15,-14 a 4325,4325 0 0 1 36,-32 l 47,53 -26,33 z" clip-path="url(#clipPath19)" transform="translate(-5.7722659,-9.2356253)"/><path id="path15" fill="#f1f0ed" d="m 146,514.25 h 52 c 4,0 5,1 5,5 v 74 c 0,4 -1,5 -5,5 h -52 c -4,0 -5,-1 -5,-5 v -74 c 0,-4 1,-6 5,-5 z m 246,-33 -17,27 -17,28 -4,4 -20,-22 -17,-19 -16,-18 16,-19 27,-35 9,11 22,24 z" clip-path="url(#clipPath18)" transform="translate(-5.7722659,-9.2356253)"/><path id="path16" fill="#f0f0ed" d="m 441,61.25 -4,-11 -10,-45 -1,-5 h 91 v 30 l 1,26 c 0,3 -2,4 -5,4 z" clip-path="url(#clipPath17)" transform="translate(-5.7722659,-9.2356253)"/><path id="path17" fill="#f1f0ed" d="m 35,183.25 40,-34 16,-13 44,52 -26,22 -28,24 -10,-10 -23,-26 z m 156,548 -21,23 -3,1 h -22 c -3,0 -4,-1 -4,-4 v -83 c 0,-3 1,-4 4,-4 a 1474,1474 0 0 0 53,1 c 4,0 5,1 5,5 v 44 c 0,5 -5,7 -7,11 z" clip-path="url(#clipPath16)" transform="translate(-5.7722659,-9.2356253)"/><path id="path18" fill="#f0f0ed" d="m 299,64.25 13,21 a 3928,3928 0 0 1 27,50 l -9,6 -30,24 c -3,2 -4,2 -6,-1 l -28,-33 -20,-25 z m -18,517 v -59 c 0,-7 1,-13 5,-18 l 10,-13 54,59 c -10,12 -20,24 -28,36 -8,11 -18,13 -30,12 -11,-1 -11,0 -11,-12 z m 368,-383 -17,-33 c -5,-10 -13,-16 -25,-19 2,-1 3,-3 5,-3 l 39,-16 46,-17 9,18 8,18 c 1,3 1,5 -2,6 l -54,40 z m -258,171 15,17 24,28 3,5 -35,55 -3,2 -44,-50 c -2,-3 -2,-5 0,-8 z" clip-path="url(#clipPath15)" transform="translate(-5.7722659,-9.2356253)"/><path id="path19" fill="#f1f0ed" d="m 297,365.25 15,-14 36,-33 1,-1 13,15 24,30 1,2 -43,53 -28,-31 z" clip-path="url(#clipPath14)" transform="translate(-5.7722659,-9.2356253)"/><path id="path20" fill="#f0f0ed" d="m 460,378.25 -4,7 -17,25 -82,-100 27,-24 23,28 34,42 z m 1,-238 -10,-35 -9,-38 70,-1 c 4,0 5,1 5,5 v 46 c 0,4 -1,5 -4,6 z" clip-path="url(#clipPath13)" transform="translate(-5.7722659,-9.2356253)"/><path id="path21" fill="#f1f0ed" d="m 128,304.25 -22,19 c -8,7 -8,7 -18,3 l -56,-23 -6,-3 50,-54 5,4 a 1749,1749 0 0 1 47,54 z" clip-path="url(#clipPath12)" transform="translate(-5.7722659,-9.2356253)"/><path id="path23" fill="#f0f0ed" d="m 25,444.25 v -54 c 0,-4 1,-5 5,-5 h 60 c 4,0 5,1 5,5 v 49 l -1,5 z" clip-path="url(#clipPath11)" transform="translate(-5.7722659,-9.2356253)"/><path id="path25" fill="#f0f0ed" d="m 118,528.25 16,-15 1,6 v 74 c 0,4 -1,5 -5,5 a 2039,2039 0 0 0 -62,1 c -4,0 -6,-1 -8,-4 l -8,-9 12,-11 32,-28 z m 271,-245 2,-4 22,-21 17,21 29,35 24,28 c 1,1 2,4 1,5 l -21,26 -21,-27 -35,-42 z m -88,321 4,1 -8,9 -20,21 -20,21 c -1,2 -4,3 -6,3 h -37 c -4,0 -5,-1 -5,-5 v -45 c 0,-4 1,-5 5,-5 z" clip-path="url(#clipPath10)" transform="translate(-5.7722659,-9.2356253)"/><path id="path26" fill="#f1f0ed" d="m 382,212.25 -19,15 -12,9 -51,-63 42,-33 10,16 29,52 z M 193,1.25 v 38 c 0,5 -2,8 -6,11 l -24,18 -13,-16 -39,-49 -1,-3 h 4 a 45615,45615 0 0 1 79,1 z m -52,608 c -1,-4 1,-5 5,-5 h 52 c 4,0 5,1 5,5 v 46 c 0,3 -1,4 -5,4 h -52 c -4,0 -5,-1 -5,-5 z" clip-path="url(#clipPath9)" transform="translate(-5.7722659,-9.2356253)"/><path id="path27" fill="#f0f0ed" d="m 203,370.25 53,-45 30,36 -19,19 -15,12 -17,16 z m 89,-13 -16,-18 -12,-13 c -3,-4 -4,-5 1,-9 l 24,-21 26,-22 20,25 8,10 -19,18 -16,14 z m -102,17 -22,19 c -4,3 -6,3 -9,0 l -47,-53 -8,-7 28,-24 13,13 15,17 29,31 z m 278,-166 -52,33 -5,-3 -18,-30 62,-49 z m 216,-157 -21,-51 h 101 l 1,1 -79,55 z m -416,148 27,-22 51,63 -27,22 -20,-25 -29,-36 z m 194,-53 56,-18 v 46 l 1,7 -42,22 -13,-48 z m -248,-14 18,-14 9,-7 51,61 -28,22 -18,-22 -31,-38 z m 351,52 32,-14 c 7,-2 12,1 15,7 l 15,29 3,8 -37,28 -3,-5 -23,-46 z m -505,383 -60,54 v -64 c 0,-2 0,-4 3,-4 l 71,1 z" clip-path="url(#clipPath8)" transform="translate(-5.7722659,-9.2356253)"/><path id="path28" fill="#f1f0ed" d="m 167,73.25 28,-21 42,54 -26,22 -14,-17 -27,-33 z m 745,-73 h 103 l -4,4 -70,35 c -10,5 -10,5 -14,-5 l -1,-1 z m -777,639 v 15 c 0,4 -1,5 -5,5 -10,2 -16,-4 -22,-11 l -25,-28 -14,-16 h 61 c 4,0 5,1 5,5 z" clip-path="url(#clipPath7)" transform="translate(-5.7722659,-9.2356253)"/><path id="path30" fill="#f1f0ed" d="m 323,267.25 27,-22 27,32 -1,2 -25,23 z" clip-path="url(#clipPath6)" transform="translate(-5.7722659,-9.2356253)"/><path id="path31" fill="#f0f0ed" d="m 0,297.25 17,6 2,4 v 68 c 0,3 -1,4 -4,4 H 0 Z m 381,-24 -25,-32 29,-25 13,21 7,10 -1,6 -21,19 z m -381,112 h 12 c 7,0 7,0 7,6 v 53 H 7 c -7,0 -7,0 -7,-7 z m 209,324 v -39 c 0,-4 1,-5 5,-5 h 36 l -6,7 a 5188,5188 0 0 1 -35,37 z" clip-path="url(#clipPath5)" transform="translate(-5.7722659,-9.2356253)"/><path id="path33" fill="#6cd9f9" d="m 1205,30.25 2,-2 a 64594,64594 0 0 1 -1,177 v -169 z" clip-path="url(#clipPath4)" transform="translate(-5.7722659,-9.2356253)"/><path id="path34" fill="#f0f0ed" d="m 135,752.25 -3,3 h -18 l 21,-19 z" clip-path="url(#clipPath3)" transform="translate(-5.7722659,-9.2356253)"/><path id="path35" fill="#7cdff9" d="m 307,755.25 2,-3 v 3 z m 2,-3 v -1 l 1,1 z" clip-path="url(#clipPath2)" transform="translate(-5.7722659,-9.2356253)"/><path id="path36" fill="#f0f0ed" d="m 526,178.25 -2,-5 v -102 c 0,-3 0,-5 4,-5 l 62,-1 c 3,0 5,1 6,3 l 26,64 -32,15 -51,24 z m -501,174 v -45 l 30,12 c 10,4 20,9 31,12 7,2 9,7 9,13 v 32 c 0,4 -2,3 -5,3 H 29 c -3,0 -4,-1 -4,-4 z m 104,17 29,32 -10,9 -32,29 c -4,3 -8,3 -13,4 l -2,-4 v -101 z" clip-path="url(#clipPath1)" transform="translate(-5.7722659,-9.2356253)"/></svg>