<svg xmlns="http://www.w3.org/2000/svg" width="291" height="139" fill="none" viewBox="0 0 291 139"><g filter="url(#filter0_d)"><path fill="#fff" d="M33.8212 50.5772C33.8212 53.9291 33.409 56.9651 32.5848 59.6851C31.7605 62.3777 30.5104 64.6993 28.8345 66.65C27.186 68.5733 25.1116 70.0569 22.6114 71.101C20.1112 72.145 17.1988 72.6671 13.8743 72.6671C12.3632 72.6671 10.8658 72.5709 9.38219 72.3786C7.92602 72.2137 6.38742 71.939 4.7664 71.5543C4.8763 70.3454 4.9862 69.1365 5.0961 67.9276C5.206 66.7187 5.3159 65.5098 5.4258 64.3009C5.50822 63.6415 5.76924 63.1195 6.20884 62.7349C6.64843 62.3227 7.28036 62.1167 8.10461 62.1167C8.57168 62.1167 9.16239 62.1991 9.87674 62.364C10.6186 62.5288 11.5252 62.6112 12.5968 62.6112C14.0804 62.6112 15.3717 62.4052 16.4707 61.993C17.5697 61.5809 18.4901 60.9078 19.232 59.9736C19.9738 59.0395 20.5233 57.8306 20.8805 56.3469C21.2651 54.8358 21.4574 53.0087 21.4574 50.8657V12.2084H33.8212V50.5772ZM70.6664 45.7553C70.6664 44.5739 70.5015 43.4475 70.1718 42.3759C69.8696 41.3044 69.375 40.3565 68.6882 39.5323C68.0013 38.708 67.1358 38.0624 66.0918 37.5953C65.0477 37.1007 63.7976 36.8535 62.3414 36.8535C59.6214 36.8535 57.4921 37.6228 55.9535 39.1614C54.4149 40.7 53.4121 42.898 52.945 45.7553H70.6664ZM52.7802 52.5142C53.1373 56.4981 54.2638 59.4104 56.1596 61.2512C58.0828 63.092 60.583 64.0124 63.6602 64.0124C65.2263 64.0124 66.5726 63.8339 67.6991 63.4767C68.853 63.092 69.8558 62.6799 70.7076 62.2403C71.5868 61.7732 72.3698 61.3611 73.0567 61.0039C73.771 60.6193 74.4716 60.427 75.1585 60.427C76.0377 60.427 76.7246 60.7567 77.2191 61.4161L80.5161 65.5373C79.3072 66.9385 77.9747 68.1062 76.5185 69.0404C75.0623 69.947 73.5512 70.6751 71.9852 71.2246C70.4191 71.7466 68.8393 72.1038 67.2457 72.2961C65.6522 72.5159 64.1136 72.6258 62.6299 72.6258C59.6626 72.6258 56.8877 72.145 54.305 71.1834C51.7499 70.1943 49.5106 68.7519 47.5874 66.8561C45.6916 64.9329 44.1942 62.5563 43.0952 59.7264C41.9962 56.8964 41.4467 53.6132 41.4467 49.8766C41.4467 46.9917 41.9138 44.2717 42.848 41.7165C43.8096 39.1614 45.1833 36.9359 46.9692 35.0401C48.7551 33.1443 50.9256 31.647 53.4808 30.548C56.0359 29.4215 58.9208 28.8583 62.1354 28.8583C64.8554 28.8583 67.3556 29.2979 69.636 30.177C71.9439 31.0288 73.9221 32.2789 75.5706 33.9274C77.2466 35.5759 78.5379 37.609 79.4446 40.0268C80.3788 42.4171 80.8458 45.1509 80.8458 48.2281C80.8458 49.0798 80.8046 49.7804 80.7222 50.3299C80.6398 50.8794 80.5024 51.319 80.3101 51.6487C80.1177 51.9784 79.8567 52.212 79.527 52.3493C79.1973 52.4592 78.7715 52.5142 78.2494 52.5142H52.7802ZM91.0948 72.0077V37.6777L87.7978 37.1007C86.9461 36.9359 86.2455 36.6337 85.696 36.1941C85.174 35.7545 84.913 35.1225 84.913 34.2983V29.7649H91.0948V27.7043C91.0948 25.2865 91.4657 23.1022 92.2076 21.1515C92.9769 19.1733 94.0621 17.5111 95.4634 16.1648C96.8646 14.7911 98.5818 13.7333 100.615 12.9915C102.648 12.2496 104.942 11.8787 107.497 11.8787C108.486 11.8787 109.421 11.9474 110.3 12.0848C111.206 12.2222 112.113 12.4145 113.02 12.6618L112.773 18.2667C112.718 19.0909 112.347 19.6404 111.66 19.9152C111 20.1899 110.259 20.3273 109.434 20.3273C108.28 20.3273 107.236 20.4509 106.302 20.6982C105.396 20.9455 104.626 21.3713 103.994 21.9758C103.362 22.5528 102.882 23.3495 102.552 24.3661C102.222 25.3552 102.057 26.5916 102.057 28.0752V29.7649H118.089V26.2619C118.089 23.8441 118.46 21.6598 119.202 19.7091C119.971 17.7309 121.056 16.0687 122.457 14.7224C123.859 13.3486 125.576 12.2909 127.609 11.549C129.642 10.8072 131.936 10.4363 134.492 10.4363C135.481 10.4363 136.415 10.505 137.294 10.6424C138.201 10.7523 139.107 10.9309 140.014 11.1781L139.767 16.783C139.712 17.6347 139.341 18.198 138.654 18.4727C137.995 18.72 137.253 18.8436 136.428 18.8436C135.275 18.8436 134.231 18.9673 133.296 19.2145C132.39 19.4618 131.62 19.8877 130.988 20.4921C130.384 21.0691 129.917 21.8659 129.587 22.8825C129.258 23.8716 129.093 25.1079 129.093 26.5916V29.7649H139.602V37.6777H129.422V72.0077H118.089V37.6777H102.428V72.0077H91.0948ZM49.947 85.0226L31.0364 132.008H22.2287L3.31808 85.0226H11.1543C11.9962 85.0226 12.6762 85.2276 13.1943 85.6378C13.734 86.0264 14.1334 86.5337 14.3924 87.1597L24.5601 114.23C24.9487 115.245 25.3265 116.357 25.6935 117.566C26.0821 118.753 26.4382 120.005 26.7621 121.322C27.0427 120.005 27.3449 118.753 27.6687 117.566C28.0141 116.357 28.3811 115.245 28.7697 114.23L38.8726 87.1597C39.0885 86.62 39.4663 86.1343 40.006 85.7026C40.5672 85.2492 41.258 85.0226 42.0784 85.0226H49.947ZM66.17 118.051C63.9896 118.159 62.1763 118.354 60.7299 118.634C59.2836 118.893 58.1286 119.239 57.2651 119.67C56.4232 120.102 55.8188 120.599 55.4518 121.16C55.1064 121.7 54.9337 122.293 54.9337 122.941C54.9337 124.236 55.2899 125.154 56.0023 125.693C56.7362 126.233 57.7509 126.503 59.0461 126.503C60.5356 126.503 61.8201 126.244 62.8995 125.726C64.0004 125.186 65.0906 124.355 66.17 123.232V118.051ZM47.9717 103.253C49.9362 101.483 52.1057 100.166 54.4804 99.3027C56.855 98.4176 59.4239 97.975 62.1871 97.975C64.1731 97.975 65.9433 98.2988 67.4976 98.9465C69.0735 99.5941 70.4011 100.501 71.4805 101.666C72.5814 102.811 73.4234 104.181 74.0062 105.779C74.5891 107.376 74.8805 109.125 74.8805 111.025V132.008H70.8005C69.9586 132.008 69.3109 131.889 68.8576 131.651C68.4259 131.414 68.0697 130.917 67.789 130.162L67.0766 128.025C66.2347 128.759 65.4144 129.406 64.6157 129.968C63.8385 130.529 63.029 131.004 62.1871 131.392C61.3452 131.759 60.4385 132.04 59.4671 132.234C58.5172 132.429 57.4486 132.526 56.2613 132.526C54.7934 132.526 53.455 132.331 52.2461 131.943C51.0372 131.554 49.9902 130.982 49.1051 130.227C48.2416 129.45 47.5724 128.489 47.0974 127.345C46.6225 126.201 46.3851 124.884 46.3851 123.394C46.3851 122.164 46.6981 120.933 47.3241 119.703C47.9502 118.472 49.0187 117.361 50.5299 116.368C52.0626 115.353 54.0918 114.522 56.6175 113.874C59.1648 113.205 62.349 112.827 66.17 112.741V111.025C66.17 108.931 65.7274 107.398 64.8423 106.427C63.9573 105.433 62.6836 104.937 61.0214 104.937C59.7909 104.937 58.7655 105.088 57.9451 105.39C57.1248 105.671 56.4016 105.984 55.7756 106.329C55.1712 106.653 54.5991 106.966 54.0594 107.268C53.5197 107.549 52.8937 107.689 52.1813 107.689C51.5553 107.689 51.0264 107.538 50.5946 107.236C50.1845 106.912 49.8391 106.534 49.5584 106.103L47.9717 103.253ZM90.7938 102.508C91.463 101.861 92.1538 101.267 92.8662 100.727C93.6002 100.188 94.3666 99.7236 95.1653 99.335C95.9856 98.9465 96.8599 98.6442 97.7882 98.4284C98.738 98.2125 99.7634 98.1046 100.864 98.1046C102.678 98.1046 104.286 98.4176 105.689 99.0436C107.092 99.6696 108.269 100.544 109.219 101.666C110.19 102.789 110.913 104.127 111.388 105.682C111.885 107.236 112.133 108.941 112.133 110.798V132.008H103.228V110.798C103.228 108.941 102.796 107.506 101.933 106.491C101.069 105.455 99.7958 104.937 98.112 104.937C96.8599 104.937 95.6834 105.207 94.5824 105.747C93.4815 106.286 92.4345 107.042 91.4415 108.013V132.008H82.5043V98.6227H88.0091C89.1316 98.6227 89.8764 99.1408 90.2434 100.177L90.7938 102.508ZM151.845 107.268C153.42 107.268 154.78 107.074 155.925 106.686C157.069 106.275 158.008 105.725 158.742 105.034C159.476 104.322 160.015 103.491 160.361 102.541C160.706 101.591 160.879 100.555 160.879 99.4322C160.879 97.2087 160.134 95.4817 158.645 94.2512C157.177 93.0207 154.932 92.4055 151.909 92.4055H146.858V107.268H151.845ZM174.609 132.008H165.833C164.193 132.008 163.005 131.382 162.271 130.13L153.334 115.72C152.967 115.159 152.557 114.748 152.104 114.489C151.672 114.23 151.024 114.101 150.161 114.101H146.858V132.008H137.143V85.0226H151.909C155.191 85.0226 157.997 85.368 160.328 86.0588C162.66 86.728 164.57 87.667 166.06 88.8759C167.549 90.0848 168.64 91.5312 169.33 93.215C170.021 94.8772 170.367 96.7122 170.367 98.7198C170.367 100.274 170.14 101.753 169.687 103.156C169.255 104.538 168.618 105.8 167.776 106.945C166.934 108.089 165.898 109.103 164.667 109.988C163.437 110.874 162.034 111.586 160.458 112.126C161.084 112.471 161.667 112.892 162.207 113.388C162.746 113.863 163.232 114.435 163.664 115.105L174.609 132.008ZM197.582 111.381C197.582 110.453 197.452 109.567 197.193 108.726C196.956 107.884 196.567 107.139 196.028 106.491C195.488 105.844 194.808 105.336 193.988 104.969C193.167 104.581 192.185 104.387 191.041 104.387C188.904 104.387 187.231 104.991 186.022 106.2C184.813 107.409 184.025 109.136 183.658 111.381H197.582ZM183.528 116.691C183.809 119.822 184.694 122.11 186.184 123.556C187.695 125.003 189.659 125.726 192.077 125.726C193.308 125.726 194.365 125.585 195.25 125.305C196.157 125.003 196.945 124.679 197.614 124.333C198.305 123.966 198.92 123.643 199.46 123.362C200.021 123.06 200.572 122.909 201.111 122.909C201.802 122.909 202.342 123.168 202.731 123.686L205.321 126.924C204.371 128.025 203.324 128.942 202.18 129.676C201.036 130.389 199.849 130.961 198.618 131.392C197.388 131.803 196.146 132.083 194.894 132.234C193.642 132.407 192.433 132.493 191.268 132.493C188.936 132.493 186.756 132.116 184.727 131.36C182.719 130.583 180.96 129.45 179.448 127.96C177.959 126.449 176.782 124.582 175.919 122.358C175.055 120.135 174.624 117.555 174.624 114.619C174.624 112.352 174.991 110.215 175.725 108.207C176.48 106.2 177.56 104.451 178.963 102.962C180.366 101.472 182.071 100.296 184.079 99.4322C186.087 98.5471 188.353 98.1046 190.879 98.1046C193.016 98.1046 194.981 98.45 196.772 99.1408C198.586 99.81 200.14 100.792 201.435 102.087C202.752 103.383 203.767 104.98 204.479 106.88C205.213 108.758 205.58 110.906 205.58 113.324C205.58 113.993 205.548 114.543 205.483 114.975C205.418 115.407 205.31 115.752 205.159 116.011C205.008 116.27 204.803 116.454 204.544 116.562C204.285 116.648 203.95 116.691 203.54 116.691H183.528ZM232.951 111.381C232.951 110.453 232.821 109.567 232.562 108.726C232.325 107.884 231.936 107.139 231.397 106.491C230.857 105.844 230.177 105.336 229.356 104.969C228.536 104.581 227.554 104.387 226.41 104.387C224.273 104.387 222.6 104.991 221.391 106.2C220.182 107.409 219.394 109.136 219.027 111.381H232.951ZM218.897 116.691C219.178 119.822 220.063 122.11 221.553 123.556C223.064 125.003 225.028 125.726 227.446 125.726C228.676 125.726 229.734 125.585 230.619 125.305C231.526 125.003 232.314 124.679 232.983 124.333C233.674 123.966 234.289 123.643 234.829 123.362C235.39 123.06 235.941 122.909 236.48 122.909C237.171 122.909 237.711 123.168 238.099 123.686L240.69 126.924C239.74 128.025 238.693 128.942 237.549 129.676C236.405 130.389 235.217 130.961 233.987 131.392C232.757 131.803 231.515 132.083 230.263 132.234C229.011 132.407 227.802 132.493 226.636 132.493C224.305 132.493 222.125 132.116 220.095 131.36C218.088 130.583 216.328 129.45 214.817 127.96C213.328 126.449 212.151 124.582 211.288 122.358C210.424 120.135 209.993 117.555 209.993 114.619C209.993 112.352 210.36 110.215 211.093 108.207C211.849 106.2 212.928 104.451 214.332 102.962C215.735 101.472 217.44 100.296 219.448 99.4322C221.455 98.5471 223.722 98.1046 226.248 98.1046C228.385 98.1046 230.35 98.45 232.141 99.1408C233.955 99.81 235.509 100.792 236.804 102.087C238.121 103.383 239.136 104.98 239.848 106.88C240.582 108.758 240.949 110.906 240.949 113.324C240.949 113.993 240.917 114.543 240.852 114.975C240.787 115.407 240.679 115.752 240.528 116.011C240.377 116.27 240.172 116.454 239.913 116.562C239.654 116.648 239.319 116.691 238.909 116.691H218.897ZM267.899 105.487C267.661 105.854 267.413 106.124 267.154 106.297C266.916 106.448 266.582 106.524 266.15 106.524C265.718 106.524 265.276 106.416 264.822 106.2C264.369 105.984 263.862 105.757 263.301 105.52C262.739 105.261 262.092 105.023 261.358 104.807C260.645 104.592 259.814 104.484 258.864 104.484C257.418 104.484 256.295 104.786 255.497 105.39C254.698 105.973 254.299 106.75 254.299 107.722C254.299 108.391 254.525 108.952 254.979 109.406C255.432 109.859 256.026 110.258 256.76 110.604C257.515 110.928 258.368 111.241 259.318 111.543C260.268 111.823 261.239 112.136 262.232 112.482C263.247 112.827 264.229 113.227 265.179 113.68C266.129 114.133 266.97 114.705 267.704 115.396C268.46 116.065 269.064 116.886 269.518 117.857C269.971 118.807 270.198 119.962 270.198 121.322C270.198 122.941 269.896 124.441 269.291 125.823C268.708 127.183 267.845 128.359 266.701 129.352C265.556 130.345 264.132 131.123 262.426 131.684C260.721 132.245 258.756 132.526 256.533 132.526C255.389 132.526 254.255 132.418 253.133 132.202C252.01 132.008 250.942 131.727 249.927 131.36C248.913 130.971 247.963 130.529 247.078 130.032C246.193 129.536 245.426 128.996 244.779 128.413L246.851 125.078C247.088 124.69 247.38 124.387 247.725 124.171C248.092 123.956 248.556 123.848 249.118 123.848C249.657 123.848 250.154 123.988 250.607 124.269C251.06 124.528 251.568 124.819 252.129 125.143C252.69 125.445 253.349 125.737 254.104 126.017C254.881 126.276 255.842 126.406 256.986 126.406C257.85 126.406 258.595 126.309 259.221 126.114C259.847 125.92 260.354 125.661 260.742 125.337C261.131 124.992 261.412 124.614 261.584 124.204C261.779 123.772 261.876 123.33 261.876 122.876C261.876 122.142 261.638 121.549 261.163 121.095C260.71 120.62 260.106 120.21 259.35 119.865C258.616 119.519 257.763 119.206 256.792 118.926C255.821 118.645 254.827 118.332 253.813 117.987C252.82 117.641 251.838 117.231 250.866 116.756C249.916 116.281 249.064 115.688 248.308 114.975C247.574 114.241 246.97 113.345 246.495 112.288C246.041 111.23 245.815 109.945 245.815 108.434C245.815 107.053 246.085 105.747 246.624 104.516C247.164 103.264 247.973 102.163 249.053 101.213C250.132 100.263 251.471 99.5077 253.068 98.9465C254.687 98.3852 256.554 98.1046 258.67 98.1046C261.045 98.1046 263.203 98.4931 265.146 99.2703C267.089 100.047 268.687 101.062 269.939 102.314L267.899 105.487Z"/><path fill="#00AFAF" d="M32.5848 59.6851L32.9366 59.7929L32.9369 59.7919L32.5848 59.6851ZM28.8345 66.65L28.5554 66.4103L28.5551 66.4106L28.8345 66.65ZM22.6114 71.101L22.7532 71.4405L22.7532 71.4405L22.6114 71.101ZM9.38219 72.3786L9.4295 72.0136L9.42358 72.0129L9.38219 72.3786ZM4.7664 71.5543L4.39994 71.521L4.37106 71.8387L4.68145 71.9123L4.7664 71.5543ZM5.0961 67.9276L5.46256 67.9609L5.46256 67.9609L5.0961 67.9276ZM5.4258 64.3009L5.06047 64.2553L5.05934 64.2676L5.4258 64.3009ZM6.20884 62.7349L6.45129 63.012L6.4605 63.0033L6.20884 62.7349ZM9.87674 62.364L9.794 62.7225L9.79692 62.7232L9.87674 62.364ZM16.4707 61.993L16.3415 61.6485L16.3415 61.6485L16.4707 61.993ZM19.232 59.9736L18.9438 59.7448L18.9438 59.7448L19.232 59.9736ZM20.8805 56.3469L20.5238 56.2562L20.5227 56.2608L20.8805 56.3469ZM21.4574 12.2084V11.8405H21.0895V12.2084H21.4574ZM33.8212 12.2084H34.1891V11.8405H33.8212V12.2084ZM33.4532 50.5772C33.4532 53.8993 33.0447 56.8986 32.2326 59.5784L32.9369 59.7919C33.7734 57.0317 34.1891 53.959 34.1891 50.5772H33.4532ZM32.2329 59.5774C31.4221 62.2261 30.1952 64.5016 28.5554 66.4103L29.1136 66.8898C30.8257 64.8971 32.0989 62.5293 32.9366 59.7929L32.2329 59.5774ZM28.5551 66.4106C26.9466 68.2872 24.9205 69.738 22.4696 70.7614L22.7532 71.4405C25.3027 70.3759 27.4253 68.8594 29.1138 66.8895L28.5551 66.4106ZM22.4696 70.7614C20.0232 71.783 17.1609 72.2991 13.8743 72.2991V73.035C17.2368 73.035 20.1991 72.5071 22.7532 71.4405L22.4696 70.7614ZM13.8743 72.2991C12.3789 72.2991 10.8973 72.2039 9.4295 72.0137L9.33489 72.7435C10.8344 72.9379 12.3476 73.035 13.8743 73.035V72.2991ZM9.42358 72.0129C7.9839 71.85 6.45993 71.578 4.85136 71.1963L4.68145 71.9123C6.31492 72.3 7.86814 72.5775 9.3408 72.7442L9.42358 72.0129ZM5.13286 71.5876C5.24276 70.3787 5.35266 69.1698 5.46256 67.9609L4.72964 67.8943C4.61974 69.1032 4.50984 70.3121 4.39994 71.521L5.13286 71.5876ZM5.46256 67.9609C5.57246 66.752 5.68236 65.5431 5.79226 64.3343L5.05934 64.2676C4.94944 65.4765 4.83954 66.6854 4.72964 67.8943L5.46256 67.9609ZM5.79093 64.3466C5.86381 63.7635 6.08883 63.3288 6.45114 63.0118L5.96653 62.4579C5.44964 62.9102 5.15264 63.5195 5.06067 64.2553L5.79093 64.3466ZM6.4605 63.0033C6.81013 62.6755 7.33898 62.4846 8.10461 62.4846V61.7487C7.22174 61.7487 6.48674 61.9699 5.95717 62.4664L6.4605 63.0033ZM8.10461 62.4846C8.53275 62.4846 9.0933 62.5608 9.794 62.7225L9.95948 62.0054C9.23149 61.8374 8.61061 61.7487 8.10461 61.7487V62.4846ZM9.79692 62.7232C10.5732 62.8957 11.5084 62.9792 12.5968 62.9792V62.2433C11.5421 62.2433 10.6639 62.1619 9.95656 62.0047L9.79692 62.7232ZM12.5968 62.9792C14.1134 62.9792 15.4503 62.7687 16.5999 62.3376L16.3415 61.6485C15.2931 62.0416 14.0474 62.2433 12.5968 62.2433V62.9792ZM16.5999 62.3376C17.7625 61.9016 18.7375 61.188 19.5201 60.2025L18.9438 59.7448C18.2428 60.6276 17.377 61.2602 16.3415 61.6485L16.5999 62.3376ZM19.5201 60.2025C20.3032 59.2164 20.8719 57.9547 21.2382 56.4331L20.5227 56.2608C20.1747 57.7064 19.6444 58.8626 18.9438 59.7448L19.5201 60.2025ZM21.2371 56.4377C21.6315 54.8882 21.8254 53.0288 21.8254 50.8657H21.0895C21.0895 52.9887 20.8987 54.7834 20.5239 56.2562L21.2371 56.4377ZM21.8254 50.8657V12.2084H21.0895V50.8657H21.8254ZM21.4574 12.5764H33.8212V11.8405H21.4574V12.5764ZM33.4532 12.2084V50.5772H34.1891V12.2084H33.4532ZM70.6664 45.7553V46.1233H71.0343V45.7553H70.6664ZM70.1718 42.3759L69.8176 42.4758L69.8201 42.4841L70.1718 42.3759ZM68.6882 39.5323L68.4055 39.7678L68.4055 39.7678L68.6882 39.5323ZM66.0918 37.5953L65.9342 37.9279L65.9415 37.9312L66.0918 37.5953ZM52.945 45.7553L52.5819 45.696L52.512 46.1233H52.945V45.7553ZM52.7802 52.5142V52.1462H52.3777L52.4137 52.547L52.7802 52.5142ZM56.1596 61.2512L55.9032 61.5152L55.9051 61.517L56.1596 61.2512ZM67.6991 63.4767L67.8103 63.8275L67.8154 63.8258L67.6991 63.4767ZM70.7076 62.2403L70.8763 62.5673L70.8802 62.5653L70.7076 62.2403ZM73.0567 61.0039L73.2265 61.3304L73.2311 61.3279L73.0567 61.0039ZM77.2191 61.4161L76.9246 61.637L76.9318 61.6459L77.2191 61.4161ZM80.5161 65.5373L80.7947 65.7777L80.9945 65.5462L80.8035 65.3074L80.5161 65.5373ZM76.5185 69.0404L76.713 69.3528L76.7172 69.3501L76.5185 69.0404ZM71.9852 71.2246L72.1015 71.5738L72.107 71.5718L71.9852 71.2246ZM67.2457 72.2961L67.2016 71.9308L67.1954 71.9316L67.2457 72.2961ZM54.305 71.1834L54.1722 71.5266L54.1766 71.5283L54.305 71.1834ZM47.5874 66.8561L47.3253 67.1144L47.3291 67.1182L47.5874 66.8561ZM43.0952 59.7264L42.7522 59.8596L42.7522 59.8596L43.0952 59.7264ZM42.848 41.7165L42.5036 41.5869L42.5024 41.5902L42.848 41.7165ZM46.9692 35.0401L47.2371 35.2924L47.2371 35.2924L46.9692 35.0401ZM53.4808 30.548L53.6262 30.886L53.6292 30.8847L53.4808 30.548ZM69.636 30.177L69.5037 30.5204L69.5086 30.5223L69.636 30.177ZM75.5706 33.9274L75.3104 34.1876L75.3126 34.1897L75.5706 33.9274ZM79.4446 40.0268L79.1 40.156L79.1019 40.1608L79.4446 40.0268ZM80.3101 51.6487L80.6279 51.8341L80.6279 51.8341L80.3101 51.6487ZM79.527 52.3493L79.6434 52.6984L79.6561 52.6942L79.6686 52.689L79.527 52.3493ZM71.0343 45.7553C71.0343 44.5392 70.8646 43.3761 70.5235 42.2677L69.8201 42.4841C70.1385 43.5188 70.2984 44.6086 70.2984 45.7553H71.0343ZM70.526 42.276C70.2102 41.1567 69.6921 40.1622 68.9708 39.2967L68.4055 39.7678C69.058 40.5509 69.5289 41.4521 69.8177 42.4758L70.526 42.276ZM68.9708 39.2967C68.2457 38.4265 67.3338 37.7478 66.242 37.2594L65.9415 37.9312C66.9378 38.3769 67.7569 38.9895 68.4055 39.7678L68.9708 39.2967ZM66.2493 37.2627C65.1449 36.7396 63.8383 36.4855 62.3414 36.4855V37.2214C63.7569 37.2214 64.9505 37.4619 65.9343 37.9278L66.2493 37.2627ZM62.3414 36.4855C59.5496 36.4855 57.3172 37.2773 55.6933 38.9012L56.2137 39.4216C57.667 37.9683 59.6932 37.2214 62.3414 37.2214V36.4855ZM55.6933 38.9012C54.0848 40.5097 53.0573 42.7874 52.5819 45.696L53.3082 45.8147C53.7669 43.0085 54.7451 40.8902 56.2137 39.4216L55.6933 38.9012ZM52.945 46.1233H70.6664V45.3874H52.945V46.1233ZM52.4137 52.547C52.7748 56.5752 53.9188 59.5883 55.9032 61.5152L56.4159 60.9872C54.6088 59.2325 53.4999 56.4209 53.1467 52.4813L52.4137 52.547ZM55.9051 61.517C57.9076 63.4336 60.5041 64.3804 63.6602 64.3804V63.6445C60.662 63.6445 58.2581 62.7504 56.414 60.9854L55.9051 61.517ZM63.6602 64.3804C65.2526 64.3804 66.6383 64.199 67.8103 63.8274L67.5878 63.1259C66.5069 63.4687 65.2001 63.6445 63.6602 63.6445V64.3804ZM67.8154 63.8258C68.9828 63.4366 70.004 63.0176 70.8763 62.5673L70.5388 61.9133C69.7077 62.3423 68.7232 62.7474 67.5827 63.1276L67.8154 63.8258ZM70.8802 62.5653C71.7587 62.0986 72.5407 61.687 73.2264 61.3304L72.8869 60.6775C72.1989 61.0353 71.4148 61.4479 70.5349 61.9154L70.8802 62.5653ZM73.2311 61.3279C73.9016 60.9669 74.5427 60.7949 75.1585 60.7949V60.059C74.4006 60.059 73.6405 60.2717 72.8822 60.68L73.2311 61.3279ZM75.1585 60.7949C75.9309 60.7949 76.5049 61.0771 76.9248 61.6368L77.5135 61.1953C76.9442 60.4363 76.1445 60.059 75.1585 60.059V60.7949ZM76.9318 61.6459L80.2288 65.7672L80.8035 65.3074L77.5065 61.1862L76.9318 61.6459ZM80.2375 65.2969C79.0502 66.6732 77.7442 67.8169 76.3198 68.7306L76.7172 69.3501C78.2052 68.3955 79.5643 67.2039 80.7947 65.7777L80.2375 65.2969ZM76.324 68.728C74.89 69.6209 73.4031 70.3371 71.8633 70.8774L72.107 71.5718C73.6993 71.0131 75.2347 70.2732 76.713 69.3527L76.324 68.728ZM71.8688 70.8755C70.3255 71.39 68.7699 71.7416 67.2016 71.9308L67.2898 72.6615C68.9086 72.4661 70.5126 72.1033 72.1015 71.5737L71.8688 70.8755ZM67.1954 71.9316C65.6172 72.1493 64.0954 72.2579 62.6299 72.2579V72.9938C64.1317 72.9938 65.6872 72.8826 67.296 72.6607L67.1954 71.9316ZM62.6299 72.2579C59.7031 72.2579 56.9719 71.7838 54.4334 70.8386L54.1766 71.5283C56.8034 72.5063 59.6222 72.9938 62.6299 72.9938V72.2579ZM54.4379 70.8403C51.9289 69.8691 49.7326 68.454 47.8457 66.594L47.3291 67.1182C49.2887 69.0498 51.5708 70.5196 54.1722 71.5266L54.4379 70.8403ZM47.8495 66.5978C45.993 64.7145 44.5213 62.3821 43.4383 59.5932L42.7522 59.8596C43.8671 62.7305 45.3902 65.1512 47.3253 67.1144L47.8495 66.5978ZM43.4383 59.5932C42.3591 56.8143 41.8147 53.5778 41.8147 49.8766H41.0788C41.0788 53.6486 41.6334 56.9786 42.7522 59.8596L43.4383 59.5932ZM41.8147 49.8766C41.8147 47.0322 42.2751 44.3552 43.1936 41.8429L42.5024 41.5902C41.5525 44.1882 41.0788 46.9512 41.0788 49.8766H41.8147ZM43.1924 41.8461C44.1377 39.3343 45.4862 37.1511 47.2371 35.2924L46.7014 34.7878C44.8805 36.7207 43.4815 38.9884 42.5036 41.5869L43.1924 41.8461ZM47.2371 35.2924C48.9861 33.4358 51.1141 31.9665 53.6262 30.886L53.3354 30.2099C50.7372 31.3275 48.5241 32.8529 46.7014 34.7878L47.2371 35.2924ZM53.6292 30.8847C56.1311 29.7817 58.9642 29.2262 62.1354 29.2262V28.4903C58.8774 28.4903 55.9408 29.0613 53.3323 30.2113L53.6292 30.8847ZM62.1354 29.2262C64.8152 29.2262 67.27 29.6592 69.5037 30.5204L69.7684 29.8337C67.4413 28.9365 64.8956 28.4903 62.1354 28.4903V29.2262ZM69.5086 30.5223C71.7695 31.3566 73.7016 32.5787 75.3104 34.1876L75.8308 33.6672C74.1427 31.979 72.1184 30.7009 69.7634 29.8318L69.5086 30.5223ZM75.3126 34.1897C76.9468 35.7971 78.2103 37.7834 79.1001 40.156L79.7891 39.8976C78.8655 37.4347 77.5464 35.3547 75.8287 33.665L75.3126 34.1897ZM79.1019 40.1608C80.0164 42.5008 80.4779 45.1878 80.4779 48.2281H81.2138C81.2138 45.114 80.7411 42.3335 79.7873 39.8929L79.1019 40.1608ZM80.4779 48.2281C80.4779 49.0701 80.437 49.7507 80.3583 50.2753L81.0861 50.3845C81.1722 49.8101 81.2138 49.0896 81.2138 48.2281H80.4779ZM80.3583 50.2753C80.2799 50.7979 80.1529 51.1878 79.9922 51.4633L80.6279 51.8341C80.8519 51.4502 80.9996 50.9609 81.0861 50.3845L80.3583 50.2753ZM79.9922 51.4633C79.8373 51.7288 79.636 51.9053 79.3855 52.0097L79.6686 52.689C80.0775 52.5186 80.3981 52.228 80.6279 51.8341L79.9922 51.4633ZM79.4107 52.0002C79.1323 52.093 78.7497 52.1462 78.2494 52.1462V52.8822C78.7932 52.8822 79.2624 52.8254 79.6434 52.6984L79.4107 52.0002ZM78.2494 52.1462H52.7802V52.8822H78.2494V52.1462ZM91.0948 72.0077H90.7269V72.3756H91.0948V72.0077ZM91.0948 37.6777H91.4628V37.3685L91.1583 37.3153L91.0948 37.6777ZM87.7978 37.1007L87.7279 37.4621L87.7344 37.4632L87.7978 37.1007ZM85.696 36.1941L85.4589 36.4756L85.4661 36.4814L85.696 36.1941ZM84.913 29.7649V29.397H84.545V29.7649H84.913ZM91.0948 29.7649V30.1329H91.4628V29.7649H91.0948ZM92.2076 21.1515L91.8646 21.0182L91.8636 21.0207L92.2076 21.1515ZM95.4634 16.1648L95.7183 16.4302L95.721 16.4276L95.4634 16.1648ZM100.615 12.9915L100.741 13.3371L100.741 13.3371L100.615 12.9915ZM110.3 12.0848L110.243 12.4484L110.245 12.4486L110.3 12.0848ZM113.02 12.6618L113.387 12.678L113.4 12.3842L113.117 12.3068L113.02 12.6618ZM112.773 18.2667L113.14 18.2911L113.14 18.2829L112.773 18.2667ZM111.66 19.9152L111.523 19.5735L111.518 19.5755L111.66 19.9152ZM106.302 20.6982L106.208 20.3425L106.205 20.3432L106.302 20.6982ZM103.994 21.9758L104.243 22.2476L104.249 22.2417L103.994 21.9758ZM102.552 24.3661L102.901 24.4825L102.902 24.4796L102.552 24.3661ZM102.057 29.7649H101.689V30.1329H102.057V29.7649ZM118.089 29.7649V30.1329H118.457V29.7649H118.089ZM119.202 19.7091L118.859 19.5757L118.858 19.5783L119.202 19.7091ZM122.457 14.7224L122.712 14.9877L122.715 14.9851L122.457 14.7224ZM127.609 11.549L127.483 11.2034L127.483 11.2034L127.609 11.549ZM137.294 10.6424L137.237 11.0061L137.25 11.0077L137.294 10.6424ZM140.014 11.1781L140.382 11.1943L140.395 10.9005L140.111 10.8231L140.014 11.1781ZM139.767 16.783L140.134 16.8067L140.134 16.7992L139.767 16.783ZM138.654 18.4727L138.783 18.8173L138.791 18.8144L138.654 18.4727ZM133.296 19.2145L133.202 18.8588L133.2 18.8595L133.296 19.2145ZM130.988 20.4921L131.243 20.7583L131.243 20.758L130.988 20.4921ZM129.587 22.8825L129.936 22.9988L129.937 22.996L129.587 22.8825ZM129.093 29.7649H128.725V30.1329H129.093V29.7649ZM139.602 29.7649H139.97V29.397H139.602V29.7649ZM139.602 37.6777V38.0457H139.97V37.6777H139.602ZM129.422 37.6777V37.3097H129.054V37.6777H129.422ZM129.422 72.0077V72.3756H129.79V72.0077H129.422ZM118.089 72.0077H117.721V72.3756H118.089V72.0077ZM118.089 37.6777H118.457V37.3097H118.089V37.6777ZM102.428 37.6777V37.3097H102.06V37.6777H102.428ZM102.428 72.0077V72.3756H102.796V72.0077H102.428ZM91.4628 72.0077V37.6777H90.7269V72.0077H91.4628ZM91.1583 37.3153L87.8613 36.7383L87.7344 37.4632L91.0314 38.0402L91.1583 37.3153ZM87.8678 36.7395C87.0611 36.5834 86.4192 36.3014 85.9259 35.9067L85.4661 36.4814C86.0718 36.9659 86.8311 37.2884 87.7279 37.462L87.8678 36.7395ZM85.933 35.9126C85.5113 35.5574 85.2809 35.0388 85.2809 34.2983H84.545C84.545 35.2063 84.8367 35.9515 85.459 36.4755L85.933 35.9126ZM85.2809 34.2983V29.7649H84.545V34.2983H85.2809ZM84.913 30.1329H91.0948V29.397H84.913V30.1329ZM91.4628 29.7649V27.7043H90.7269V29.7649H91.4628ZM91.4628 27.7043C91.4628 25.3242 91.8279 23.1852 92.5515 21.2823L91.8636 21.0207C91.1036 23.0193 90.7269 25.2488 90.7269 27.7043H91.4628ZM92.5505 21.2849C93.3022 19.3519 94.3591 17.7361 95.7183 16.4302L95.2084 15.8995C93.7652 17.2861 92.6515 18.9948 91.8646 21.0182L92.5505 21.2849ZM95.721 16.4276C97.0811 15.0941 98.752 14.0629 100.741 13.3371L100.489 12.6458C98.4115 13.4037 96.6481 14.488 95.2057 15.9021L95.721 16.4276ZM100.741 13.3371C102.727 12.6125 104.978 12.2467 107.497 12.2467V11.5108C104.907 11.5108 102.569 11.8868 100.489 12.6458L100.741 13.3371ZM107.497 12.2467C108.47 12.2467 109.385 12.3142 110.243 12.4484L110.357 11.7212C109.457 11.5806 108.503 11.5108 107.497 11.5108V12.2467ZM110.245 12.4486C111.137 12.5838 112.03 12.7731 112.923 13.0168L113.117 12.3068C112.197 12.0558 111.276 11.8605 110.355 11.721L110.245 12.4486ZM112.652 12.6456L112.405 18.2504L113.14 18.2829L113.387 12.678L112.652 12.6456ZM112.405 18.2422C112.381 18.6052 112.289 18.882 112.148 19.0911C112.009 19.2978 111.806 19.4602 111.523 19.5735L111.796 20.2568C112.2 20.0954 112.527 19.8457 112.758 19.5028C112.988 19.1624 113.109 18.7524 113.14 18.2911L112.405 18.2422ZM111.518 19.5755C110.91 19.8289 110.217 19.9593 109.434 19.9593V20.6952C110.3 20.6952 111.091 20.5509 111.801 20.2548L111.518 19.5755ZM109.434 19.9593C108.255 19.9593 107.178 20.0857 106.208 20.3425L106.396 21.0539C107.295 20.8162 108.306 20.6952 109.434 20.6952V19.9593ZM106.205 20.3432C105.244 20.6053 104.419 21.0599 103.74 21.7099L104.249 22.2417C104.833 21.6827 105.547 21.2856 106.399 21.0532L106.205 20.3432ZM103.746 21.704C103.057 22.3335 102.546 23.1902 102.202 24.2526L102.902 24.4796C103.217 23.5088 103.668 22.772 104.242 22.2475L103.746 21.704ZM102.203 24.2497C101.857 25.2885 101.689 26.5673 101.689 28.0752H102.425C102.425 26.6158 102.588 25.4219 102.901 24.4825L102.203 24.2497ZM101.689 28.0752V29.7649H102.425V28.0752H101.689ZM102.057 30.1329H118.089V29.397H102.057V30.1329ZM118.457 29.7649V26.2619H117.721V29.7649H118.457ZM118.457 26.2619C118.457 23.8818 118.822 21.7428 119.546 19.8399L118.858 19.5783C118.098 21.5769 117.721 23.8064 117.721 26.2619H118.457ZM119.545 19.8425C120.296 17.9095 121.353 16.2936 122.712 14.9877L122.203 14.457C120.759 15.8437 119.646 17.5523 118.859 19.5757L119.545 19.8425ZM122.715 14.9851C124.075 13.6517 125.746 12.6204 127.735 11.8947L127.483 11.2034C125.406 11.9613 123.642 13.0456 122.2 14.4596L122.715 14.9851ZM127.735 11.8947C129.721 11.17 131.972 10.8043 134.492 10.8043V10.0683C131.901 10.0683 129.563 10.4444 127.483 11.2034L127.735 11.8947ZM134.492 10.8043C135.464 10.8043 136.379 10.8718 137.237 11.0059L137.351 10.2788C136.451 10.1382 135.498 10.0683 134.492 10.0683V10.8043ZM137.25 11.0077C138.138 11.1153 139.027 11.2904 139.917 11.5331L140.111 10.8231C139.187 10.5713 138.263 10.3892 137.338 10.2771L137.25 11.0077ZM139.646 11.1619L139.399 16.7668L140.134 16.7992L140.382 11.1943L139.646 11.1619ZM139.4 16.7593C139.375 17.1381 139.282 17.426 139.14 17.6419C139 17.8546 138.798 18.0188 138.517 18.1311L138.791 18.8144C139.197 18.6519 139.524 18.3971 139.755 18.0466C139.983 17.6993 140.103 17.2797 140.134 16.8067L139.4 16.7593ZM138.525 18.1282C137.913 18.3576 137.216 18.4757 136.428 18.4757V19.2116C137.289 19.2116 138.076 19.0824 138.783 18.8173L138.525 18.1282ZM136.428 18.4757C135.249 18.4757 134.172 18.602 133.202 18.8588L133.391 19.5703C134.289 19.3325 135.3 19.2116 136.428 19.2116V18.4757ZM133.2 18.8595C132.238 19.1217 131.414 19.5763 130.734 20.2262L131.243 20.758C131.827 20.1991 132.541 19.8019 133.393 19.5695L133.2 18.8595ZM130.734 20.226C130.075 20.8552 129.581 21.7101 129.237 22.7689L129.937 22.996C130.253 22.0217 130.693 21.283 131.243 20.7583L130.734 20.226ZM129.238 22.7661C128.892 23.8049 128.725 25.0837 128.725 26.5916H129.461C129.461 25.1322 129.623 23.9382 129.936 22.9988L129.238 22.7661ZM128.725 26.5916V29.7649H129.461V26.5916H128.725ZM129.093 30.1329H139.602V29.397H129.093V30.1329ZM139.234 29.7649V37.6777H139.97V29.7649H139.234ZM139.602 37.3097H129.422V38.0457H139.602V37.3097ZM129.054 37.6777V72.0077H129.79V37.6777H129.054ZM129.422 71.6397H118.089V72.3756H129.422V71.6397ZM118.457 72.0077V37.6777H117.721V72.0077H118.457ZM118.089 37.3097H102.428V38.0457H118.089V37.3097ZM102.06 37.6777V72.0077H102.796V37.6777H102.06ZM102.428 71.6397H91.0948V72.3756H102.428V71.6397ZM49.947 85.0226L50.2883 85.1599L50.4917 84.6546H49.947V85.0226ZM31.0364 132.008V132.376H31.2849L31.3777 132.145L31.0364 132.008ZM22.2287 132.008L21.8873 132.145L21.9801 132.376H22.2287V132.008ZM3.31808 85.0226V84.6546H2.77332L2.97672 85.1599L3.31808 85.0226ZM13.1943 85.6378L12.9659 85.9263L12.9725 85.9315L12.9793 85.9364L13.1943 85.6378ZM14.3924 87.1597L14.7371 87.0303L14.7325 87.019L14.3924 87.1597ZM24.5601 114.23L24.2157 114.36L24.2165 114.362L24.5601 114.23ZM25.6935 117.566L25.3413 117.673L25.3438 117.68L25.6935 117.566ZM26.7621 121.322L26.4047 121.41L27.1219 121.399L26.7621 121.322ZM27.6687 117.566L27.3149 117.465L27.3137 117.469L27.6687 117.566ZM28.7697 114.23L29.1133 114.362L29.1144 114.359L28.7697 114.23ZM38.8726 87.1597L38.5309 87.023L38.5279 87.0311L38.8726 87.1597ZM40.006 85.7026L40.2358 85.9899L40.2372 85.9888L40.006 85.7026ZM49.6056 84.8852L30.695 131.87L31.3777 132.145L50.2883 85.1599L49.6056 84.8852ZM31.0364 131.64H22.2287V132.376H31.0364V131.64ZM22.5701 131.87L3.65944 84.8852L2.97672 85.1599L21.8873 132.145L22.5701 131.87ZM3.31808 85.3905H11.1543V84.6546H3.31808V85.3905ZM11.1543 85.3905C11.9364 85.3905 12.5289 85.5803 12.9659 85.9263L13.4227 85.3493C12.8236 84.875 12.0561 84.6546 11.1543 84.6546V85.3905ZM12.9793 85.9364C13.4624 86.2842 13.819 86.7364 14.0524 87.3004L14.7325 87.019C14.4478 86.331 14.0057 85.7685 13.4093 85.3392L12.9793 85.9364ZM14.048 87.2891L24.2157 114.36L24.9046 114.101L14.7369 87.0303L14.048 87.2891ZM24.2165 114.362C24.6015 115.367 24.9765 116.471 25.3414 117.673L26.0456 117.459C25.6765 116.243 25.2959 115.123 24.9038 114.099L24.2165 114.362ZM25.3438 117.68C25.7292 118.858 26.0829 120.101 26.4047 121.41L27.1194 121.234C26.7936 119.909 26.4349 118.648 26.0432 117.451L25.3438 117.68ZM27.1219 121.399C27.4013 120.088 27.7019 118.843 28.0237 117.662L27.3137 117.469C26.9879 118.663 26.6841 119.922 26.4022 121.245L27.1219 121.399ZM28.0225 117.667C28.3654 116.467 28.7291 115.365 29.1133 114.362L28.4261 114.099C28.0331 115.125 27.6628 116.247 27.3149 117.465L28.0225 117.667ZM29.1144 114.359L39.2174 87.2884L38.5279 87.0311L28.4249 114.102L29.1144 114.359ZM39.2143 87.2964C39.4024 86.826 39.7364 86.3894 40.2358 85.9899L39.7761 85.4152C39.1962 85.8792 38.7746 86.4141 38.531 87.0231L39.2143 87.2964ZM40.2372 85.9888C40.7241 85.5955 41.33 85.3905 42.0784 85.3905V84.6546C41.1861 84.6546 40.4104 84.9029 39.7748 85.4163L40.2372 85.9888ZM42.0784 85.3905H49.947V84.6546H42.0784V85.3905ZM66.17 118.051H66.5379V117.665L66.1518 117.684L66.17 118.051ZM60.7299 118.634L60.7948 118.996L60.8 118.995L60.7299 118.634ZM57.2651 119.67L57.1006 119.341L57.0972 119.343L57.2651 119.67ZM55.4518 121.16L55.1438 120.959L55.1419 120.962L55.4518 121.16ZM56.0023 125.693L55.7801 125.987L55.7843 125.99L56.0023 125.693ZM62.8995 125.726L63.0587 126.057L63.0614 126.056L62.8995 125.726ZM66.17 123.232L66.4352 123.487L66.5379 123.381V123.232H66.17ZM47.9717 103.253L47.7254 102.98L47.5076 103.176L47.6502 103.432L47.9717 103.253ZM54.4804 99.3027L54.6061 99.6485L54.6089 99.6475L54.4804 99.3027ZM67.4976 98.9465L67.3561 99.2861L67.3577 99.2868L67.4976 98.9465ZM71.4805 101.666L71.2104 101.917L71.2153 101.922L71.4805 101.666ZM74.8805 132.008V132.376H75.2485V132.008H74.8805ZM68.8576 131.651L68.6802 131.974L68.6869 131.977L68.8576 131.651ZM67.789 130.162L67.4397 130.278L67.4441 130.29L67.789 130.162ZM67.0766 128.025L67.4257 127.908L67.2511 127.385L66.8348 127.747L67.0766 128.025ZM64.6157 129.968L64.4041 129.667L64.4002 129.669L64.6157 129.968ZM62.1871 131.392L62.3341 131.73L62.3413 131.727L62.1871 131.392ZM59.4671 132.234L59.3949 131.874L59.3933 131.874L59.4671 132.234ZM52.2461 131.943L52.1335 132.293L52.1335 132.293L52.2461 131.943ZM49.1051 130.227L48.8588 130.5L48.8662 130.507L49.1051 130.227ZM47.3241 119.703L46.9962 119.536L46.9962 119.536L47.3241 119.703ZM50.5299 116.368L50.7319 116.675L50.733 116.674L50.5299 116.368ZM56.6175 113.874L56.7089 114.231L56.711 114.23L56.6175 113.874ZM66.17 112.741L66.1783 113.109L66.5379 113.101V112.741H66.17ZM64.8423 106.427L64.5676 106.671L64.5703 106.674L64.8423 106.427ZM57.9451 105.39L58.0643 105.739L58.0724 105.736L57.9451 105.39ZM55.7756 106.329L55.9494 106.654L55.9534 106.652L55.7756 106.329ZM54.0594 107.268L54.2292 107.595L54.2392 107.589L54.0594 107.268ZM50.5946 107.236L50.3666 107.525L50.3749 107.531L50.3836 107.538L50.5946 107.236ZM49.5584 106.103L49.2369 106.282L49.243 106.293L49.2499 106.303L49.5584 106.103ZM66.1518 117.684C63.9615 117.792 62.1294 117.988 60.6598 118.273L60.8 118.995C62.2232 118.719 64.0178 118.526 66.1882 118.419L66.1518 117.684ZM60.6651 118.272C59.2001 118.534 58.0074 118.888 57.1006 119.341L57.4297 120C58.2499 119.589 59.367 119.252 60.7948 118.996L60.6651 118.272ZM57.0972 119.343C56.2206 119.793 55.5572 120.326 55.1438 120.959L55.7598 121.361C56.0803 120.871 56.6259 120.412 57.4331 119.998L57.0972 119.343ZM55.1419 120.962C54.7581 121.561 54.5657 122.224 54.5657 122.941H55.3017C55.3017 122.363 55.4547 121.838 55.7617 121.358L55.1419 120.962ZM54.5657 122.941C54.5657 124.297 54.9398 125.35 55.7801 125.987L56.2245 125.4C55.6399 124.957 55.3017 124.175 55.3017 122.941H54.5657ZM55.7843 125.99C56.6031 126.592 57.7044 126.871 59.0461 126.871V126.135C57.7973 126.135 56.8694 125.874 56.2203 125.397L55.7843 125.99ZM59.0461 126.871C60.5776 126.871 61.919 126.604 63.0587 126.057L62.7402 125.394C61.7212 125.883 60.4936 126.135 59.0461 126.135V126.871ZM63.0614 126.056C64.2098 125.493 65.3338 124.633 66.4352 123.487L65.9047 122.977C64.8474 124.077 63.7911 124.879 62.7375 125.395L63.0614 126.056ZM66.5379 123.232V118.051H65.802V123.232H66.5379ZM48.2181 103.527C50.149 101.787 52.278 100.495 54.6061 99.6485L54.3546 98.9568C51.9335 99.8373 49.7234 101.179 47.7254 102.98L48.2181 103.527ZM54.6089 99.6475C56.9388 98.779 59.4638 98.343 62.1871 98.343V97.6071C59.384 97.6071 56.7711 98.0561 54.3518 98.9579L54.6089 99.6475ZM62.1871 98.343C64.1331 98.343 65.8539 98.6602 67.3561 99.2861L67.6391 98.6068C66.0327 97.9375 64.2131 97.6071 62.1871 97.6071V98.343ZM67.3577 99.2868C68.8878 99.9156 70.17 100.793 71.2105 101.916L71.7505 101.416C70.6322 100.209 69.2591 99.2726 67.6375 98.6061L67.3577 99.2868ZM71.2153 101.922C72.2783 103.026 73.094 104.352 73.6605 105.905L74.3519 105.653C73.7527 104.011 72.8846 102.595 71.7456 101.411L71.2153 101.922ZM73.6605 105.905C74.227 107.458 74.5125 109.163 74.5125 111.025H75.2485C75.2485 109.087 74.9511 107.295 74.3519 105.653L73.6605 105.905ZM74.5125 111.025V132.008H75.2485V111.025H74.5125ZM74.8805 131.64H70.8005V132.376H74.8805V131.64ZM70.8005 131.64C69.9841 131.64 69.4055 131.523 69.0283 131.326L68.6869 131.977C69.2164 132.255 69.933 132.376 70.8005 132.376V131.64ZM69.0349 131.329C68.7166 131.154 68.4021 130.756 68.134 130.034L67.4441 130.29C67.7372 131.079 68.1351 131.674 68.6803 131.974L69.0349 131.329ZM68.1381 130.046L67.4257 127.908L66.7276 128.141L67.4399 130.278L68.1381 130.046ZM66.8348 127.747C66.0012 128.474 65.191 129.114 64.4041 129.667L64.8272 130.269C65.6378 129.699 66.4682 129.043 67.3184 128.302L66.8348 127.747ZM64.4002 129.669C63.6416 130.217 62.8526 130.68 62.0329 131.058L62.3413 131.727C63.2054 131.328 64.0354 130.841 64.8311 130.266L64.4002 129.669ZM62.04 131.055C61.224 131.411 60.3426 131.684 59.3949 131.874L59.5392 132.595C60.5344 132.396 61.4664 132.108 62.3341 131.73L62.04 131.055ZM59.3933 131.874C58.4724 132.062 57.4292 132.158 56.2613 132.158V132.894C57.4681 132.894 58.562 132.795 59.5408 132.595L59.3933 131.874ZM56.2613 132.158C54.8258 132.158 53.526 131.968 52.3587 131.593L52.1335 132.293C53.3839 132.695 54.761 132.894 56.2613 132.894V132.158ZM52.3587 131.593C51.1919 131.218 50.1888 130.668 49.344 129.947L48.8662 130.507C49.7915 131.297 50.8825 131.891 52.1335 132.293L52.3587 131.593ZM49.3512 129.953C48.5311 129.215 47.8927 128.301 47.4373 127.204L46.7576 127.486C47.2521 128.677 47.9521 129.684 48.8589 130.5L49.3512 129.953ZM47.4373 127.204C46.9843 126.112 46.753 124.845 46.753 123.394H46.0171C46.0171 124.923 46.2608 126.289 46.7576 127.486L47.4373 127.204ZM46.753 123.394C46.753 122.229 47.0491 121.055 47.6521 119.87L46.9962 119.536C46.3471 120.812 46.0171 122.099 46.0171 123.394H46.753ZM47.6521 119.87C48.2415 118.711 49.2582 117.644 50.7319 116.675L50.3278 116.06C48.7793 117.078 47.6588 118.233 46.9962 119.536L47.6521 119.87ZM50.733 116.674C52.2204 115.69 54.2077 114.872 56.7089 114.231L56.5261 113.518C53.9759 114.172 51.9047 115.016 50.3267 116.061L50.733 116.674ZM56.711 114.23C59.2211 113.571 62.3744 113.195 66.1783 113.109L66.1617 112.373C62.3236 112.46 59.1086 112.839 56.524 113.518L56.711 114.23ZM66.5379 112.741V111.025H65.802V112.741H66.5379ZM66.5379 111.025C66.5379 108.891 66.0889 107.248 65.1143 106.179L64.5703 106.674C65.366 107.548 65.802 108.971 65.802 111.025H66.5379ZM65.117 106.182C64.1453 105.091 62.7603 104.569 61.0214 104.569V105.305C62.6068 105.305 63.7692 105.775 64.5676 106.671L65.117 106.182ZM61.0214 104.569C59.7638 104.569 58.6919 104.723 57.8179 105.045L58.0724 105.736C58.839 105.453 59.818 105.305 61.0214 105.305V104.569ZM57.826 105.042C56.9896 105.328 56.2461 105.65 55.5978 106.007L55.9534 106.652C56.5572 106.318 57.2601 106.014 58.0643 105.738L57.826 105.042ZM55.6018 106.005C54.9956 106.33 54.4215 106.644 53.8796 106.947L54.2392 107.589C54.7767 107.288 55.3467 106.977 55.9494 106.654L55.6018 106.005ZM53.8896 106.942C53.4107 107.191 52.8447 107.321 52.1813 107.321V108.057C52.9427 108.057 53.6288 107.907 54.2292 107.595L53.8896 106.942ZM52.1813 107.321C51.6162 107.321 51.1646 107.186 50.8056 106.935L50.3836 107.538C50.8881 107.891 51.4943 108.057 52.1813 108.057V107.321ZM50.8226 106.947C50.4435 106.648 50.1254 106.3 49.8669 105.902L49.2499 106.303C49.5527 106.769 49.9255 107.177 50.3666 107.525L50.8226 106.947ZM49.8799 105.924L48.2932 103.074L47.6502 103.432L49.2369 106.282L49.8799 105.924ZM90.7938 102.508L90.4357 102.593L90.5845 103.223L91.0497 102.773L90.7938 102.508ZM92.8662 100.727L92.6482 100.431L92.644 100.434L92.8662 100.727ZM95.1653 99.335L95.0078 99.0025L95.0043 99.0042L95.1653 99.335ZM97.7882 98.4284L97.7066 98.0695L97.7048 98.07L97.7882 98.4284ZM105.689 99.0436L105.539 99.3797L105.539 99.3797L105.689 99.0436ZM109.219 101.666L108.938 101.904L108.94 101.907L109.219 101.666ZM111.388 105.682L111.036 105.789L111.038 105.794L111.388 105.682ZM112.133 132.008V132.376H112.501V132.008H112.133ZM103.228 132.008H102.86V132.376H103.228V132.008ZM101.933 106.491L101.65 106.727L101.653 106.73L101.933 106.491ZM94.5824 105.747L94.4205 105.416L94.4205 105.416L94.5824 105.747ZM91.4415 108.013L91.1841 107.75L91.0735 107.858V108.013H91.4415ZM91.4415 132.008V132.376H91.8094V132.008H91.4415ZM82.5043 132.008H82.1363V132.376H82.5043V132.008ZM82.5043 98.6227V98.2547H82.1363V98.6227H82.5043ZM90.2434 100.177L90.6015 100.092L90.5969 100.073L90.5902 100.054L90.2434 100.177ZM91.0497 102.773C91.7087 102.135 92.3883 101.551 93.0884 101.021L92.644 100.434C91.9194 100.983 91.2174 101.586 90.5379 102.244L91.0497 102.773ZM93.0842 101.024C93.8007 100.497 94.548 100.045 95.3263 99.6659L95.0043 99.0042C94.1851 99.4027 93.3997 99.8785 92.6483 100.431L93.0842 101.024ZM95.3228 99.6676C96.1183 99.2908 96.9676 98.997 97.8715 98.7868L97.7048 98.07C96.7523 98.2915 95.853 98.6021 95.0078 99.0025L95.3228 99.6676ZM97.8697 98.7872C98.7896 98.5781 99.7874 98.4725 100.864 98.4725V97.7366C99.7395 97.7366 98.6864 97.8469 97.7066 98.0695L97.8697 98.7872ZM100.864 98.4725C102.635 98.4725 104.191 98.7781 105.539 99.3797L105.839 98.7076C104.381 98.057 102.72 97.7366 100.864 97.7366V98.4725ZM105.539 99.3797C106.894 99.9842 108.025 100.826 108.938 101.904L109.5 101.429C108.512 100.262 107.29 99.3551 105.839 98.7076L105.539 99.3797ZM108.94 101.907C109.875 102.987 110.575 104.279 111.036 105.789L111.74 105.574C111.252 103.976 110.505 102.591 109.497 101.426L108.94 101.907ZM111.038 105.794C111.521 107.307 111.765 108.974 111.765 110.798H112.501C112.501 108.909 112.248 107.165 111.739 105.57L111.038 105.794ZM111.765 110.798V132.008H112.501V110.798H111.765ZM112.133 131.64H103.228V132.376H112.133V131.64ZM103.596 132.008V110.798H102.86V132.008H103.596ZM103.596 110.798C103.596 108.888 103.152 107.356 102.213 106.253L101.653 106.73C102.441 107.656 102.86 108.995 102.86 110.798H103.596ZM102.216 106.256C101.265 105.115 99.8755 104.569 98.112 104.569V105.305C99.7161 105.305 100.874 105.795 101.65 106.727L102.216 106.256ZM98.112 104.569C96.805 104.569 95.5729 104.851 94.4205 105.416L94.7444 106.077C95.7939 105.562 96.9148 105.305 98.112 105.305V104.569ZM94.4205 105.416C93.28 105.975 92.2015 106.755 91.1841 107.75L91.6988 108.276C92.6675 107.329 93.6829 106.597 94.7444 106.077L94.4205 105.416ZM91.0735 108.013V132.008H91.8094V108.013H91.0735ZM91.4415 131.64H82.5043V132.376H91.4415V131.64ZM82.8722 132.008V98.6227H82.1363V132.008H82.8722ZM82.5043 98.9906H88.0091V98.2547H82.5043V98.9906ZM88.0091 98.9906C88.5132 98.9906 88.902 99.1064 89.1994 99.3133C89.4962 99.5198 89.7332 99.8386 89.8965 100.3L90.5902 100.054C90.3866 99.4791 90.0677 99.0208 89.6197 98.7092C89.1723 98.398 88.6275 98.2547 88.0091 98.2547V98.9906ZM89.8852 100.262L90.4357 102.593L91.152 102.424L90.6015 100.092L89.8852 100.262ZM155.925 106.686L156.043 107.034L156.049 107.032L155.925 106.686ZM158.742 105.034L158.994 105.302L158.998 105.298L158.742 105.034ZM160.361 102.541L160.015 102.415L160.015 102.415L160.361 102.541ZM158.645 94.2512L158.408 94.5332L158.41 94.5349L158.645 94.2512ZM146.858 92.4055V92.0375H146.49V92.4055H146.858ZM146.858 107.268H146.49V107.636H146.858V107.268ZM174.609 132.008V132.376H175.285L174.917 131.808L174.609 132.008ZM162.271 130.13L162.589 129.943L162.584 129.936L162.271 130.13ZM153.334 115.72L153.647 115.526L153.642 115.519L153.334 115.72ZM152.104 114.489L151.914 114.805L151.921 114.809L152.104 114.489ZM146.858 114.101V113.733H146.49V114.101H146.858ZM146.858 132.008V132.376H147.226V132.008H146.858ZM137.143 132.008H136.775V132.376H137.143V132.008ZM137.143 85.0226V84.6546H136.775V85.0226H137.143ZM160.328 86.0588L160.224 86.4116L160.227 86.4124L160.328 86.0588ZM169.33 93.215L168.99 93.3547L168.991 93.3562L169.33 93.215ZM169.687 103.156L169.336 103.043L169.335 103.046L169.687 103.156ZM167.776 106.945L167.48 106.727L167.48 106.727L167.776 106.945ZM164.667 109.988L164.882 110.287L164.882 110.287L164.667 109.988ZM160.458 112.126L160.339 111.777L159.553 112.047L160.28 112.448L160.458 112.126ZM162.207 113.388L161.957 113.659L161.963 113.665L162.207 113.388ZM163.664 115.105L163.354 115.304L163.355 115.305L163.664 115.105ZM151.845 107.636C153.449 107.636 154.851 107.439 156.043 107.034L155.806 106.337C154.71 106.71 153.392 106.9 151.845 106.9V107.636ZM156.049 107.032C157.231 106.608 158.216 106.034 158.994 105.302L158.49 104.766C157.799 105.416 156.907 105.943 155.8 106.339L156.049 107.032ZM158.998 105.298C159.771 104.548 160.342 103.669 160.707 102.667L160.015 102.415C159.689 103.312 159.18 104.096 158.485 104.77L158.998 105.298ZM160.707 102.667C161.068 101.672 161.247 100.593 161.247 99.4322H160.511C160.511 100.517 160.344 101.51 160.015 102.415L160.707 102.667ZM161.247 99.4322C161.247 97.1174 160.466 95.2789 158.879 93.9675L158.41 94.5349C159.802 95.6845 160.511 97.2999 160.511 99.4322H161.247ZM158.881 93.9692C157.318 92.659 154.971 92.0375 151.909 92.0375V92.7734C154.892 92.7734 157.035 93.3824 158.408 94.5332L158.881 93.9692ZM151.909 92.0375H146.858V92.7734H151.909V92.0375ZM146.49 92.4055V107.268H147.226V92.4055H146.49ZM146.858 107.636H151.845V106.9H146.858V107.636ZM174.609 131.64H165.833V132.376H174.609V131.64ZM165.833 131.64C164.303 131.64 163.247 131.066 162.589 129.943L161.954 130.316C162.764 131.697 164.082 132.376 165.833 132.376V131.64ZM162.584 129.936L153.647 115.526L153.021 115.914L161.959 130.323L162.584 129.936ZM153.642 115.519C153.252 114.922 152.802 114.465 152.286 114.17L151.921 114.809C152.311 115.032 152.682 115.395 153.026 115.921L153.642 115.519ZM152.293 114.174C151.776 113.864 151.049 113.733 150.161 113.733V114.469C150.999 114.469 151.567 114.597 151.914 114.805L152.293 114.174ZM150.161 113.733H146.858V114.469H150.161V113.733ZM146.49 114.101V132.008H147.226V114.101H146.49ZM146.858 131.64H137.143V132.376H146.858V131.64ZM137.511 132.008V85.0226H136.775V132.008H137.511ZM137.143 85.3905H151.909V84.6546H137.143V85.3905ZM151.909 85.3905C155.167 85.3905 157.936 85.7336 160.224 86.4116L160.433 85.7059C158.058 85.0023 155.214 84.6546 151.909 84.6546V85.3905ZM160.227 86.4124C162.523 87.0715 164.386 87.991 165.828 89.1616L166.292 88.5902C164.755 87.343 162.797 86.3845 160.43 85.7051L160.227 86.4124ZM165.828 89.1616C167.272 90.3339 168.324 91.7309 168.99 93.3547L169.671 93.0753C168.955 91.3314 167.826 89.8358 166.292 88.5902L165.828 89.1616ZM168.991 93.3562C169.661 94.9688 169.999 96.755 169.999 98.7198H170.735C170.735 96.6693 170.382 94.7857 169.67 93.0738L168.991 93.3562ZM169.999 98.7198C169.999 100.238 169.777 101.678 169.336 103.043L170.037 103.269C170.502 101.827 170.735 100.31 170.735 98.7198H169.999ZM169.335 103.046C168.916 104.39 168.297 105.616 167.48 106.727L168.072 107.163C168.939 105.985 169.594 104.686 170.038 103.266L169.335 103.046ZM167.48 106.727C166.662 107.838 165.654 108.826 164.453 109.69L164.882 110.287C166.142 109.381 167.206 108.34 168.072 107.163L167.48 106.727ZM164.453 109.69C163.254 110.552 161.884 111.248 160.339 111.777L160.577 112.474C162.184 111.924 163.62 111.195 164.882 110.287L164.453 109.69ZM160.28 112.448C160.88 112.779 161.439 113.182 161.957 113.659L162.456 113.118C161.895 112.602 161.288 112.163 160.636 111.803L160.28 112.448ZM161.963 113.665C162.475 114.115 162.939 114.66 163.354 115.304L163.973 114.905C163.525 114.211 163.017 113.612 162.45 113.112L161.963 113.665ZM163.355 115.305L174.3 132.208L174.917 131.808L163.973 114.905L163.355 115.305ZM197.582 111.381V111.749H197.95V111.381H197.582ZM197.193 108.726L196.839 108.826L196.842 108.834L197.193 108.726ZM196.028 106.491L195.745 106.727L195.745 106.727L196.028 106.491ZM193.988 104.969L193.83 105.302L193.837 105.305L193.988 104.969ZM183.658 111.381L183.295 111.321L183.225 111.749H183.658V111.381ZM183.528 116.691V116.323H183.126L183.162 116.724L183.528 116.691ZM186.184 123.556L185.927 123.82L185.929 123.822L186.184 123.556ZM195.25 125.305L195.362 125.656L195.367 125.654L195.25 125.305ZM197.614 124.333L197.783 124.66L197.787 124.658L197.614 124.333ZM199.46 123.362L199.63 123.688L199.634 123.686L199.46 123.362ZM202.731 123.686L202.436 123.907L202.443 123.916L202.731 123.686ZM205.321 126.924L205.6 127.164L205.799 126.933L205.608 126.694L205.321 126.924ZM202.18 129.676L202.375 129.989L202.379 129.986L202.18 129.676ZM198.618 131.392L198.735 131.742L198.74 131.74L198.618 131.392ZM194.894 132.234L194.85 131.869L194.844 131.87L194.894 132.234ZM184.727 131.36L184.594 131.703L184.598 131.705L184.727 131.36ZM179.448 127.96L179.186 128.218L179.19 128.222L179.448 127.96ZM175.919 122.358L175.576 122.491L175.576 122.491L175.919 122.358ZM175.725 108.207L175.38 108.078L175.379 108.081L175.725 108.207ZM178.963 102.962L179.231 103.214L179.231 103.214L178.963 102.962ZM184.079 99.4322L184.224 99.7702L184.227 99.7689L184.079 99.4322ZM196.772 99.1408L196.64 99.4841L196.645 99.486L196.772 99.1408ZM201.435 102.087L201.175 102.348L201.177 102.35L201.435 102.087ZM204.479 106.88L204.135 107.009L204.136 107.014L204.479 106.88ZM205.159 116.011L205.477 116.197L205.477 116.197L205.159 116.011ZM204.544 116.562L204.66 116.911L204.673 116.907L204.685 116.901L204.544 116.562ZM197.95 111.381C197.95 110.418 197.815 109.496 197.545 108.617L196.842 108.834C197.089 109.639 197.214 110.487 197.214 111.381H197.95ZM197.548 108.626C197.297 107.736 196.884 106.945 196.31 106.256L195.745 106.727C196.25 107.333 196.615 108.031 196.839 108.825L197.548 108.626ZM196.31 106.256C195.732 105.562 195.006 105.022 194.138 104.633L193.837 105.305C194.61 105.651 195.244 106.125 195.745 106.727L196.31 106.256ZM194.145 104.637C193.264 104.22 192.226 104.019 191.041 104.019V104.754C192.144 104.754 193.07 104.942 193.83 105.302L194.145 104.637ZM191.041 104.019C188.832 104.019 187.056 104.645 185.762 105.94L186.282 106.46C187.406 105.336 188.976 104.754 191.041 104.754V104.019ZM185.762 105.94C184.483 107.219 183.67 109.025 183.295 111.321L184.021 111.44C184.38 109.246 185.143 107.599 186.282 106.46L185.762 105.94ZM183.658 111.749H197.582V111.013H183.658V111.749ZM183.162 116.724C183.447 119.899 184.349 122.288 185.927 123.82L186.44 123.292C185.039 121.932 184.172 119.744 183.895 116.658L183.162 116.724ZM185.929 123.822C187.52 125.344 189.58 126.094 192.077 126.094V125.358C189.738 125.358 187.87 124.661 186.438 123.29L185.929 123.822ZM192.077 126.094C193.334 126.094 194.431 125.951 195.362 125.656L195.139 124.954C194.3 125.22 193.281 125.358 192.077 125.358V126.094ZM195.367 125.654C196.287 125.347 197.093 125.016 197.783 124.66L197.446 124.006C196.797 124.341 196.027 124.658 195.134 124.956L195.367 125.654ZM197.787 124.658C198.477 124.292 199.091 123.968 199.63 123.688L199.29 123.035C198.749 123.317 198.133 123.641 197.442 124.008L197.787 124.658ZM199.634 123.686C200.152 123.407 200.643 123.277 201.111 123.277V122.541C200.501 122.541 199.891 122.712 199.286 123.038L199.634 123.686ZM201.111 123.277C201.695 123.277 202.122 123.488 202.436 123.906L203.025 123.465C202.562 122.847 201.909 122.541 201.111 122.541V123.277ZM202.443 123.916L205.034 127.154L205.608 126.694L203.018 123.456L202.443 123.916ZM205.042 126.683C204.114 127.759 203.094 128.653 201.981 129.366L202.379 129.986C203.555 129.232 204.628 128.29 205.6 127.164L205.042 126.683ZM201.986 129.364C200.864 130.062 199.701 130.623 198.496 131.045L198.74 131.74C199.997 131.299 201.208 130.715 202.375 129.989L201.986 129.364ZM198.502 131.043C197.294 131.446 196.077 131.721 194.85 131.869L194.938 132.6C196.216 132.445 197.481 132.159 198.734 131.742L198.502 131.043ZM194.844 131.87C193.607 132.04 192.415 132.125 191.268 132.125V132.861C192.451 132.861 193.677 132.774 194.945 132.599L194.844 131.87ZM191.268 132.125C188.977 132.125 186.84 131.754 184.855 131.015L184.598 131.705C186.672 132.477 188.896 132.861 191.268 132.861V132.125ZM184.859 131.017C182.898 130.258 181.182 129.152 179.707 127.698L179.19 128.222C180.738 129.747 182.54 130.908 184.594 131.703L184.859 131.017ZM179.711 127.702C178.26 126.231 177.11 124.407 176.262 122.225L175.576 122.491C176.455 124.756 177.658 126.667 179.186 128.218L179.711 127.702ZM176.262 122.225C175.418 120.052 174.992 117.519 174.992 114.619H174.256C174.256 117.59 174.693 120.217 175.576 122.491L176.262 122.225ZM174.992 114.619C174.992 112.393 175.352 110.299 176.07 108.334L175.379 108.081C174.629 110.132 174.256 112.312 174.256 114.619H174.992ZM176.069 108.337C176.808 106.373 177.862 104.666 179.231 103.214L178.695 102.709C177.257 104.236 176.152 106.027 175.38 108.078L176.069 108.337ZM179.231 103.214C180.597 101.764 182.26 100.615 184.224 99.7702L183.934 99.0942C181.883 99.9762 180.135 101.181 178.695 102.709L179.231 103.214ZM184.227 99.7689C186.182 98.9073 188.397 98.4725 190.879 98.4725V97.7366C188.31 97.7366 185.991 98.1869 183.931 99.0955L184.227 99.7689ZM190.879 98.4725C192.976 98.4725 194.895 98.8113 196.64 99.4841L196.905 98.7974C195.066 98.0886 193.056 97.7366 190.879 97.7366V98.4725ZM196.645 99.486C198.411 100.138 199.92 101.092 201.175 102.348L201.695 101.827C200.361 100.492 198.76 99.4821 196.9 98.7955L196.645 99.486ZM201.177 102.35C202.452 103.604 203.439 105.155 204.135 107.009L204.824 106.751C204.094 104.806 203.052 103.161 201.693 101.825L201.177 102.35ZM204.136 107.014C204.851 108.842 205.212 110.943 205.212 113.324H205.948C205.948 110.869 205.575 108.674 204.822 106.746L204.136 107.014ZM205.212 113.324C205.212 113.983 205.18 114.514 205.119 114.921L205.847 115.03C205.915 114.573 205.948 114.003 205.948 113.324H205.212ZM205.119 114.921C205.058 115.325 204.961 115.621 204.841 115.826L205.477 116.197C205.66 115.883 205.778 115.488 205.847 115.03L205.119 114.921ZM204.841 115.826C204.728 116.021 204.582 116.147 204.402 116.222L204.685 116.901C205.024 116.761 205.288 116.52 205.477 116.197L204.841 115.826ZM204.428 116.213C204.22 116.282 203.928 116.323 203.54 116.323V117.059C203.972 117.059 204.35 117.014 204.66 116.911L204.428 116.213ZM203.54 116.323H183.528V117.059H203.54V116.323ZM232.951 111.381V111.749H233.319V111.381H232.951ZM232.562 108.726L232.208 108.826L232.211 108.834L232.562 108.726ZM231.397 106.491L231.114 106.727L231.114 106.727L231.397 106.491ZM229.356 104.969L229.199 105.302L229.206 105.305L229.356 104.969ZM219.027 111.381L218.664 111.321L218.594 111.749H219.027V111.381ZM218.897 116.691V116.323H218.495L218.531 116.724L218.897 116.691ZM221.553 123.556L221.296 123.82L221.298 123.822L221.553 123.556ZM230.619 125.305L230.731 125.656L230.736 125.654L230.619 125.305ZM232.983 124.333L233.152 124.66L233.156 124.658L232.983 124.333ZM234.829 123.362L234.999 123.688L235.003 123.686L234.829 123.362ZM238.099 123.686L237.805 123.907L237.812 123.916L238.099 123.686ZM240.69 126.924L240.969 127.164L241.168 126.933L240.977 126.694L240.69 126.924ZM237.549 129.676L237.743 129.989L237.748 129.986L237.549 129.676ZM233.987 131.392L234.103 131.742L234.109 131.74L233.987 131.392ZM230.263 132.234L230.219 131.869L230.213 131.87L230.263 132.234ZM220.095 131.36L219.963 131.703L219.967 131.705L220.095 131.36ZM214.817 127.96L214.555 128.218L214.559 128.222L214.817 127.96ZM211.288 122.358L210.945 122.491L210.945 122.491L211.288 122.358ZM211.093 108.207L210.749 108.078L210.748 108.081L211.093 108.207ZM214.332 102.962L214.599 103.214L214.599 103.214L214.332 102.962ZM219.448 99.4322L219.593 99.7702L219.596 99.7689L219.448 99.4322ZM232.141 99.1408L232.009 99.4841L232.014 99.486L232.141 99.1408ZM236.804 102.087L236.544 102.348L236.546 102.35L236.804 102.087ZM239.848 106.88L239.503 107.009L239.505 107.014L239.848 106.88ZM240.528 116.011L240.846 116.197L240.846 116.197L240.528 116.011ZM239.913 116.562L240.029 116.911L240.042 116.907L240.054 116.901L239.913 116.562ZM233.319 111.381C233.319 110.418 233.184 109.496 232.914 108.617L232.211 108.834C232.458 109.639 232.583 110.487 232.583 111.381H233.319ZM232.916 108.626C232.665 107.736 232.253 106.945 231.679 106.256L231.114 106.727C231.619 107.333 231.984 108.031 232.208 108.825L232.916 108.626ZM231.679 106.256C231.101 105.562 230.375 105.022 229.507 104.633L229.206 105.305C229.979 105.651 230.612 106.125 231.114 106.727L231.679 106.256ZM229.514 104.637C228.633 104.22 227.595 104.019 226.41 104.019V104.754C227.513 104.754 228.439 104.942 229.199 105.302L229.514 104.637ZM226.41 104.019C224.201 104.019 222.425 104.645 221.131 105.94L221.651 106.46C222.774 105.336 224.344 104.754 226.41 104.754V104.019ZM221.131 105.94C219.852 107.219 219.039 109.025 218.664 111.321L219.39 111.44C219.749 109.246 220.512 107.599 221.651 106.46L221.131 105.94ZM219.027 111.749H232.951V111.013H219.027V111.749ZM218.531 116.724C218.815 119.899 219.718 122.288 221.296 123.82L221.809 123.292C220.408 121.932 219.541 119.744 219.264 116.658L218.531 116.724ZM221.298 123.822C222.888 125.344 224.949 126.094 227.446 126.094V125.358C225.107 125.358 223.239 124.661 221.807 123.29L221.298 123.822ZM227.446 126.094C228.703 126.094 229.8 125.951 230.731 125.656L230.508 124.954C229.669 125.22 228.65 125.358 227.446 125.358V126.094ZM230.736 125.654C231.656 125.347 232.462 125.016 233.152 124.66L232.814 124.006C232.166 124.341 231.396 124.658 230.503 124.956L230.736 125.654ZM233.156 124.658C233.846 124.292 234.46 123.968 234.999 123.688L234.659 123.035C234.118 123.317 233.502 123.641 232.811 124.008L233.156 124.658ZM235.003 123.686C235.521 123.407 236.012 123.277 236.48 123.277V122.541C235.87 122.541 235.26 122.712 234.654 123.038L235.003 123.686ZM236.48 123.277C237.064 123.277 237.491 123.488 237.805 123.906L238.394 123.465C237.93 122.847 237.278 122.541 236.48 122.541V123.277ZM237.812 123.916L240.403 127.154L240.977 126.694L238.387 123.456L237.812 123.916ZM240.411 126.683C239.483 127.759 238.463 128.653 237.35 129.366L237.748 129.986C238.924 129.232 239.997 128.29 240.969 127.164L240.411 126.683ZM237.354 129.364C236.232 130.062 235.069 130.623 233.865 131.045L234.109 131.74C235.366 131.299 236.577 130.715 237.743 129.989L237.354 129.364ZM233.871 131.043C232.663 131.446 231.446 131.721 230.219 131.869L230.307 132.6C231.585 132.445 232.85 132.159 234.103 131.742L233.871 131.043ZM230.213 131.87C228.976 132.04 227.784 132.125 226.636 132.125V132.861C227.82 132.861 229.046 132.774 230.313 132.599L230.213 131.87ZM226.636 132.125C224.345 132.125 222.209 131.754 220.224 131.015L219.967 131.705C222.04 132.477 224.265 132.861 226.636 132.861V132.125ZM220.228 131.017C218.267 130.258 216.55 129.152 215.076 127.698L214.559 128.222C216.107 129.747 217.909 130.908 219.963 131.703L220.228 131.017ZM215.079 127.702C213.629 126.231 212.478 124.407 211.631 122.225L210.945 122.491C211.824 124.756 213.026 126.667 214.555 128.218L215.079 127.702ZM211.631 122.225C210.787 120.052 210.361 117.519 210.361 114.619H209.625C209.625 117.59 210.061 120.217 210.945 122.491L211.631 122.225ZM210.361 114.619C210.361 112.393 210.721 110.299 211.439 108.334L210.748 108.081C209.998 110.132 209.625 112.312 209.625 114.619H210.361ZM211.438 108.337C212.177 106.373 213.231 104.666 214.599 103.214L214.064 102.709C212.626 104.236 211.521 106.027 210.749 108.078L211.438 108.337ZM214.599 103.214C215.966 101.764 217.629 100.615 219.593 99.7702L219.302 99.0942C217.252 99.9762 215.504 101.181 214.064 102.709L214.599 103.214ZM219.596 99.7689C221.551 98.9073 223.766 98.4725 226.248 98.4725V97.7366C223.679 97.7366 221.36 98.1869 219.299 99.0955L219.596 99.7689ZM226.248 98.4725C228.345 98.4725 230.264 98.8113 232.009 99.4841L232.274 98.7974C230.435 98.0886 228.425 97.7366 226.248 97.7366V98.4725ZM232.014 99.486C233.78 100.138 235.288 101.092 236.544 102.348L237.064 101.827C235.729 100.492 234.129 99.4821 232.269 98.7955L232.014 99.486ZM236.546 102.35C237.821 103.604 238.808 105.155 239.503 107.009L240.193 106.751C239.463 104.806 238.421 103.161 237.062 101.825L236.546 102.35ZM239.505 107.014C240.22 108.842 240.581 110.943 240.581 113.324H241.317C241.317 110.869 240.944 108.674 240.191 106.746L239.505 107.014ZM240.581 113.324C240.581 113.983 240.549 114.514 240.488 114.921L241.216 115.03C241.284 114.573 241.317 114.003 241.317 113.324H240.581ZM240.488 114.921C240.427 115.325 240.33 115.621 240.21 115.826L240.846 116.197C241.029 115.883 241.147 115.488 241.216 115.03L240.488 114.921ZM240.21 115.826C240.096 116.021 239.951 116.147 239.771 116.222L240.054 116.901C240.393 116.761 240.657 116.52 240.846 116.197L240.21 115.826ZM239.796 116.213C239.589 116.282 239.297 116.323 238.909 116.323V117.059C239.341 117.059 239.719 117.014 240.029 116.911L239.796 116.213ZM238.909 116.323H218.897V117.059H238.909V116.323ZM267.899 105.487L268.208 105.687L268.208 105.686L267.899 105.487ZM267.154 106.297L267.352 106.608L267.358 106.603L267.154 106.297ZM264.822 106.2L264.664 106.532L264.664 106.532L264.822 106.2ZM263.301 105.52L263.146 105.854L263.157 105.859L263.301 105.52ZM261.358 104.807L261.251 105.16L261.254 105.16L261.358 104.807ZM255.497 105.39L255.714 105.688L255.719 105.684L255.497 105.39ZM254.979 109.406L254.718 109.666L254.718 109.666L254.979 109.406ZM256.76 110.604L256.603 110.937L256.615 110.942L256.76 110.604ZM259.318 111.543L259.206 111.893L259.213 111.896L259.318 111.543ZM262.232 112.482L262.111 112.829L262.113 112.83L262.232 112.482ZM265.179 113.68L265.337 113.348L265.337 113.348L265.179 113.68ZM267.704 115.396L267.452 115.664L267.46 115.672L267.704 115.396ZM269.518 117.857L269.184 118.013L269.186 118.016L269.518 117.857ZM269.291 125.823L268.954 125.675L268.953 125.678L269.291 125.823ZM266.701 129.352L266.942 129.63L266.942 129.63L266.701 129.352ZM253.133 132.202L253.202 131.841L253.196 131.839L253.133 132.202ZM249.927 131.36L249.796 131.704L249.802 131.706L249.927 131.36ZM247.078 130.032L246.898 130.353L246.898 130.353L247.078 130.032ZM244.779 128.413L244.466 128.219L244.303 128.481L244.532 128.687L244.779 128.413ZM246.851 125.078L247.163 125.272L247.165 125.27L246.851 125.078ZM247.725 124.171L247.539 123.854L247.53 123.859L247.725 124.171ZM250.607 124.269L250.413 124.582L250.425 124.588L250.607 124.269ZM252.129 125.143L251.945 125.462L251.955 125.467L252.129 125.143ZM254.104 126.017L253.976 126.362L253.988 126.366L254.104 126.017ZM259.221 126.114L259.111 125.763L259.111 125.763L259.221 126.114ZM260.742 125.337L260.978 125.62L260.987 125.612L260.742 125.337ZM261.584 124.204L261.249 124.053L261.245 124.061L261.584 124.204ZM261.163 121.095L260.897 121.349L260.903 121.355L260.909 121.361L261.163 121.095ZM259.35 119.865L259.193 120.198L259.197 120.199L259.35 119.865ZM256.792 118.926L256.69 119.279L256.69 119.279L256.792 118.926ZM253.813 117.987L253.692 118.334L253.694 118.335L253.813 117.987ZM250.866 116.756L250.702 117.085L250.705 117.087L250.866 116.756ZM248.308 114.975L248.048 115.235L248.056 115.243L248.308 114.975ZM246.495 112.288L246.156 112.432L246.159 112.438L246.495 112.288ZM246.624 104.516L246.961 104.664L246.962 104.662L246.624 104.516ZM249.053 101.213L249.296 101.489L249.296 101.489L249.053 101.213ZM253.068 98.9465L252.948 98.5988L252.946 98.5993L253.068 98.9465ZM265.146 99.2703L265.01 99.6119L265.01 99.6119L265.146 99.2703ZM269.939 102.314L270.248 102.513L270.409 102.264L270.199 102.054L269.939 102.314ZM267.59 105.288C267.369 105.628 267.154 105.855 266.95 105.991L267.358 106.603C267.672 106.394 267.953 106.081 268.208 105.687L267.59 105.288ZM266.956 105.987C266.802 106.085 266.546 106.156 266.15 106.156V106.892C266.617 106.892 267.031 106.811 267.351 106.607L266.956 105.987ZM266.15 106.156C265.781 106.156 265.393 106.064 264.981 105.868L264.664 106.532C265.159 106.768 265.655 106.892 266.15 106.892V106.156ZM264.981 105.868C264.522 105.649 264.009 105.42 263.444 105.181L263.157 105.859C263.714 106.095 264.217 106.319 264.664 106.532L264.981 105.868ZM263.455 105.186C262.874 104.918 262.209 104.674 261.462 104.454L261.254 105.16C261.974 105.372 262.605 105.604 263.146 105.854L263.455 105.186ZM261.464 104.455C260.709 104.227 259.841 104.116 258.864 104.116V104.852C259.787 104.852 260.581 104.957 261.251 105.16L261.464 104.455ZM258.864 104.116C257.372 104.116 256.16 104.427 255.275 105.097L255.719 105.684C256.431 105.145 257.464 104.852 258.864 104.852V104.116ZM255.28 105.093C254.388 105.744 253.931 106.63 253.931 107.722H254.667C254.667 106.87 255.008 106.203 255.714 105.688L255.28 105.093ZM253.931 107.722C253.931 108.484 254.193 109.14 254.718 109.666L255.239 109.145C254.858 108.764 254.667 108.298 254.667 107.722H253.931ZM254.718 109.666C255.209 110.156 255.84 110.578 256.603 110.937L256.916 110.271C256.211 109.939 255.655 109.562 255.239 109.145L254.718 109.666ZM256.615 110.942C257.383 111.271 258.247 111.588 259.206 111.893L259.429 111.192C258.488 110.893 257.647 110.584 256.905 110.265L256.615 110.942ZM259.213 111.896C260.157 112.175 261.123 112.486 262.111 112.829L262.353 112.134C261.355 111.787 260.378 111.472 259.422 111.19L259.213 111.896ZM262.113 112.83C263.115 113.171 264.084 113.565 265.02 114.012L265.337 113.348C264.374 112.888 263.379 112.483 262.351 112.133L262.113 112.83ZM265.02 114.012C265.937 114.45 266.747 115 267.452 115.664L267.957 115.128C267.194 114.41 266.32 113.817 265.337 113.348L265.02 114.012ZM267.46 115.672C268.176 116.305 268.751 117.084 269.184 118.013L269.851 117.701C269.378 116.687 268.744 115.825 267.948 115.121L267.46 115.672ZM269.186 118.016C269.61 118.904 269.83 120.001 269.83 121.322H270.566C270.566 119.922 270.333 118.71 269.85 117.699L269.186 118.016ZM269.83 121.322C269.83 122.894 269.537 124.344 268.954 125.675L269.628 125.97C270.254 124.539 270.566 122.988 270.566 121.322H269.83ZM268.953 125.678C268.392 126.986 267.563 128.117 266.459 129.075L266.942 129.63C268.127 128.602 269.024 127.38 269.629 125.968L268.953 125.678ZM266.459 129.075C265.358 130.03 263.979 130.786 262.311 131.334L262.541 132.033C264.285 131.46 265.755 130.661 266.942 129.63L266.459 129.075ZM262.311 131.334C260.651 131.881 258.726 132.158 256.533 132.158V132.894C258.787 132.894 260.791 132.609 262.541 132.033L262.311 131.334ZM256.533 132.158C255.412 132.158 254.302 132.052 253.202 131.841L253.063 132.563C254.209 132.784 255.365 132.894 256.533 132.894V132.158ZM253.196 131.839C252.093 131.649 251.046 131.373 250.052 131.014L249.802 131.706C250.838 132.081 251.928 132.367 253.07 132.565L253.196 131.839ZM250.059 131.016C249.06 130.634 248.126 130.199 247.258 129.711L246.898 130.353C247.799 130.859 248.765 131.309 249.796 131.704L250.059 131.016ZM247.258 129.711C246.392 129.226 245.649 128.702 245.025 128.14L244.532 128.687C245.203 129.291 245.993 129.846 246.898 130.353L247.258 129.711ZM245.091 128.608L247.163 125.272L246.538 124.884L244.466 128.219L245.091 128.608ZM247.165 125.27C247.376 124.924 247.629 124.666 247.92 124.483L247.53 123.859C247.131 124.109 246.801 124.455 246.537 124.886L247.165 125.27ZM247.912 124.489C248.207 124.315 248.602 124.216 249.118 124.216V123.48C248.511 123.48 247.977 123.596 247.539 123.854L247.912 124.489ZM249.118 124.216C249.59 124.216 250.019 124.337 250.413 124.581L250.801 123.956C250.289 123.639 249.725 123.48 249.118 123.48V124.216ZM250.425 124.588C250.877 124.847 251.384 125.138 251.945 125.462L252.313 124.824C251.751 124.5 251.244 124.208 250.79 123.949L250.425 124.588ZM251.955 125.467C252.534 125.779 253.209 126.077 253.976 126.362L254.232 125.672C253.489 125.396 252.847 125.111 252.304 124.819L251.955 125.467ZM253.988 126.366C254.814 126.642 255.817 126.774 256.986 126.774V126.038C255.867 126.038 254.949 125.911 254.221 125.668L253.988 126.366ZM256.986 126.774C257.876 126.774 258.659 126.674 259.33 126.466L259.111 125.763C258.53 125.943 257.824 126.038 256.986 126.038V126.774ZM259.33 126.466C259.989 126.261 260.543 125.982 260.978 125.62L260.507 125.054C260.165 125.34 259.704 125.579 259.111 125.763L259.33 126.466ZM260.987 125.612C261.41 125.236 261.726 124.815 261.923 124.347L261.245 124.061C261.097 124.413 260.852 124.747 260.498 125.062L260.987 125.612ZM261.92 124.355C262.135 123.878 262.244 123.384 262.244 122.876H261.508C261.508 123.275 261.423 123.666 261.249 124.053L261.92 124.355ZM262.244 122.876C262.244 122.055 261.974 121.36 261.417 120.829L260.909 121.361C261.303 121.737 261.508 122.23 261.508 122.876H262.244ZM261.43 120.841C260.937 120.325 260.29 119.89 259.503 119.53L259.197 120.199C259.921 120.53 260.483 120.916 260.897 121.349L261.43 120.841ZM259.507 119.532C258.751 119.176 257.88 118.857 256.894 118.572L256.69 119.279C257.647 119.556 258.481 119.862 259.193 120.198L259.507 119.532ZM256.894 118.572C255.928 118.293 254.941 117.982 253.931 117.638L253.694 118.335C254.714 118.682 255.713 118.997 256.69 119.279L256.894 118.572ZM253.934 117.639C252.955 117.299 251.986 116.894 251.028 116.426L250.705 117.087C251.689 117.568 252.685 117.984 253.692 118.334L253.934 117.639ZM251.031 116.427C250.112 115.968 249.289 115.395 248.561 114.707L248.056 115.243C248.838 115.98 249.72 116.595 250.702 117.085L251.031 116.427ZM248.568 114.715C247.869 114.016 247.289 113.159 246.83 112.137L246.159 112.438C246.65 113.532 247.279 114.466 248.048 115.235L248.568 114.715ZM246.833 112.143C246.404 111.143 246.183 109.91 246.183 108.434H245.447C245.447 109.98 245.678 111.317 246.157 112.432L246.833 112.143ZM246.183 108.434C246.183 107.102 246.443 105.846 246.961 104.664L246.287 104.368C245.727 105.647 245.447 107.003 245.447 108.434H246.183ZM246.962 104.662C247.479 103.462 248.255 102.405 249.296 101.489L248.81 100.937C247.692 101.921 246.849 103.066 246.286 104.37L246.962 104.662ZM249.296 101.489C250.334 100.576 251.629 99.842 253.19 99.2936L252.946 98.5993C251.312 99.1735 249.93 99.9509 248.81 100.937L249.296 101.489ZM253.189 99.2941C254.761 98.749 256.586 98.4725 258.67 98.4725V97.7366C256.523 97.7366 254.613 98.0214 252.948 98.5988L253.189 99.2941ZM258.67 98.4725C261.004 98.4725 263.116 98.8544 265.01 99.6119L265.283 98.9286C263.291 98.1319 261.085 97.7366 258.67 97.7366V98.4725ZM265.01 99.6119C266.915 100.374 268.467 101.363 269.679 102.574L270.199 102.054C268.906 100.761 267.264 99.721 265.283 98.9286L265.01 99.6119ZM269.629 102.115L267.589 105.288L268.208 105.686L270.248 102.513L269.629 102.115Z"/></g><g filter="url(#filter1_d)"><path fill="#00AFAF" fill-rule="evenodd" d="M176.925 23.5205C176.925 23.0053 177.194 22.5276 177.635 22.261L201.822 7.63579C201.92 7.57647 202.045 7.6471 202.045 7.76174V68.2599L179.159 82.0991C178.178 82.6923 176.925 81.9859 176.925 80.8396V23.5205Z" clip-rule="evenodd" opacity=".714"/><path fill="#0FF" fill-rule="evenodd" d="M227.165 22.6906L202.268 7.63582C202.17 7.5765 202.045 7.64714 202.045 7.76177V68.2599L226.942 83.3147C227.04 83.374 227.165 83.3033 227.165 83.1887V22.6906Z" clip-rule="evenodd" opacity=".714"/><path fill="#00AFAF" fill-rule="evenodd" d="M227.165 22.6906L250.052 8.85132C251.033 8.25816 252.285 8.96449 252.285 10.1108V67.4299C252.285 67.9451 252.016 68.4228 251.575 68.6894L227.389 83.3147C227.291 83.374 227.165 83.3033 227.165 83.1887V22.6906Z" clip-rule="evenodd" opacity=".714"/><path fill="#F0F0F0" fill-rule="evenodd" d="M181.949 26.5583C181.949 26.0431 182.218 25.5654 182.659 25.2988L202.045 13.5764V62.1838L184.183 72.9851C183.202 73.5782 181.949 72.8719 181.949 71.7255V26.5583Z" clip-rule="evenodd"/><path fill="#F0F0F0" fill-rule="evenodd" d="M227.165 28.7662L245.028 17.9649C246.009 17.3717 247.261 18.0781 247.261 19.2244V64.3916C247.261 64.9069 246.992 65.3846 246.551 65.6512L227.165 77.3735V28.7662Z" clip-rule="evenodd"/><path fill="#fff" fill-rule="evenodd" d="M227.165 28.7662L202.045 13.5764V62.1838L227.165 77.3736V28.7662Z" clip-rule="evenodd"/><path fill="#FF5E00" fill-rule="evenodd" d="M181.949 50.0322L222.141 25.7285L181.949 50.0322Z" clip-rule="evenodd"/><path stroke="#2000FF" stroke-opacity=".5" stroke-width=".883" d="M181.949 50.0322L222.141 25.7285"/><path fill="#FF5E00" fill-rule="evenodd" d="M207.069 65.2213L247.261 40.9177L207.069 65.2213Z" clip-rule="evenodd"/><path stroke="#2000FF" stroke-opacity=".5" stroke-width=".883" d="M207.069 65.2213L247.261 40.9177"/><path fill="#FF5E00" fill-rule="evenodd" d="M181.949 25.7285L247.261 65.222L181.949 25.7285Z" clip-rule="evenodd"/><path stroke="#2000FF" stroke-opacity=".5" stroke-width=".883" d="M181.949 25.7285L247.261 65.222"/><path fill="#FF5E00" fill-rule="evenodd" d="M181.949 31.804L207.069 16.6143L181.949 31.804Z" clip-rule="evenodd"/><path stroke="#4A30FF" stroke-opacity=".5" stroke-width=".442" d="M181.949 31.804L207.069 16.6143"/><path fill="#FF5E00" fill-rule="evenodd" d="M212.093 19.6521L181.949 37.8799L212.093 19.6521Z" clip-rule="evenodd"/><path stroke="#4A30FF" stroke-opacity=".5" stroke-width=".442" d="M212.093 19.6521L181.949 37.8799"/><path fill="#FF5E00" fill-rule="evenodd" d="M181.949 43.9556L217.117 22.6899L181.949 43.9556Z" clip-rule="evenodd"/><path stroke="#4A30FF" stroke-opacity=".5" stroke-width=".442" d="M181.949 43.9556L217.117 22.6899"/><path fill="#FF5E00" fill-rule="evenodd" d="M181.949 56.1079L227.165 28.7663L181.949 56.1079Z" clip-rule="evenodd"/><path stroke="#4A30FF" stroke-opacity=".5" stroke-width=".442" d="M181.949 56.1079L227.165 28.7663"/><path fill="#FF5E00" fill-rule="evenodd" d="M181.949 62.1834L247.261 22.6899L181.949 62.1834Z" clip-rule="evenodd"/><path stroke="#4A30FF" stroke-opacity=".5" stroke-width=".442" d="M181.949 62.1834L247.261 22.6899"/><path fill="#FF5E00" fill-rule="evenodd" d="M247.261 28.7663L181.949 68.2597L247.261 28.7663Z" clip-rule="evenodd"/><path stroke="#4A30FF" stroke-opacity=".5" stroke-width=".442" d="M247.261 28.7663L181.949 68.2597"/><path fill="#FF5E00" fill-rule="evenodd" d="M202.045 62.1836L247.261 34.842L202.045 62.1836Z" clip-rule="evenodd"/><path stroke="#4A30FF" stroke-opacity=".5" stroke-width=".442" d="M202.045 62.1836L247.261 34.842"/><path fill="#FF5E00" fill-rule="evenodd" d="M247.261 46.9941L212.093 68.2598L247.261 46.9941Z" clip-rule="evenodd"/><path stroke="#4A30FF" stroke-opacity=".5" stroke-width=".442" d="M247.261 46.9941L212.093 68.2598"/><path fill="#FF5E00" fill-rule="evenodd" d="M217.117 71.2975L247.261 53.0698L217.117 71.2975Z" clip-rule="evenodd"/><path stroke="#4A30FF" stroke-opacity=".5" stroke-width=".442" d="M217.117 71.2975L247.261 53.0698"/><path fill="#FF5E00" fill-rule="evenodd" d="M222.141 74.3353L247.261 59.1455L222.141 74.3353Z" clip-rule="evenodd"/><path stroke="#4A30FF" stroke-opacity=".5" stroke-width=".442" d="M222.141 74.3353L247.261 59.1455"/><path fill="#FF5E00" fill-rule="evenodd" d="M186.973 71.2977L181.949 68.2597L186.973 71.2977Z" clip-rule="evenodd"/><path stroke="#4A30FF" stroke-opacity=".5" stroke-width=".442" d="M186.973 71.2977L181.949 68.2597"/><path fill="#FF5E00" fill-rule="evenodd" d="M191.997 68.2593L181.949 62.1833L191.997 68.2593Z" clip-rule="evenodd"/><path stroke="#4A30FF" stroke-opacity=".5" stroke-width=".442" d="M191.997 68.2593L181.949 62.1833"/><path fill="#FF5E00" fill-rule="evenodd" d="M197.021 65.2215L181.949 56.1077L197.021 65.2215Z" clip-rule="evenodd"/><path stroke="#4A30FF" stroke-opacity=".5" stroke-width=".442" d="M197.021 65.2215L181.949 56.1077"/><path fill="#FF5E00" fill-rule="evenodd" d="M202.045 62.1838L181.949 50.0319L202.045 62.1838Z" clip-rule="evenodd"/><path stroke="#2000FF" stroke-opacity=".5" stroke-width=".883" d="M202.045 62.1838L181.949 50.0319"/><path fill="#FF5E00" fill-rule="evenodd" d="M232.189 74.3352L181.949 43.9556L232.189 74.3352Z" clip-rule="evenodd"/><path stroke="#4A30FF" stroke-opacity=".5" stroke-width=".442" d="M232.189 74.3352L181.949 43.9556"/><path fill="#FF5E00" fill-rule="evenodd" d="M181.949 37.8799L237.213 71.2974L181.949 37.8799Z" clip-rule="evenodd"/><path stroke="#4A30FF" stroke-opacity=".5" stroke-width=".442" d="M181.949 37.8799L237.213 71.2974"/><path fill="#FF5E00" fill-rule="evenodd" d="M242.237 68.2597L181.949 31.8042L242.237 68.2597Z" clip-rule="evenodd"/><path stroke="#4A30FF" stroke-opacity=".5" stroke-width=".442" d="M242.237 68.2597L181.949 31.8042"/><path fill="#FF5E00" fill-rule="evenodd" d="M186.973 22.6899L247.261 59.1454L186.973 22.6899Z" clip-rule="evenodd"/><path stroke="#4A30FF" stroke-opacity=".5" stroke-width=".442" d="M186.973 22.6899L247.261 59.1454"/><path fill="#FF5E00" fill-rule="evenodd" d="M191.997 19.6521L247.261 53.0697L191.997 19.6521Z" clip-rule="evenodd"/><path stroke="#4A30FF" stroke-opacity=".5" stroke-width=".442" d="M191.997 19.6521L247.261 53.0697"/><path fill="#FF5E00" fill-rule="evenodd" d="M197.021 16.6143L247.261 46.9938L197.021 16.6143Z" clip-rule="evenodd"/><path stroke="#4A30FF" stroke-opacity=".5" stroke-width=".442" d="M197.021 16.6143L247.261 46.9938"/><path fill="#FF5E00" fill-rule="evenodd" d="M247.261 40.9181L227.165 28.7663L247.261 40.9181Z" clip-rule="evenodd"/><path stroke="#4A30FF" stroke-opacity=".5" stroke-width=".442" d="M247.261 40.9181L227.165 28.7663"/><path fill="#FF5E00" fill-rule="evenodd" d="M232.189 25.7285L247.261 34.8424L232.189 25.7285Z" clip-rule="evenodd"/><path stroke="#2000FF" stroke-opacity=".5" stroke-width=".883" d="M232.189 25.7285L247.261 34.8424"/><path fill="#FF5E00" fill-rule="evenodd" d="M237.213 22.6899L247.261 28.7659L237.213 22.6899Z" clip-rule="evenodd"/><path stroke="#4A30FF" stroke-opacity=".5" stroke-width=".442" d="M237.213 22.6899L247.261 28.7659"/><path fill="#FF5E00" fill-rule="evenodd" d="M242.237 19.6521L247.261 22.6901L242.237 19.6521Z" clip-rule="evenodd"/><path stroke="#4A30FF" stroke-opacity=".5" stroke-width=".442" d="M242.237 19.6521L247.261 22.6901"/><path fill="#DEDEDE" fill-opacity=".8" fill-rule="evenodd" d="M181.949 26.5583C181.949 26.0431 182.218 25.5654 182.659 25.2988L202.045 13.5764V62.1838L184.183 72.9851C183.202 73.5782 181.949 72.8719 181.949 71.7255V26.5583Z" clip-rule="evenodd"/><path fill="#DEDEDE" fill-opacity=".8" fill-rule="evenodd" d="M227.165 28.7662L245.028 17.9649C246.009 17.3717 247.261 18.0781 247.261 19.2244V64.3916C247.261 64.9069 246.992 65.3846 246.551 65.6512L227.165 77.3735V28.7662Z" clip-rule="evenodd"/><path fill="#fff" fill-opacity=".8" fill-rule="evenodd" d="M227.165 28.7662L202.045 13.5764V62.1838L227.165 77.3736V28.7662Z" clip-rule="evenodd"/><path fill="#FF5E00" d="M214.225 45.0216C213.235 44.4225 212.431 42.8477 212.431 41.5062C212.431 40.1646 213.235 39.5619 214.225 40.1608C215.216 40.7599 216.019 42.3346 216.019 43.6762C216.019 45.0177 215.216 45.6205 214.225 45.0216ZM214.225 35.7862C211.448 34.1066 209.201 35.7909 209.201 39.5532C209.201 44.657 214.225 55.2291 214.225 55.2291C214.225 55.2291 219.249 50.733 219.249 45.6292C219.249 41.8669 217.003 37.4657 214.225 35.7862Z"/></g><defs><filter id="filter0_d" width="271.792" height="126.825" x=".773" y="10.068" color-interpolation-filters="sRGB" filterUnits="userSpaceOnUse"><feFlood flood-opacity="0" result="BackgroundImageFix"/><feColorMatrix in="SourceAlpha" type="matrix" values="0 0 0 0 0 0 0 0 0 0 0 0 0 0 0 0 0 0 127 0"/><feOffset dy="2"/><feGaussianBlur stdDeviation="1"/><feColorMatrix type="matrix" values="0 0 0 0 0 0 0 0 0 0 0 0 0 0 0 0 0 0 0.25 0"/><feBlend in2="BackgroundImageFix" mode="normal" result="effect1_dropShadow"/><feBlend in="SourceGraphic" in2="effect1_dropShadow" mode="normal" result="shape"/></filter><filter id="filter1_d" width="79.36" height="79.722" x="174.925" y="7.614" color-interpolation-filters="sRGB" filterUnits="userSpaceOnUse"><feFlood flood-opacity="0" result="BackgroundImageFix"/><feColorMatrix in="SourceAlpha" type="matrix" values="0 0 0 0 0 0 0 0 0 0 0 0 0 0 0 0 0 0 127 0"/><feOffset dy="2"/><feGaussianBlur stdDeviation="1"/><feColorMatrix type="matrix" values="0 0 0 0 0 0 0 0 0 0 0 0 0 0 0 0 0 0 0.25 0"/><feBlend in2="BackgroundImageFix" mode="normal" result="effect1_dropShadow"/><feBlend in="SourceGraphic" in2="effect1_dropShadow" mode="normal" result="shape"/></filter></defs></svg>