<svg xmlns="http://www.w3.org/2000/svg" width="491" height="97" fill="none" viewBox="0 0 491 97"><g filter="url(#filter0_d)"><path fill="#fff" d="M25.7859 57.0094C25.7859 59.6429 25.4621 62.0283 24.8145 64.1653C24.1669 66.2808 23.1847 68.1049 21.8679 69.6376C20.5727 71.1486 18.9429 72.3143 16.9785 73.1346C15.0141 73.9549 12.726 74.365 10.114 74.365C8.92671 74.365 7.75024 74.2895 6.58456 74.1384C5.44046 74.0089 4.23161 73.793 2.958 73.4908C3.04434 72.541 3.13069 71.5911 3.21704 70.6413C3.30338 69.6915 3.38973 68.7417 3.47608 67.7919C3.54084 67.2738 3.74591 66.8637 4.0913 66.5615C4.43668 66.2377 4.93318 66.0758 5.58078 66.0758C5.94775 66.0758 6.41186 66.1405 6.97312 66.27C7.55596 66.3996 8.26832 66.4643 9.1102 66.4643C10.2759 66.4643 11.2904 66.3024 12.1539 65.9786C13.0174 65.6548 13.7405 65.1259 14.3234 64.392C14.9062 63.658 15.3379 62.7082 15.6186 61.5426C15.9208 60.3553 16.0719 58.9198 16.0719 57.236V26.8636H25.7859V57.0094ZM54.7346 53.2209C54.7346 52.2927 54.6051 51.4076 54.3461 50.5657C54.1086 49.7239 53.7201 48.9791 53.1804 48.3315C52.6407 47.6839 51.9607 47.1766 51.1404 46.8097C50.3202 46.4211 49.338 46.2268 48.1939 46.2268C46.0568 46.2268 44.3838 46.8312 43.175 48.0401C41.9661 49.2489 41.1782 50.9759 40.8112 53.2209H54.7346ZM40.6817 58.5312C40.9623 61.6613 41.8474 63.9495 43.3369 65.3958C44.8479 66.8421 46.8123 67.5652 49.23 67.5652C50.4605 67.5652 51.5182 67.4249 52.4033 67.1443C53.3099 66.8421 54.0978 66.5183 54.767 66.1729C55.4578 65.8059 56.073 65.4821 56.6127 65.2015C57.1739 64.8993 57.7244 64.7482 58.2641 64.7482C58.9548 64.7482 59.4945 65.0072 59.8831 65.5253L62.4735 68.7633C61.5236 69.8642 60.4767 70.7816 59.3326 71.5156C58.1885 72.228 57.0012 72.8 55.7708 73.2317C54.5404 73.6419 53.2991 73.9225 52.0471 74.0736C50.7951 74.2463 49.5862 74.3327 48.4205 74.3327C46.0892 74.3327 43.9089 73.9549 41.8798 73.1994C39.8722 72.4222 38.1129 71.2889 36.6018 69.7995C35.1123 68.2884 33.9359 66.4211 33.0724 64.1977C32.2089 61.9743 31.7772 59.3947 31.7772 56.4589C31.7772 54.1923 32.1442 52.0552 32.8781 50.0477C33.6337 48.0401 34.713 46.2916 36.1161 44.8021C37.5193 43.3126 39.2246 42.1361 41.2322 41.2727C43.2397 40.3876 45.5063 39.9451 48.032 39.9451C50.1691 39.9451 52.1334 40.2905 53.9251 40.9812C55.7384 41.6504 57.2927 42.6326 58.5879 43.9278C59.9046 45.223 60.9192 46.8204 61.6316 48.7201C62.3655 50.5981 62.7325 52.746 62.7325 55.1637C62.7325 55.8329 62.7001 56.3833 62.6354 56.8151C62.5706 57.2468 62.4627 57.5922 62.3116 57.8512C62.1604 58.1103 61.9554 58.2938 61.6963 58.4017C61.4373 58.488 61.1027 58.5312 60.6926 58.5312H40.6817ZM70.785 73.847V46.8744L68.1946 46.4211C67.5254 46.2916 66.9749 46.0541 66.5432 45.7087C66.1331 45.3633 65.928 44.8669 65.928 44.2193V40.6575H70.785V39.0385C70.785 37.1388 71.0764 35.4227 71.6592 33.89C72.2637 32.3358 73.1163 31.0298 74.2173 29.9721C75.3182 28.8927 76.6674 28.0616 78.2648 27.4788C79.8622 26.8959 81.6647 26.6045 83.6722 26.6045C84.4494 26.6045 85.1833 26.6585 85.8741 26.7664C86.5864 26.8744 87.2988 27.0255 88.0112 27.2198L87.8169 31.6234C87.7737 32.271 87.4823 32.7028 86.9426 32.9186C86.4245 33.1345 85.8417 33.2424 85.1941 33.2424C84.2874 33.2424 83.4672 33.3396 82.7332 33.5339C82.0209 33.7281 81.4164 34.0627 80.9199 34.5376C80.4234 34.991 80.0457 35.617 79.7866 36.4157C79.5276 37.1928 79.3981 38.1642 79.3981 39.3299V40.6575H91.9939V37.9052C91.9939 36.0055 92.2853 34.2894 92.8682 32.7567C93.4726 31.2025 94.3253 29.8965 95.4262 28.8387C96.5271 27.7594 97.8763 26.9283 99.4737 26.3455C101.071 25.7626 102.874 25.4712 104.881 25.4712C105.658 25.4712 106.392 25.5252 107.083 25.6331C107.795 25.7195 108.508 25.8598 109.22 26.0541L109.026 30.4578C108.983 31.1269 108.691 31.5695 108.152 31.7853C107.633 31.9796 107.051 32.0768 106.403 32.0768C105.496 32.0768 104.676 32.1739 103.942 32.3682C103.23 32.5625 102.625 32.897 102.129 33.372C101.654 33.8253 101.287 34.4513 101.028 35.25C100.769 36.0271 100.639 36.9985 100.639 38.1642V40.6575H108.896V46.8744H100.898V73.847H91.9939V46.8744H79.6895V73.847H70.785ZM264.383 26.8636L245.473 73.847H236.666L217.756 26.8636H225.592C226.434 26.8636 227.114 27.0686 227.632 27.4788C228.171 27.8674 228.571 28.3746 228.83 29.0006L238.997 56.0703C239.386 57.0849 239.763 58.1966 240.13 59.4055C240.519 60.5927 240.875 61.8448 241.199 63.1616C241.48 61.8448 241.782 60.5927 242.106 59.4055C242.451 58.1966 242.818 57.0849 243.206 56.0703L253.309 29.0006C253.525 28.461 253.903 27.9753 254.442 27.5436C255.004 27.0902 255.694 26.8636 256.515 26.8636H264.383ZM280.605 59.8912C278.425 59.9991 276.612 60.1934 275.166 60.474C273.719 60.7331 272.564 61.0784 271.701 61.5102C270.859 61.9419 270.255 62.4384 269.888 62.9997C269.542 63.5393 269.37 64.133 269.37 64.7806C269.37 66.0758 269.726 66.9932 270.438 67.5329C271.172 68.0725 272.187 68.3424 273.482 68.3424C274.971 68.3424 276.256 68.0833 277.335 67.5652C278.436 67.0256 279.526 66.1945 280.605 65.072V59.8912ZM262.408 45.0935C264.372 43.3234 266.542 42.0066 268.916 41.1432C271.291 40.2581 273.86 39.8156 276.623 39.8156C278.609 39.8156 280.379 40.1394 281.933 40.787C283.509 41.4346 284.836 42.3412 285.916 43.5069C287.017 44.651 287.859 46.0217 288.441 47.6192C289.024 49.2166 289.316 50.9651 289.316 52.8647V73.847H285.236C284.394 73.847 283.746 73.7282 283.293 73.4908C282.861 73.2533 282.505 72.7568 282.224 72.0013L281.512 69.8642C280.67 70.5982 279.85 71.2458 279.051 71.807C278.274 72.3683 277.465 72.8432 276.623 73.2317C275.781 73.5987 274.874 73.8793 273.903 74.0736C272.953 74.2679 271.884 74.365 270.697 74.365C269.229 74.365 267.891 74.1708 266.682 73.7822C265.473 73.3936 264.426 72.8216 263.541 72.0661C262.678 71.2889 262.008 70.3283 261.534 69.1842C261.059 68.0401 260.821 66.7234 260.821 65.2339C260.821 64.0034 261.134 62.773 261.76 61.5426C262.386 60.3121 263.455 59.2004 264.966 58.2074C266.498 57.1928 268.528 56.3618 271.053 55.7142C273.601 55.045 276.785 54.6672 280.605 54.5809V52.8647C280.605 50.7708 280.163 49.2382 279.278 48.2668C278.393 47.2738 277.119 46.7773 275.457 46.7773C274.227 46.7773 273.201 46.9284 272.381 47.2306C271.561 47.5112 270.837 47.8242 270.211 48.1696C269.607 48.4934 269.035 48.8064 268.495 49.1086C267.956 49.3893 267.33 49.5296 266.617 49.5296C265.991 49.5296 265.462 49.3785 265.031 49.0763C264.62 48.7525 264.275 48.3747 263.994 47.943L262.408 45.0935ZM305.228 44.3488C305.898 43.7012 306.588 43.1075 307.301 42.5679C308.035 42.0282 308.801 41.5641 309.6 41.1755C310.42 40.787 311.294 40.4848 312.222 40.2689C313.172 40.053 314.198 39.9451 315.299 39.9451C317.112 39.9451 318.72 40.2581 320.123 40.8841C321.526 41.5101 322.703 42.3844 323.653 43.5069C324.624 44.6294 325.347 45.9678 325.822 47.522C326.319 49.0763 326.567 50.7816 326.567 52.6381V73.847H317.662V52.6381C317.662 50.7816 317.231 49.3461 316.367 48.3315C315.504 47.2954 314.23 46.7773 312.546 46.7773C311.294 46.7773 310.118 47.0471 309.017 47.5868C307.916 48.1264 306.869 48.882 305.876 49.8534V73.847H296.939V40.4632H302.444C303.566 40.4632 304.311 40.9813 304.678 42.0174L305.228 44.3488ZM366.277 49.1086C367.853 49.1086 369.213 48.9144 370.357 48.5258C371.501 48.1156 372.44 47.5652 373.174 46.8744C373.908 46.1621 374.447 45.331 374.793 44.3812C375.138 43.4313 375.311 42.3952 375.311 41.2727C375.311 39.0492 374.566 37.3223 373.077 36.0919C371.609 34.8614 369.364 34.2462 366.342 34.2462H361.29V49.1086H366.277ZM389.04 73.847H380.265C378.624 73.847 377.437 73.2209 376.703 71.9689L367.766 57.5598C367.399 56.9986 366.989 56.5884 366.536 56.3294C366.104 56.0703 365.456 55.9408 364.593 55.9408H361.29V73.847H351.576V26.8636H366.342C369.623 26.8636 372.429 27.209 374.76 27.8997C377.092 28.5689 379.002 29.5079 380.492 30.7168C381.981 31.9256 383.071 33.372 383.762 35.0557C384.453 36.7179 384.798 38.5528 384.798 40.5603C384.798 42.1146 384.571 43.5932 384.118 44.9964C383.686 46.3779 383.05 47.6407 382.208 48.7848C381.366 49.9289 380.33 50.9435 379.099 51.8286C377.869 52.7136 376.466 53.426 374.89 53.9656C375.516 54.311 376.099 54.732 376.638 55.2285C377.178 55.7034 377.664 56.2754 378.095 56.9446L389.04 73.847ZM412.013 53.2209C412.013 52.2927 411.883 51.4076 411.624 50.5657C411.387 49.7239 410.998 48.9791 410.458 48.3315C409.919 47.6839 409.239 47.1766 408.418 46.8097C407.598 46.4211 406.616 46.2268 405.472 46.2268C403.335 46.2268 401.662 46.8312 400.453 48.0401C399.244 49.2489 398.456 50.9759 398.089 53.2209H412.013ZM397.96 58.5312C398.24 61.6613 399.125 63.9495 400.615 65.3958C402.126 66.8421 404.09 67.5652 406.508 67.5652C407.738 67.5652 408.796 67.4249 409.681 67.1443C410.588 66.8421 411.376 66.5183 412.045 66.1729C412.736 65.8059 413.351 65.4821 413.891 65.2015C414.452 64.8993 415.002 64.7482 415.542 64.7482C416.233 64.7482 416.772 65.0072 417.161 65.5253L419.751 68.7633C418.802 69.8642 417.755 70.7816 416.61 71.5156C415.466 72.228 414.279 72.8 413.049 73.2317C411.818 73.6419 410.577 73.9225 409.325 74.0736C408.073 74.2463 406.864 74.3327 405.698 74.3327C403.367 74.3327 401.187 73.9549 399.158 73.1994C397.15 72.4222 395.391 71.2889 393.88 69.7995C392.39 68.2884 391.214 66.4211 390.35 64.1977C389.487 61.9743 389.055 59.3947 389.055 56.4589C389.055 54.1923 389.422 52.0552 390.156 50.0477C390.912 48.0401 391.991 46.2916 393.394 44.8021C394.797 43.3126 396.503 42.1361 398.51 41.2727C400.518 40.3876 402.784 39.9451 405.31 39.9451C407.447 39.9451 409.411 40.2905 411.203 40.9812C413.016 41.6504 414.571 42.6326 415.866 43.9278C417.183 45.223 418.197 46.8204 418.909 48.7201C419.643 50.5981 420.01 52.746 420.01 55.1637C420.01 55.8329 419.978 56.3833 419.913 56.8151C419.848 57.2468 419.741 57.5922 419.589 57.8512C419.438 58.1103 419.233 58.2938 418.974 58.4017C418.715 58.488 418.381 58.5312 417.97 58.5312H397.96ZM447.38 53.2209C447.38 52.2927 447.251 51.4076 446.992 50.5657C446.754 49.7239 446.366 48.9791 445.826 48.3315C445.286 47.6839 444.606 47.1766 443.786 46.8097C442.966 46.4211 441.983 46.2268 440.839 46.2268C438.702 46.2268 437.029 46.8312 435.82 48.0401C434.612 49.2489 433.824 50.9759 433.457 53.2209H447.38ZM433.327 58.5312C433.608 61.6613 434.493 63.9495 435.982 65.3958C437.493 66.8421 439.458 67.5652 441.875 67.5652C443.106 67.5652 444.164 67.4249 445.049 67.1443C445.955 66.8421 446.743 66.5183 447.412 66.1729C448.103 65.8059 448.718 65.4821 449.258 65.2015C449.819 64.8993 450.37 64.7482 450.909 64.7482C451.6 64.7482 452.14 65.0072 452.529 65.5253L455.119 68.7633C454.169 69.8642 453.122 70.7816 451.978 71.5156C450.834 72.228 449.647 72.8 448.416 73.2317C447.186 73.6419 445.945 73.9225 444.693 74.0736C443.441 74.2463 442.232 74.3327 441.066 74.3327C438.735 74.3327 436.554 73.9549 434.525 73.1994C432.518 72.4222 430.758 71.2889 429.247 69.7995C427.758 68.2884 426.581 66.4211 425.718 64.1977C424.854 61.9743 424.423 59.3947 424.423 56.4589C424.423 54.1923 424.79 52.0552 425.524 50.0477C426.279 48.0401 427.358 46.2916 428.762 44.8021C430.165 43.3126 431.87 42.1361 433.878 41.2727C435.885 40.3876 438.152 39.9451 440.677 39.9451C442.814 39.9451 444.779 40.2905 446.571 40.9812C448.384 41.6504 449.938 42.6326 451.233 43.9278C452.55 45.223 453.565 46.8204 454.277 48.7201C455.011 50.5981 455.378 52.746 455.378 55.1637C455.378 55.8329 455.346 56.3833 455.281 56.8151C455.216 57.2468 455.108 57.5922 454.957 57.8512C454.806 58.1103 454.601 58.2938 454.342 58.4017C454.083 58.488 453.748 58.5312 453.338 58.5312H433.327ZM482.327 47.3277C482.089 47.6947 481.841 47.9645 481.582 48.1372C481.344 48.2883 481.01 48.3639 480.578 48.3639C480.146 48.3639 479.704 48.256 479.251 48.0401C478.797 47.8242 478.29 47.5976 477.729 47.3601C477.167 47.1011 476.52 46.8636 475.786 46.6478C475.074 46.4319 474.242 46.324 473.293 46.324C471.846 46.324 470.724 46.6262 469.925 47.2306C469.126 47.8134 468.727 48.5906 468.727 49.562C468.727 50.2311 468.954 50.7924 469.407 51.2457C469.86 51.699 470.454 52.0984 471.188 52.4438C471.944 52.7676 472.796 53.0806 473.746 53.3828C474.696 53.6634 475.667 53.9764 476.66 54.3218C477.675 54.6672 478.657 55.0666 479.607 55.5199C480.557 55.9732 481.398 56.5452 482.132 57.236C482.888 57.9052 483.492 58.7255 483.946 59.6969C484.399 60.6467 484.626 61.8016 484.626 63.1616C484.626 64.7806 484.323 66.2808 483.719 67.6624C483.136 69.0223 482.273 70.1988 481.129 71.1918C479.985 72.1848 478.56 72.9619 476.854 73.5232C475.149 74.0844 473.185 74.365 470.961 74.365C469.817 74.365 468.684 74.2571 467.561 74.0412C466.439 73.847 465.37 73.5663 464.356 73.1994C463.341 72.8108 462.391 72.3683 461.506 71.8718C460.621 71.3753 459.855 70.8356 459.207 70.2528L461.28 66.9176C461.517 66.5291 461.809 66.2269 462.154 66.011C462.521 65.7951 462.985 65.6872 463.546 65.6872C464.086 65.6872 464.582 65.8275 465.036 66.1081C465.489 66.3672 465.996 66.6586 466.558 66.9824C467.119 67.2846 467.777 67.576 468.533 67.8567C469.31 68.1157 470.271 68.2452 471.415 68.2452C472.278 68.2452 473.023 68.1481 473.649 67.9538C474.275 67.7595 474.782 67.5005 475.171 67.1767C475.559 66.8313 475.84 66.4535 476.013 66.0434C476.207 65.6116 476.304 65.1691 476.304 64.7158C476.304 63.9818 476.067 63.3882 475.592 62.9349C475.138 62.46 474.534 62.0498 473.778 61.7045C473.044 61.3591 472.192 61.0461 471.22 60.7654C470.249 60.4848 469.256 60.1718 468.241 59.8264C467.248 59.481 466.266 59.0709 465.295 58.596C464.345 58.1211 463.492 57.5274 462.737 56.8151C462.003 56.0811 461.398 55.1853 460.924 54.1275C460.47 53.0698 460.244 51.7854 460.244 50.2743C460.244 48.8928 460.513 47.5868 461.053 46.3563C461.593 45.1043 462.402 44.0034 463.482 43.0536C464.561 42.1038 465.899 41.3482 467.497 40.787C469.116 40.2257 470.983 39.9451 473.098 39.9451C475.473 39.9451 477.632 40.3337 479.574 41.1108C481.517 41.8879 483.115 42.9025 484.367 44.1545L482.327 47.3277Z"/><path fill="#00AFAF" d="M24.8145 64.1653L25.1663 64.273L25.1667 64.272L24.8145 64.1653ZM21.8679 69.6376L21.5888 69.3978L21.5885 69.3981L21.8679 69.6376ZM16.9785 73.1346L17.1203 73.4741L17.1203 73.4741L16.9785 73.1346ZM6.58456 74.1384L6.63187 73.7734L6.62595 73.7727L6.58456 74.1384ZM2.958 73.4908L2.59154 73.4575L2.56266 73.7752L2.87304 73.8488L2.958 73.4908ZM3.21704 70.6413L3.58349 70.6746L3.58349 70.6746L3.21704 70.6413ZM3.47608 67.7919L3.11074 67.7462L3.10962 67.7586L3.47608 67.7919ZM4.0913 66.5615L4.33375 66.8385L4.34296 66.8299L4.0913 66.5615ZM6.97312 66.27L6.89037 66.6286L6.89329 66.6292L6.97312 66.27ZM12.1539 65.9786L12.0247 65.6341L12.0247 65.6341L12.1539 65.9786ZM14.3234 64.392L14.0352 64.1632L14.0352 64.1632L14.3234 64.392ZM15.6186 61.5426L15.2619 61.4518L15.2608 61.4564L15.6186 61.5426ZM16.0719 26.8636V26.4956H15.7039V26.8636H16.0719ZM25.7859 26.8636H26.1539V26.4956H25.7859V26.8636ZM25.4179 57.0094C25.4179 59.6131 25.0978 61.9617 24.4623 64.0586L25.1667 64.272C25.8264 62.0948 26.1539 59.6728 26.1539 57.0094H25.4179ZM24.4626 64.0576C23.8285 66.1292 22.8695 67.9072 21.5888 69.3978L22.147 69.8773C23.4999 68.3026 24.5053 66.4325 25.1663 64.273L24.4626 64.0576ZM21.5885 69.3981C20.3333 70.8625 18.7519 71.9953 16.8367 72.795L17.1203 73.4741C19.134 72.6333 20.8121 71.4348 22.1473 69.877L21.5885 69.3981ZM16.8367 72.795C14.9262 73.5928 12.688 73.9971 10.114 73.9971V74.733C12.7639 74.733 15.1021 74.3169 17.1203 73.4741L16.8367 72.795ZM10.114 73.9971C8.94237 73.9971 7.7817 73.9225 6.63186 73.7735L6.53725 74.5033C7.71877 74.6564 8.91105 74.733 10.114 74.733V73.9971ZM6.62595 73.7727C5.49834 73.6451 4.30411 73.432 3.04295 73.1327L2.87304 73.8488C4.15911 74.154 5.38259 74.3726 6.54316 74.504L6.62595 73.7727ZM3.32445 73.5241C3.4108 72.5743 3.49715 71.6245 3.58349 70.6746L2.85058 70.608C2.76423 71.5578 2.67788 72.5076 2.59154 73.4575L3.32445 73.5241ZM3.58349 70.6746C3.66984 69.7248 3.75619 68.775 3.84253 67.8252L3.10962 67.7586C3.02327 68.7084 2.93692 69.6582 2.85058 70.608L3.58349 70.6746ZM3.8412 67.8375C3.89642 67.3958 4.0655 67.073 4.3336 66.8384L3.84899 66.2845C3.42631 66.6544 3.18525 67.1518 3.11095 67.7463L3.8412 67.8375ZM4.34296 66.8299C4.59838 66.5904 4.9918 66.4437 5.58078 66.4437V65.7078C4.87455 65.7078 4.27499 65.8849 3.83963 66.293L4.34296 66.8299ZM5.58078 66.4437C5.90882 66.4437 6.34277 66.5022 6.89037 66.6286L7.05586 65.9115C6.48096 65.7788 5.98668 65.7078 5.58078 65.7078V66.4437ZM6.89329 66.6292C7.51057 66.7664 8.25147 66.8323 9.1102 66.8323V66.0963C8.28516 66.0963 7.60134 66.0327 7.05294 65.9108L6.89329 66.6292ZM9.1102 66.8323C10.3088 66.8323 11.369 66.6659 12.2831 66.3232L12.0247 65.6341C11.2119 65.9389 10.2429 66.0963 9.1102 66.0963V66.8323ZM12.2831 66.3232C13.2101 65.9755 13.9879 65.4061 14.6115 64.6208L14.0352 64.1632C13.4932 64.8457 12.8246 65.3341 12.0247 65.6341L12.2831 66.3232ZM14.6115 64.6208C15.2356 63.8349 15.6865 62.8324 15.9763 61.6287L15.2608 61.4564C14.9894 62.5841 14.5768 63.4811 14.0352 64.1632L14.6115 64.6208ZM15.9752 61.6333C16.2872 60.4077 16.4399 58.9399 16.4399 57.236H15.7039C15.7039 58.8997 15.5544 60.3029 15.262 61.4518L15.9752 61.6333ZM16.4399 57.236V26.8636H15.7039V57.236H16.4399ZM16.0719 27.2315H25.7859V26.4956H16.0719V27.2315ZM25.4179 26.8636V57.0094H26.1539V26.8636H25.4179ZM54.7346 53.2209V53.5889H55.1026V53.2209H54.7346ZM54.3461 50.5657L53.9918 50.6656L53.9944 50.6739L54.3461 50.5657ZM53.1804 48.3315L52.8977 48.5671L52.8977 48.5671L53.1804 48.3315ZM51.1404 46.8097L50.9829 47.1423L50.9902 47.1455L51.1404 46.8097ZM40.8112 53.2209L40.4481 53.1615L40.3782 53.5889H40.8112V53.2209ZM40.6817 58.5312V58.1632H40.2793L40.3152 58.5641L40.6817 58.5312ZM43.3369 65.3958L43.0805 65.6598L43.0824 65.6616L43.3369 65.3958ZM52.4033 67.1443L52.5145 67.4951L52.5196 67.4934L52.4033 67.1443ZM54.767 66.1729L54.9358 66.4999L54.9396 66.4979L54.767 66.1729ZM56.6127 65.2015L56.7825 65.528L56.7871 65.5255L56.6127 65.2015ZM59.8831 65.5253L59.5885 65.7462L59.5957 65.7552L59.8831 65.5253ZM62.4735 68.7633L62.7521 69.0037L62.9518 68.7722L62.7608 68.5334L62.4735 68.7633ZM59.3326 71.5156L59.5271 71.828L59.5313 71.8253L59.3326 71.5156ZM55.7708 73.2317L55.8872 73.5809L55.8926 73.5789L55.7708 73.2317ZM52.0471 74.0736L52.003 73.7082L51.9968 73.7091L52.0471 74.0736ZM41.8798 73.1994L41.7469 73.5425L41.7514 73.5442L41.8798 73.1994ZM36.6018 69.7995L36.3397 70.0578L36.3435 70.0615L36.6018 69.7995ZM33.0724 64.1977L32.7294 64.3309L32.7294 64.3309L33.0724 64.1977ZM32.8781 50.0477L32.5337 49.918L32.5325 49.9213L32.8781 50.0477ZM36.1161 44.8021L36.384 45.0544L36.384 45.0544L36.1161 44.8021ZM41.2322 41.2727L41.3776 41.6107L41.3806 41.6094L41.2322 41.2727ZM53.9251 40.9812L53.7927 41.3246L53.7977 41.3265L53.9251 40.9812ZM58.5879 43.9278L58.3276 44.188L58.3298 44.1902L58.5879 43.9278ZM61.6316 48.7201L61.287 48.8493L61.2888 48.854L61.6316 48.7201ZM62.3116 57.8512L62.6294 58.0366L62.6294 58.0366L62.3116 57.8512ZM61.6963 58.4017L61.8127 58.7508L61.8254 58.7465L61.8379 58.7414L61.6963 58.4017ZM55.1026 53.2209C55.1026 52.258 54.9682 51.3363 54.6978 50.4575L53.9944 50.6739C54.2421 51.4789 54.3667 52.3274 54.3667 53.2209H55.1026ZM54.7002 50.4658C54.4493 49.5761 54.0371 48.7848 53.4631 48.0959L52.8977 48.5671C53.403 49.1735 53.768 49.8716 53.9919 50.6656L54.7002 50.4658ZM53.4631 48.0959C52.8851 47.4024 52.1588 46.8621 51.2907 46.4738L50.9902 47.1455C51.7627 47.4912 52.3963 47.9654 52.8977 48.5671L53.4631 48.0959ZM51.298 46.4771C50.4173 46.06 49.3787 45.8588 48.1939 45.8588V46.5948C49.2973 46.5948 50.223 46.7822 50.9829 47.1422L51.298 46.4771ZM48.1939 45.8588C45.985 45.8588 44.2089 46.4857 42.9148 47.7799L43.4352 48.3003C44.5587 47.1767 46.1286 46.5948 48.1939 46.5948V45.8588ZM42.9148 47.7799C41.636 49.0587 40.8234 50.8653 40.4481 53.1615L41.1744 53.2803C41.533 51.0864 42.2963 49.4392 43.4352 48.3003L42.9148 47.7799ZM40.8112 53.5889H54.7346V52.8529H40.8112V53.5889ZM40.3152 58.5641C40.5998 61.7384 41.5024 64.1273 43.0805 65.6598L43.5932 65.1318C42.1924 63.7716 41.3249 61.5841 41.0482 58.4984L40.3152 58.5641ZM43.0824 65.6616C44.6727 67.1837 46.7334 67.9332 49.23 67.9332V67.1973C46.8912 67.1973 45.0232 66.5005 43.5913 65.1299L43.0824 65.6616ZM49.23 67.9332C50.4867 67.9332 51.5839 67.7901 52.5145 67.4951L52.2921 66.7935C51.4525 67.0597 50.4342 67.1973 49.23 67.1973V67.9332ZM52.5196 67.4934C53.4397 67.1867 54.2459 66.8559 54.9358 66.4999L54.5982 65.8459C53.9497 66.1806 53.1801 66.4975 52.2869 66.7952L52.5196 67.4934ZM54.9396 66.4979C55.6297 66.1313 56.244 65.808 56.7824 65.528L56.4429 64.875C55.9021 65.1563 55.2859 65.4806 54.5944 65.8479L54.9396 66.4979ZM56.7871 65.5255C57.3045 65.2469 57.7954 65.1161 58.2641 65.1161V64.3802C57.6533 64.3802 57.0434 64.5517 56.4382 64.8775L56.7871 65.5255ZM58.2641 65.1161C58.848 65.1161 59.2748 65.3276 59.5887 65.7461L60.1774 65.3045C59.7142 64.6868 59.0617 64.3802 58.2641 64.3802V65.1161ZM59.5957 65.7552L62.1861 68.9932L62.7608 68.5334L60.1704 65.2954L59.5957 65.7552ZM62.1948 68.5229C61.2666 69.5989 60.2461 70.4924 59.1339 71.2059L59.5313 71.8253C60.7072 71.0709 61.7807 70.1296 62.7521 69.0037L62.1948 68.5229ZM59.1381 71.2032C58.0161 71.9018 56.8531 72.462 55.649 72.8845L55.8926 73.5789C57.1493 73.138 58.3609 72.5541 59.5271 71.828L59.1381 71.2032ZM55.6544 72.8826C54.4468 73.2852 53.2298 73.5602 52.003 73.7083L52.0912 74.4389C53.3685 74.2848 54.6339 73.9986 55.8872 73.5808L55.6544 72.8826ZM51.9968 73.7091C50.7601 73.8797 49.5681 73.9647 48.4205 73.9647V74.7006C49.6044 74.7006 50.8301 74.6129 52.0974 74.4381L51.9968 73.7091ZM48.4205 73.9647C46.1296 73.9647 43.9932 73.5936 42.0082 72.8545L41.7514 73.5442C43.8247 74.3162 46.0487 74.7006 48.4205 74.7006V73.9647ZM42.0126 72.8562C40.0513 72.097 38.3348 70.991 36.8601 69.5374L36.3435 70.0615C37.891 71.5868 39.6931 72.7475 41.7469 73.5425L42.0126 72.8562ZM36.8639 69.5411C35.4138 68.07 34.263 66.247 33.4154 64.0645L32.7294 64.3309C33.6088 66.5953 34.8109 68.5068 36.3398 70.0578L36.8639 69.5411ZM33.4154 64.0645C32.5718 61.8921 32.1452 59.3593 32.1452 56.4589H31.4092C31.4092 59.4301 31.8461 62.0565 32.7294 64.3309L33.4154 64.0645ZM32.1452 56.4589C32.1452 54.2328 32.5055 52.1387 33.2237 50.174L32.5325 49.9213C31.7829 51.9717 31.4092 54.1518 31.4092 56.4589H32.1452ZM33.2225 50.1773C33.9617 48.213 35.0158 46.5068 36.384 45.0544L35.8483 44.5498C34.4102 46.0764 33.3056 47.8672 32.5337 49.918L33.2225 50.1773ZM36.384 45.0544C37.7503 43.604 39.4131 42.4556 41.3776 41.6107L41.0868 40.9346C39.0362 41.8166 37.2882 43.0212 35.8483 44.5498L36.384 45.0544ZM41.3806 41.6094C43.3348 40.7478 45.5498 40.3131 48.032 40.3131V39.5771C45.4629 39.5771 43.1446 40.0274 41.0837 40.936L41.3806 41.6094ZM48.032 40.3131C50.1289 40.3131 52.0478 40.6518 53.7928 41.3246L54.0575 40.6379C52.2191 39.9291 50.2092 39.5771 48.032 39.5771V40.3131ZM53.7977 41.3265C55.5639 41.9783 57.0721 42.9325 58.3277 44.188L58.848 43.6676C57.5132 42.3328 55.9129 41.3226 54.0525 40.636L53.7977 41.3265ZM58.3298 44.1902C59.6048 45.4442 60.5916 46.9948 61.287 48.8493L61.9761 48.5909C61.2468 46.6461 60.2045 45.0018 58.8459 43.6655L58.3298 44.1902ZM61.2888 48.854C62.0032 50.6818 62.3645 52.7829 62.3645 55.1637H63.1005C63.1005 52.7091 62.7279 50.5144 61.9743 48.5861L61.2888 48.854ZM62.3645 55.1637C62.3645 55.8231 62.3325 56.3537 62.2715 56.7605L62.9992 56.8697C63.0677 56.413 63.1005 55.8426 63.1005 55.1637H62.3645ZM62.2715 56.7605C62.2107 57.1653 62.1132 57.461 61.9937 57.6658L62.6294 58.0366C62.8121 57.7234 62.9305 57.3283 62.9992 56.8697L62.2715 56.7605ZM61.9937 57.6658C61.88 57.8607 61.7346 57.9871 61.5548 58.062L61.8379 58.7414C62.1761 58.6004 62.4408 58.3599 62.6294 58.0366L61.9937 57.6658ZM61.58 58.0526C61.3723 58.1218 61.0809 58.1632 60.6926 58.1632V58.8992C61.1244 58.8992 61.5023 58.8542 61.8127 58.7508L61.58 58.0526ZM60.6926 58.1632H40.6817V58.8992H60.6926V58.1632ZM70.785 73.847H70.417V74.2149H70.785V73.847ZM70.785 46.8744H71.153V46.5652L70.8484 46.512L70.785 46.8744ZM68.1946 46.4211L68.1247 46.7824L68.1312 46.7836L68.1946 46.4211ZM66.5432 45.7087L66.3061 45.9903L66.3133 45.9961L66.5432 45.7087ZM65.928 40.6575V40.2895H65.56V40.6575H65.928ZM70.785 40.6575V41.0254H71.153V40.6575H70.785ZM71.6592 33.89L71.3163 33.7567L71.3153 33.7592L71.6592 33.89ZM74.2173 29.9721L74.4722 30.2374L74.4749 30.2348L74.2173 29.9721ZM78.2648 27.4788L78.3909 27.8245L78.3909 27.8245L78.2648 27.4788ZM85.8741 26.7664L85.8173 27.13L85.8189 27.1302L85.8741 26.7664ZM88.0112 27.2198L88.3788 27.236L88.3917 26.9421L88.108 26.8647L88.0112 27.2198ZM87.8169 31.6234L88.1841 31.6479L88.1845 31.6397L87.8169 31.6234ZM86.9426 32.9186L86.8059 32.5769L86.8011 32.579L86.9426 32.9186ZM82.7332 33.5339L82.639 33.1781L82.6364 33.1789L82.7332 33.5339ZM80.9199 34.5376L81.1681 34.8094L81.1743 34.8035L80.9199 34.5376ZM79.7866 36.4157L80.1357 36.532L80.1366 36.5292L79.7866 36.4157ZM79.3981 40.6575H79.0301V41.0254H79.3981V40.6575ZM91.9939 40.6575V41.0254H92.3619V40.6575H91.9939ZM92.8682 32.7567L92.5252 32.6234L92.5242 32.6259L92.8682 32.7567ZM95.4262 28.8387L95.6811 29.1041L95.6838 29.1015L95.4262 28.8387ZM99.4737 26.3455L99.3475 25.9998L99.3475 25.9998L99.4737 26.3455ZM107.083 25.6331L107.026 25.9969L107.039 25.9984L107.083 25.6331ZM109.22 26.0541L109.588 26.0703L109.601 25.7765L109.317 25.6991L109.22 26.0541ZM109.026 30.4578L109.393 30.4814L109.393 30.474L109.026 30.4578ZM108.152 31.7853L108.281 32.13L108.288 32.127L108.152 31.7853ZM103.942 32.3682L103.848 32.0124L103.845 32.0132L103.942 32.3682ZM102.129 33.372L102.383 33.6381L102.383 33.6379L102.129 33.372ZM101.028 35.25L101.377 35.3664L101.378 35.3635L101.028 35.25ZM100.639 40.6575H100.271V41.0254H100.639V40.6575ZM108.896 40.6575H109.264V40.2895H108.896V40.6575ZM108.896 46.8744V47.2424H109.264V46.8744H108.896ZM100.898 46.8744V46.5064H100.53V46.8744H100.898ZM100.898 73.847V74.2149H101.266V73.847H100.898ZM91.9939 73.847H91.6259V74.2149H91.9939V73.847ZM91.9939 46.8744H92.3619V46.5064H91.9939V46.8744ZM79.6895 46.8744V46.5064H79.3215V46.8744H79.6895ZM79.6895 73.847V74.2149H80.0575V73.847H79.6895ZM71.153 73.847V46.8744H70.417V73.847H71.153ZM70.8484 46.512L68.258 46.0586L68.1312 46.7836L70.7216 47.2369L70.8484 46.512ZM68.2645 46.0598C67.6404 45.939 67.1487 45.7219 66.7731 45.4214L66.3133 45.9961C66.8012 46.3864 67.4104 46.6441 68.1247 46.7824L68.2645 46.0598ZM66.7802 45.4273C66.4704 45.1663 66.296 44.7831 66.296 44.2193H65.56C65.56 44.9506 65.7958 45.5604 66.3062 45.9902L66.7802 45.4273ZM66.296 44.2193V40.6575H65.56V44.2193H66.296ZM65.928 41.0254H70.785V40.2895H65.928V41.0254ZM71.153 40.6575V39.0385H70.417V40.6575H71.153ZM71.153 39.0385C71.153 37.1765 71.4385 35.5056 72.0032 34.0208L71.3153 33.7592C70.7143 35.3397 70.417 37.1011 70.417 39.0385H71.153ZM72.0022 34.0234C72.589 32.5144 73.4133 31.2548 74.4722 30.2374L73.9623 29.7067C72.8194 30.8048 71.9383 32.1572 71.3163 33.7567L72.0022 34.0234ZM74.4749 30.2348C75.5347 29.1958 76.8376 28.3912 78.3909 27.8245L78.1386 27.1331C76.4971 27.7321 75.1017 28.5896 73.9597 29.7093L74.4749 30.2348ZM78.3909 27.8245C79.9413 27.2588 81.7001 26.9725 83.6722 26.9725V26.2366C81.6292 26.2366 79.783 26.5331 78.1386 27.1331L78.3909 27.8245ZM83.6722 26.9725C84.4324 26.9725 85.1472 27.0253 85.8173 27.13L85.9309 26.4029C85.2194 26.2917 84.4663 26.2366 83.6722 26.2366V26.9725ZM85.8189 27.1302C86.5169 27.236 87.2153 27.3841 87.9143 27.5748L88.108 26.8647C87.3822 26.6668 86.656 26.5127 85.9292 26.4026L85.8189 27.1302ZM87.6435 27.2035L87.4493 31.6072L88.1845 31.6397L88.3788 27.236L87.6435 27.2035ZM87.4497 31.599C87.4314 31.8737 87.3623 32.0769 87.2609 32.2271C87.1612 32.3749 87.0156 32.4931 86.806 32.577L87.0793 33.2603C87.4093 33.1283 87.6793 32.9227 87.8709 32.6388C88.061 32.3573 88.1592 32.0208 88.184 31.6479L87.4497 31.599ZM86.8011 32.579C86.3342 32.7735 85.8005 32.8745 85.1941 32.8745V33.6104C85.8829 33.6104 86.5149 33.4955 87.0841 33.2583L86.8011 32.579ZM85.1941 32.8745C84.2616 32.8745 83.409 32.9743 82.639 33.1781L82.8274 33.8896C83.5253 33.7048 84.3133 33.6104 85.1941 33.6104V32.8745ZM82.6364 33.1789C81.8695 33.388 81.2096 33.7513 80.6656 34.2717L81.1743 34.8035C81.6232 34.3741 82.1722 34.0683 82.83 33.8889L82.6364 33.1789ZM80.6718 34.2659C80.1179 34.7717 79.7105 35.4577 79.4366 36.3022L80.1366 36.5292C80.3808 35.7763 80.729 35.2102 81.168 34.8094L80.6718 34.2659ZM79.4375 36.2993C79.1619 37.1261 79.0301 38.1399 79.0301 39.3299H79.766C79.766 38.1884 79.8932 37.2594 80.1357 36.532L79.4375 36.2993ZM79.0301 39.3299V40.6575H79.766V39.3299H79.0301ZM79.3981 41.0254H91.9939V40.2895H79.3981V41.0254ZM92.3619 40.6575V37.9052H91.6259V40.6575H92.3619ZM92.3619 37.9052C92.3619 36.0432 92.6474 34.3723 93.2121 32.8875L92.5242 32.6259C91.9232 34.2064 91.6259 35.9678 91.6259 37.9052H92.3619ZM93.2111 32.8901C93.7979 31.3811 94.6222 30.1215 95.6811 29.1041L95.1712 28.5734C94.0283 29.6715 93.1472 31.0239 92.5252 32.6234L93.2111 32.8901ZM95.6838 29.1015C96.7436 28.0625 98.0465 27.2579 99.5998 26.6912L99.3475 25.9998C97.706 26.5988 96.3106 27.4563 95.1686 28.576L95.6838 29.1015ZM99.5998 26.6912C101.15 26.1255 102.909 25.8392 104.881 25.8392V25.1033C102.838 25.1033 100.992 25.3998 99.3475 25.9998L99.5998 26.6912ZM104.881 25.8392C105.641 25.8392 106.356 25.892 107.026 25.9967L107.14 25.2696C106.428 25.1584 105.675 25.1033 104.881 25.1033V25.8392ZM107.039 25.9984C107.733 26.0826 108.428 26.2194 109.123 26.4091L109.317 25.6991C108.588 25.5002 107.858 25.3564 107.127 25.2678L107.039 25.9984ZM108.852 26.0379L108.658 30.4415L109.393 30.474L109.588 26.0703L108.852 26.0379ZM108.659 30.4341C108.64 30.7215 108.57 30.9336 108.468 31.0892C108.367 31.2416 108.222 31.3608 108.015 31.4437L108.288 32.127C108.621 31.994 108.891 31.784 109.082 31.4939C109.271 31.2069 109.368 30.8631 109.393 30.4814L108.659 30.4341ZM108.022 31.4408C107.552 31.6172 107.014 31.7088 106.403 31.7088V32.4447C107.087 32.4447 107.715 32.342 108.281 32.1299L108.022 31.4408ZM106.403 31.7088C105.471 31.7088 104.618 31.8086 103.848 32.0125L104.036 32.7239C104.734 32.5391 105.522 32.4447 106.403 32.4447V31.7088ZM103.845 32.0132C103.078 32.2223 102.419 32.5856 101.874 33.106L102.383 33.6379C102.832 33.2084 103.381 32.9026 104.039 32.7232L103.845 32.0132ZM101.875 33.1058C101.345 33.6114 100.951 34.2955 100.678 35.1365L101.378 35.3635C101.623 34.6071 101.963 34.0392 102.383 33.6381L101.875 33.1058ZM100.679 35.1336C100.403 35.9605 100.271 36.9743 100.271 38.1642H101.007C101.007 37.0228 101.135 36.0938 101.377 35.3664L100.679 35.1336ZM100.271 38.1642V40.6575H101.007V38.1642H100.271ZM100.639 41.0254H108.896V40.2895H100.639V41.0254ZM108.528 40.6575V46.8744H109.264V40.6575H108.528ZM108.896 46.5064H100.898V47.2424H108.896V46.5064ZM100.53 46.8744V73.847H101.266V46.8744H100.53ZM100.898 73.479H91.9939V74.2149H100.898V73.479ZM92.3619 73.847V46.8744H91.6259V73.847H92.3619ZM91.9939 46.5064H79.6895V47.2424H91.9939V46.5064ZM79.3215 46.8744V73.847H80.0575V46.8744H79.3215ZM79.6895 73.479H70.785V74.2149H79.6895V73.479ZM264.383 26.8636L264.724 27.001L264.928 26.4956H264.383V26.8636ZM245.473 73.847V74.2149H245.722L245.814 73.9843L245.473 73.847ZM236.666 73.847L236.324 73.9843L236.417 74.2149H236.666V73.847ZM217.756 26.8636V26.4956H217.211L217.414 27.001L217.756 26.8636ZM227.632 27.4788L227.403 27.7673L227.41 27.7725L227.417 27.7774L227.632 27.4788ZM228.83 29.0006L229.174 28.8712L229.17 28.86L228.83 29.0006ZM238.997 56.0703L238.653 56.1997L238.653 56.2019L238.997 56.0703ZM240.13 59.4055L239.778 59.5124L239.781 59.5199L240.13 59.4055ZM241.199 63.1616L240.842 63.2494L241.559 63.2383L241.199 63.1616ZM242.106 59.4055L241.752 59.3044L241.751 59.3087L242.106 59.4055ZM243.206 56.0703L243.55 56.2019L243.551 56.199L243.206 56.0703ZM253.309 29.0006L252.967 28.864L252.964 28.872L253.309 29.0006ZM254.442 27.5436L254.672 27.8309L254.674 27.8298L254.442 27.5436ZM264.042 26.7262L245.132 73.7096L245.814 73.9843L264.724 27.001L264.042 26.7262ZM245.473 73.479H236.666V74.2149H245.473V73.479ZM237.007 73.7096L218.097 26.7262L217.414 27.001L236.324 73.9843L237.007 73.7096ZM217.756 27.2315H225.592V26.4956H217.756V27.2315ZM225.592 27.2315C226.374 27.2315 226.966 27.4213 227.403 27.7673L227.86 27.1903C227.261 26.716 226.493 26.4956 225.592 26.4956V27.2315ZM227.417 27.7774C227.9 28.1252 228.256 28.5773 228.49 29.1413L229.17 28.86C228.885 28.172 228.443 27.6095 227.847 27.1802L227.417 27.7774ZM228.485 29.13L238.653 56.1997L239.342 55.941L229.174 28.8713L228.485 29.13ZM238.653 56.2019C239.038 57.2072 239.413 58.3105 239.778 59.5124L240.482 59.2986C240.113 58.0827 239.733 56.9626 239.341 55.9387L238.653 56.2019ZM239.781 59.5199C240.166 60.6977 240.52 61.9408 240.842 63.2494L241.556 63.0737C241.23 61.7487 240.872 60.4878 240.48 59.291L239.781 59.5199ZM241.559 63.2383C241.838 61.9276 242.139 60.6823 242.461 59.5023L241.751 59.3087C241.425 60.5032 241.121 61.7619 240.839 63.0849L241.559 63.2383ZM242.459 59.5066C242.802 58.3065 243.166 57.2051 243.55 56.2019L242.863 55.9387C242.47 56.9647 242.1 58.0868 241.752 59.3044L242.459 59.5066ZM243.551 56.199L253.654 29.1293L252.964 28.872L242.862 55.9417L243.551 56.199ZM253.651 29.1373C253.839 28.6669 254.173 28.2304 254.672 27.8309L254.212 27.2562C253.633 27.7201 253.211 28.255 252.967 28.864L253.651 29.1373ZM254.674 27.8298C255.16 27.4365 255.766 27.2315 256.515 27.2315V26.4956C255.622 26.4956 254.847 26.7439 254.211 27.2573L254.674 27.8298ZM256.515 27.2315H264.383V26.4956H256.515V27.2315ZM280.605 59.8912H280.973V59.5045L280.587 59.5237L280.605 59.8912ZM275.166 60.474L275.23 60.8363L275.236 60.8352L275.166 60.474ZM271.701 61.5102L271.536 61.181L271.533 61.1827L271.701 61.5102ZM269.888 62.9997L269.58 62.7983L269.578 62.8013L269.888 62.9997ZM270.438 67.5329L270.216 67.8262L270.22 67.8293L270.438 67.5329ZM277.335 67.5652L277.494 67.897L277.497 67.8956L277.335 67.5652ZM280.605 65.072L280.871 65.327L280.973 65.2202V65.072H280.605ZM262.408 45.0935L262.161 44.8202L261.944 45.0164L262.086 45.2725L262.408 45.0935ZM268.916 41.1432L269.042 41.489L269.045 41.4879L268.916 41.1432ZM281.933 40.787L281.791 41.1266L281.793 41.1273L281.933 40.787ZM285.916 43.5069L285.646 43.7569L285.651 43.762L285.916 43.5069ZM289.316 73.847V74.2149H289.684V73.847H289.316ZM283.293 73.4908L283.116 73.8133L283.122 73.8167L283.293 73.4908ZM282.224 72.0013L281.875 72.1177L281.879 72.1294L282.224 72.0013ZM281.512 69.8642L281.861 69.7479L281.686 69.224L281.27 69.5868L281.512 69.8642ZM279.051 71.807L278.84 71.5059L278.836 71.5087L279.051 71.807ZM276.623 73.2317L276.77 73.5691L276.777 73.5658L276.623 73.2317ZM273.903 74.0736L273.831 73.7128L273.829 73.7131L273.903 74.0736ZM266.682 73.7822L266.569 74.1325L266.569 74.1325L266.682 73.7822ZM263.541 72.0661L263.295 72.3397L263.302 72.3459L263.541 72.0661ZM261.76 61.5426L261.432 61.3757L261.432 61.3757L261.76 61.5426ZM264.966 58.2074L265.168 58.5149L265.169 58.5142L264.966 58.2074ZM271.053 55.7142L271.145 56.0706L271.147 56.07L271.053 55.7142ZM280.605 54.5809L280.614 54.9487L280.973 54.9406V54.5809H280.605ZM279.278 48.2668L279.003 48.5116L279.006 48.5146L279.278 48.2668ZM272.381 47.2306L272.5 47.5788L272.508 47.5759L272.381 47.2306ZM270.211 48.1696L270.385 48.494L270.389 48.4918L270.211 48.1696ZM268.495 49.1086L268.665 49.4353L268.675 49.4297L268.495 49.1086ZM265.031 49.0763L264.803 49.3651L264.811 49.3716L264.82 49.3777L265.031 49.0763ZM263.994 47.943L263.673 48.122L263.679 48.1329L263.686 48.1435L263.994 47.943ZM280.587 59.5237C278.397 59.6321 276.565 59.8277 275.095 60.1128L275.236 60.8352C276.659 60.5591 278.453 60.3661 280.624 60.2587L280.587 59.5237ZM275.101 60.1118C273.636 60.3742 272.443 60.7277 271.536 61.1811L271.865 61.8393C272.686 61.4292 273.803 61.0919 275.23 60.8362L275.101 60.1118ZM271.533 61.1827C270.656 61.6323 269.993 62.166 269.58 62.7983L270.196 63.201C270.516 62.7108 271.062 62.2515 271.869 61.8376L271.533 61.1827ZM269.578 62.8013C269.194 63.4009 269.002 64.0634 269.002 64.7806H269.737C269.737 64.2025 269.89 63.6778 270.198 63.198L269.578 62.8013ZM269.002 64.7806C269.002 66.1367 269.376 67.1896 270.216 67.8262L270.66 67.2395C270.076 66.7967 269.737 66.0148 269.737 64.7806H269.002ZM270.22 67.8293C271.039 68.4314 272.14 68.7103 273.482 68.7103V67.9744C272.233 67.9744 271.305 67.7137 270.656 67.2364L270.22 67.8293ZM273.482 68.7103C275.013 68.7103 276.355 68.444 277.494 67.897L277.176 67.2335C276.157 67.7226 274.929 67.9744 273.482 67.9744V68.7103ZM277.497 67.8956C278.645 67.3327 279.769 66.4725 280.871 65.327L280.34 64.8169C279.283 65.9165 278.227 66.7184 277.173 67.2348L277.497 67.8956ZM280.973 65.072V59.8912H280.237V65.072H280.973ZM262.654 45.3669C264.585 43.6269 266.714 42.3355 269.042 41.489L268.79 40.7973C266.369 41.6777 264.159 43.0199 262.161 44.8202L262.654 45.3669ZM269.045 41.4879C271.375 40.6195 273.899 40.1835 276.623 40.1835V39.4476C273.82 39.4476 271.207 39.8967 268.788 40.7984L269.045 41.4879ZM276.623 40.1835C278.569 40.1835 280.289 40.5008 281.791 41.1266L282.074 40.4473C280.468 39.778 278.649 39.4476 276.623 39.4476V40.1835ZM281.793 41.1273C283.323 41.7561 284.605 42.6332 285.646 43.7569L286.186 43.2569C285.067 42.0492 283.694 41.113 282.073 40.4466L281.793 41.1273ZM285.651 43.762C286.713 44.8666 287.529 46.1925 288.096 47.7453L288.787 47.493C288.188 45.8509 287.32 44.4353 286.181 43.2518L285.651 43.762ZM288.096 47.7453C288.662 49.2978 288.948 51.0031 288.948 52.8647H289.684C289.684 50.9271 289.386 49.1353 288.787 47.493L288.096 47.7453ZM288.948 52.8647V73.847H289.684V52.8647H288.948ZM289.316 73.479H285.236V74.2149H289.316V73.479ZM285.236 73.479C284.419 73.479 283.841 73.3623 283.464 73.1648L283.122 73.8167C283.652 74.0941 284.368 74.2149 285.236 74.2149V73.479ZM283.47 73.1684C283.152 72.9933 282.837 72.5951 282.569 71.8732L281.879 72.1294C282.173 72.9186 282.57 73.5134 283.116 73.8132L283.47 73.1684ZM282.573 71.8849L281.861 69.7479L281.163 69.9806L281.875 72.1177L282.573 71.8849ZM281.27 69.5868C280.437 70.3135 279.626 70.953 278.84 71.5059L279.263 72.1081C280.073 71.5385 280.904 70.8828 281.754 70.1416L281.27 69.5868ZM278.836 71.5087C278.077 72.0566 277.288 72.5193 276.468 72.8976L276.777 73.5658C277.641 73.167 278.471 72.68 279.267 72.1053L278.836 71.5087ZM276.476 72.8944C275.66 73.2501 274.778 73.5233 273.831 73.7128L273.975 74.4344C274.97 74.2354 275.902 73.9473 276.77 73.569L276.476 72.8944ZM273.829 73.7131C272.908 73.9015 271.865 73.9971 270.697 73.9971V74.733C271.904 74.733 272.998 74.6343 273.976 74.4341L273.829 73.7131ZM270.697 73.9971C269.262 73.9971 267.962 73.8071 266.795 73.4319L266.569 74.1325C267.82 74.5344 269.197 74.733 270.697 74.733V73.9971ZM266.795 73.4319C265.628 73.0568 264.625 72.5073 263.78 71.7862L263.302 72.3459C264.228 73.1358 265.318 73.7304 266.569 74.1325L266.795 73.4319ZM263.787 71.7925C262.967 71.0545 262.329 70.1401 261.873 69.0432L261.194 69.3253C261.688 70.5165 262.388 71.5234 263.295 72.3396L263.787 71.7925ZM261.873 69.0432C261.42 67.9519 261.189 66.6845 261.189 65.2339H260.453C260.453 66.7622 260.697 68.1284 261.194 69.3253L261.873 69.0432ZM261.189 65.2339C261.189 64.0682 261.485 62.8945 262.088 61.7094L261.432 61.3757C260.783 62.6514 260.453 63.9387 260.453 65.2339H261.189ZM262.088 61.7094C262.678 60.551 263.694 59.4833 265.168 58.5149L264.764 57.8999C263.215 58.9175 262.095 60.0732 261.432 61.3757L262.088 61.7094ZM265.169 58.5142C266.656 57.5296 268.644 56.7119 271.145 56.0706L270.962 55.3577C268.412 56.0116 266.341 56.8561 264.763 57.9006L265.169 58.5142ZM271.147 56.07C273.657 55.4106 276.81 55.0347 280.614 54.9487L280.597 54.213C276.759 54.2997 273.544 54.6793 270.96 55.3583L271.147 56.07ZM280.973 54.5809V52.8647H280.237V54.5809H280.973ZM280.973 52.8647C280.973 50.7309 280.524 49.0885 279.55 48.0189L279.006 48.5146C279.801 49.3878 280.237 50.8107 280.237 52.8647H280.973ZM279.552 48.0219C278.581 46.9318 277.196 46.4093 275.457 46.4093V47.1452C277.042 47.1452 278.205 47.6158 279.003 48.5116L279.552 48.0219ZM275.457 46.4093C274.199 46.4093 273.128 46.5633 272.254 46.8853L272.508 47.5759C273.275 47.2934 274.254 47.1452 275.457 47.1452V46.4093ZM272.262 46.8824C271.425 47.1686 270.682 47.4898 270.034 47.8474L270.389 48.4918C270.993 48.1587 271.696 47.8538 272.5 47.5788L272.262 46.8824ZM270.038 47.8453C269.431 48.17 268.857 48.4841 268.315 48.7876L268.675 49.4297C269.213 49.1287 269.783 48.8168 270.385 48.494L270.038 47.8453ZM268.326 48.7822C267.847 49.0312 267.281 49.1616 266.617 49.1616V49.8975C267.379 49.8975 268.065 49.7473 268.665 49.4351L268.326 48.7822ZM266.617 49.1616C266.052 49.1616 265.601 49.0261 265.242 48.7748L264.82 49.3777C265.324 49.7309 265.93 49.8975 266.617 49.8975V49.1616ZM265.259 48.7874C264.879 48.4881 264.561 48.14 264.303 47.7424L263.686 48.1435C263.989 48.6093 264.361 49.0168 264.803 49.3651L265.259 48.7874ZM264.316 47.7639L262.729 44.9145L262.086 45.2725L263.673 48.122L264.316 47.7639ZM305.228 44.3488L304.87 44.4333L305.019 45.0634L305.484 44.6132L305.228 44.3488ZM307.301 42.5679L307.083 42.2714L307.078 42.2746L307.301 42.5679ZM309.6 41.1755L309.442 40.843L309.439 40.8446L309.6 41.1755ZM312.222 40.2689L312.141 39.9101L312.139 39.9105L312.222 40.2689ZM320.123 40.8841L319.973 41.2202L319.973 41.2202L320.123 40.8841ZM323.653 43.5069L323.372 43.7446L323.374 43.7477L323.653 43.5069ZM325.822 47.522L325.47 47.6295L325.472 47.634L325.822 47.522ZM326.567 73.847V74.2149H326.935V73.847H326.567ZM317.662 73.847H317.294V74.2149H317.662V73.847ZM316.367 48.3315L316.084 48.5671L316.087 48.57L316.367 48.3315ZM309.017 47.5868L308.855 47.2564L308.855 47.2564L309.017 47.5868ZM305.876 49.8534L305.619 49.5903L305.508 49.6986V49.8534H305.876ZM305.876 73.847V74.2149H306.244V73.847H305.876ZM296.939 73.847H296.571V74.2149H296.939V73.847ZM296.939 40.4632V40.0952H296.571V40.4632H296.939ZM304.678 42.0174L305.036 41.9329L305.031 41.9134L305.025 41.8946L304.678 42.0174ZM305.484 44.6132C306.143 43.9755 306.823 43.3915 307.523 42.8612L307.078 42.2746C306.354 42.8235 305.652 43.4269 304.972 44.0843L305.484 44.6132ZM307.519 42.8643C308.235 42.3375 308.982 41.885 309.761 41.5064L309.439 40.8446C308.619 41.2432 307.834 41.7189 307.083 42.2714L307.519 42.8643ZM309.757 41.5081C310.553 41.1313 311.402 40.8375 312.306 40.6273L312.139 39.9105C311.187 40.132 310.287 40.4426 309.442 40.843L309.757 41.5081ZM312.304 40.6277C313.224 40.4187 314.222 40.3131 315.299 40.3131V39.5771C314.174 39.5771 313.121 39.6874 312.141 39.9101L312.304 40.6277ZM315.299 40.3131C317.069 40.3131 318.625 40.6186 319.973 41.2202L320.273 40.5481C318.815 39.8976 317.154 39.5771 315.299 39.5771V40.3131ZM319.973 41.2202C321.328 41.8247 322.459 42.6662 323.372 43.7446L323.933 43.2692C322.946 42.1026 321.724 41.1956 320.273 40.5481L319.973 41.2202ZM323.374 43.7477C324.309 44.8278 325.009 46.1197 325.47 47.6295L326.174 47.4145C325.685 45.8159 324.939 44.431 323.931 43.2661L323.374 43.7477ZM325.472 47.634C325.955 49.1474 326.199 50.8145 326.199 52.6381H326.935C326.935 50.7487 326.682 49.0051 326.173 47.41L325.472 47.634ZM326.199 52.6381V73.847H326.935V52.6381H326.199ZM326.567 73.479H317.662V74.2149H326.567V73.479ZM318.03 73.847V52.6381H317.294V73.847H318.03ZM318.03 52.6381C318.03 50.7284 317.586 49.1962 316.647 48.093L316.087 48.57C316.875 49.496 317.294 50.8348 317.294 52.6381H318.03ZM316.65 48.0959C315.699 46.9556 314.31 46.4093 312.546 46.4093V47.1452C314.15 47.1452 315.308 47.6351 316.084 48.5671L316.65 48.0959ZM312.546 46.4093C311.239 46.4093 310.007 46.6915 308.855 47.2564L309.179 47.9172C310.228 47.4028 311.349 47.1452 312.546 47.1452V46.4093ZM308.855 47.2564C307.714 47.8154 306.636 48.5951 305.619 49.5903L306.133 50.1164C307.102 49.1688 308.117 48.4375 309.179 47.9172L308.855 47.2564ZM305.508 49.8534V73.847H306.244V49.8534H305.508ZM305.876 73.479H296.939V74.2149H305.876V73.479ZM297.307 73.847V40.4632H296.571V73.847H297.307ZM296.939 40.8311H302.444V40.0952H296.939V40.8311ZM302.444 40.8311C302.948 40.8311 303.337 40.9469 303.634 41.1538C303.931 41.3602 304.168 41.6791 304.331 42.1403L305.025 41.8946C304.821 41.3196 304.502 40.8613 304.054 40.5497C303.607 40.2385 303.062 40.0952 302.444 40.0952V40.8311ZM304.32 42.102L304.87 44.4333L305.586 44.2642L305.036 41.9329L304.32 42.102ZM370.357 48.5258L370.475 48.8743L370.481 48.8722L370.357 48.5258ZM373.174 46.8744L373.426 47.1424L373.43 47.1385L373.174 46.8744ZM374.793 44.3812L374.447 44.2554L374.447 44.2554L374.793 44.3812ZM373.077 36.0919L372.84 36.3739L372.842 36.3756L373.077 36.0919ZM361.29 34.2462V33.8782H360.922V34.2462H361.29ZM361.29 49.1086H360.922V49.4766H361.29V49.1086ZM389.04 73.847V74.2149H389.717L389.349 73.647L389.04 73.847ZM376.703 71.9689L377.021 71.7828L377.016 71.775L376.703 71.9689ZM367.766 57.5598L368.079 57.3658L368.074 57.3584L367.766 57.5598ZM366.536 56.3294L366.346 56.645L366.353 56.6489L366.536 56.3294ZM361.29 55.9408V55.5728H360.922V55.9408H361.29ZM361.29 73.847V74.2149H361.658V73.847H361.29ZM351.576 73.847H351.208V74.2149H351.576V73.847ZM351.576 26.8636V26.4956H351.208V26.8636H351.576ZM374.76 27.8997L374.656 28.2526L374.659 28.2534L374.76 27.8997ZM383.762 35.0557L383.422 35.1954L383.422 35.1969L383.762 35.0557ZM384.118 44.9964L383.768 44.8832L383.767 44.8866L384.118 44.9964ZM382.208 48.7848L381.911 48.5667L381.911 48.5667L382.208 48.7848ZM379.099 51.8286L379.314 52.1273L379.314 52.1273L379.099 51.8286ZM374.89 53.9656L374.771 53.6175L373.985 53.8866L374.712 54.2878L374.89 53.9656ZM376.638 55.2285L376.389 55.4993L376.395 55.5047L376.638 55.2285ZM378.095 56.9446L377.786 57.1441L377.787 57.1446L378.095 56.9446ZM366.277 49.4766C367.881 49.4766 369.283 49.279 370.475 48.8742L370.238 48.1774C369.142 48.5497 367.824 48.7407 366.277 48.7407V49.4766ZM370.481 48.8722C371.663 48.4484 372.648 47.8742 373.426 47.1424L372.922 46.6065C372.231 47.2562 371.339 47.7829 370.232 48.1794L370.481 48.8722ZM373.43 47.1385C374.203 46.3878 374.774 45.5096 375.139 44.5069L374.447 44.2554C374.121 45.1523 373.612 45.9363 372.917 46.6104L373.43 47.1385ZM375.139 44.5069C375.5 43.5126 375.679 42.4333 375.679 41.2727H374.943C374.943 42.357 374.776 43.3501 374.447 44.2554L375.139 44.5069ZM375.679 41.2727C375.679 38.958 374.898 37.1195 373.311 35.8082L372.842 36.3756C374.234 37.5251 374.943 39.1405 374.943 41.2727H375.679ZM373.313 35.8099C371.75 34.4997 369.403 33.8782 366.342 33.8782V34.6142C369.324 34.6142 371.467 35.2232 372.84 36.3739L373.313 35.8099ZM366.342 33.8782H361.29V34.6142H366.342V33.8782ZM360.922 34.2462V49.1086H361.658V34.2462H360.922ZM361.29 49.4766H366.277V48.7407H361.29V49.4766ZM389.04 73.479H380.265V74.2149H389.04V73.479ZM380.265 73.479C378.735 73.479 377.679 72.9056 377.021 71.7828L376.386 72.155C377.195 73.5363 378.514 74.2149 380.265 74.2149V73.479ZM377.016 71.775L368.079 57.3659L367.454 57.7538L376.39 72.1629L377.016 71.775ZM368.074 57.3584C367.684 56.7619 367.235 56.3049 366.718 56.0099L366.353 56.6489C366.744 56.872 367.114 57.2352 367.458 57.7612L368.074 57.3584ZM366.725 56.0138C366.209 55.7039 365.481 55.5728 364.593 55.5728V56.3088C365.432 56.3088 366 56.4367 366.347 56.6449L366.725 56.0138ZM364.593 55.5728H361.29V56.3088H364.593V55.5728ZM360.922 55.9408V73.847H361.658V55.9408H360.922ZM361.29 73.479H351.576V74.2149H361.29V73.479ZM351.944 73.847V26.8636H351.208V73.847H351.944ZM351.576 27.2315H366.342V26.4956H351.576V27.2315ZM366.342 27.2315C369.599 27.2315 372.368 27.5746 374.656 28.2525L374.865 27.5469C372.49 26.8433 369.647 26.4956 366.342 26.4956V27.2315ZM374.659 28.2534C376.955 28.9124 378.817 29.8319 380.26 31.0025L380.723 30.4311C379.187 29.184 377.229 28.2254 374.862 27.546L374.659 28.2534ZM380.26 31.0025C381.704 32.1747 382.755 33.5717 383.422 35.1954L384.102 34.916C383.387 33.1722 382.258 31.6766 380.723 30.4311L380.26 31.0025ZM383.422 35.1969C384.092 36.8095 384.43 38.5956 384.43 40.5603H385.166C385.166 38.5099 384.813 36.6263 384.102 34.9145L383.422 35.1969ZM384.43 40.5603C384.43 42.0782 384.209 43.5186 383.768 44.8832L384.468 45.1095C384.934 43.6679 385.166 42.1509 385.166 40.5603H384.43ZM383.767 44.8866C383.347 46.23 382.729 47.4561 381.911 48.5667L382.504 49.0029C383.371 47.8254 384.026 46.5258 384.469 45.1061L383.767 44.8866ZM381.911 48.5667C381.094 49.6779 380.086 50.6657 378.884 51.5298L379.314 52.1273C380.574 51.2213 381.638 50.18 382.504 49.0029L381.911 48.5667ZM378.884 51.5298C377.686 52.3918 376.316 53.0884 374.771 53.6175L375.009 54.3138C376.616 53.7635 378.052 53.0354 379.314 52.1273L378.884 51.5298ZM374.712 54.2878C375.312 54.6186 375.871 55.0222 376.389 55.4993L376.888 54.9577C376.327 54.4418 375.72 54.0034 375.068 53.6434L374.712 54.2878ZM376.395 55.5047C376.907 55.9549 377.371 56.5004 377.786 57.1441L378.405 56.7451C377.957 56.0504 377.449 55.4518 376.881 54.9522L376.395 55.5047ZM377.787 57.1446L388.731 74.047L389.349 73.647L378.404 56.7446L377.787 57.1446ZM412.013 53.2209V53.5889H412.38V53.2209H412.013ZM411.624 50.5657L411.27 50.6656L411.272 50.6739L411.624 50.5657ZM410.458 48.3315L410.176 48.5671L410.176 48.5671L410.458 48.3315ZM408.418 46.8097L408.261 47.1423L408.268 47.1455L408.418 46.8097ZM398.089 53.2209L397.726 53.1615L397.656 53.5889H398.089V53.2209ZM397.96 58.5312V58.1632H397.557L397.593 58.5641L397.96 58.5312ZM400.615 65.3958L400.358 65.6598L400.36 65.6616L400.615 65.3958ZM409.681 67.1443L409.792 67.4951L409.798 67.4934L409.681 67.1443ZM412.045 66.1729L412.214 66.4999L412.218 66.4979L412.045 66.1729ZM413.891 65.2015L414.06 65.528L414.065 65.5255L413.891 65.2015ZM417.161 65.5253L416.866 65.7462L416.874 65.7552L417.161 65.5253ZM419.751 68.7633L420.03 69.0037L420.23 68.7722L420.039 68.5334L419.751 68.7633ZM416.61 71.5156L416.805 71.828L416.809 71.8253L416.61 71.5156ZM413.049 73.2317L413.165 73.5809L413.171 73.5789L413.049 73.2317ZM409.325 74.0736L409.281 73.7082L409.275 73.7091L409.325 74.0736ZM399.158 73.1994L399.025 73.5425L399.029 73.5442L399.158 73.1994ZM393.88 69.7995L393.618 70.0578L393.621 70.0615L393.88 69.7995ZM390.35 64.1977L390.007 64.3309L390.007 64.3309L390.35 64.1977ZM390.156 50.0477L389.812 49.918L389.81 49.9213L390.156 50.0477ZM393.394 44.8021L393.662 45.0544L393.662 45.0544L393.394 44.8021ZM398.51 41.2727L398.655 41.6107L398.659 41.6094L398.51 41.2727ZM411.203 40.9812L411.071 41.3246L411.076 41.3265L411.203 40.9812ZM415.866 43.9278L415.606 44.188L415.608 44.1902L415.866 43.9278ZM418.909 48.7201L418.565 48.8493L418.567 48.854L418.909 48.7201ZM419.589 57.8512L419.907 58.0366L419.907 58.0366L419.589 57.8512ZM418.974 58.4017L419.091 58.7508L419.103 58.7465L419.116 58.7414L418.974 58.4017ZM412.38 53.2209C412.38 52.258 412.246 51.3363 411.976 50.4575L411.272 50.6739C411.52 51.4789 411.645 52.3274 411.645 53.2209H412.38ZM411.978 50.4658C411.727 49.5761 411.315 48.7848 410.741 48.0959L410.176 48.5671C410.681 49.1735 411.046 49.8716 411.27 50.6656L411.978 50.4658ZM410.741 48.0959C410.163 47.4024 409.437 46.8621 408.569 46.4738L408.268 47.1455C409.041 47.4912 409.674 47.9654 410.176 48.5671L410.741 48.0959ZM408.576 46.4771C407.695 46.06 406.657 45.8588 405.472 45.8588V46.5948C406.575 46.5948 407.501 46.7822 408.261 47.1422L408.576 46.4771ZM405.472 45.8588C403.263 45.8588 401.487 46.4857 400.193 47.7799L400.713 48.3003C401.837 47.1767 403.406 46.5948 405.472 46.5948V45.8588ZM400.193 47.7799C398.914 49.0587 398.101 50.8653 397.726 53.1615L398.452 53.2803C398.811 51.0864 399.574 49.4392 400.713 48.3003L400.193 47.7799ZM398.089 53.5889H412.013V52.8529H398.089V53.5889ZM397.593 58.5641C397.878 61.7384 398.78 64.1273 400.358 65.6598L400.871 65.1318C399.47 63.7716 398.603 61.5841 398.326 58.4984L397.593 58.5641ZM400.36 65.6616C401.951 67.1837 404.011 67.9332 406.508 67.9332V67.1973C404.169 67.1973 402.301 66.5005 400.869 65.1299L400.36 65.6616ZM406.508 67.9332C407.765 67.9332 408.862 67.7901 409.792 67.4951L409.57 66.7935C408.73 67.0597 407.712 67.1973 406.508 67.1973V67.9332ZM409.798 67.4934C410.718 67.1867 411.524 66.8559 412.214 66.4999L411.876 65.8459C411.228 66.1806 410.458 66.4975 409.565 66.7952L409.798 67.4934ZM412.218 66.4979C412.908 66.1313 413.522 65.808 414.06 65.528L413.721 64.875C413.18 65.1563 412.564 65.4806 411.872 65.8479L412.218 66.4979ZM414.065 65.5255C414.582 65.2469 415.073 65.1161 415.542 65.1161V64.3802C414.931 64.3802 414.321 64.5517 413.716 64.8775L414.065 65.5255ZM415.542 65.1161C416.126 65.1161 416.553 65.3276 416.867 65.7461L417.455 65.3045C416.992 64.6868 416.34 64.3802 415.542 64.3802V65.1161ZM416.874 65.7552L419.464 68.9932L420.039 68.5334L417.448 65.2954L416.874 65.7552ZM419.473 68.5229C418.544 69.5989 417.524 70.4924 416.412 71.2059L416.809 71.8253C417.985 71.0709 419.059 70.1296 420.03 69.0037L419.473 68.5229ZM416.416 71.2032C415.294 71.9018 414.131 72.462 412.927 72.8845L413.171 73.5789C414.427 73.138 415.639 72.5541 416.805 71.828L416.416 71.2032ZM412.932 72.8826C411.725 73.2852 410.508 73.5602 409.281 73.7083L409.369 74.4389C410.646 74.2848 411.912 73.9986 413.165 73.5808L412.932 72.8826ZM409.275 73.7091C408.038 73.8797 406.846 73.9647 405.698 73.9647V74.7006C406.882 74.7006 408.108 74.6129 409.375 74.4381L409.275 73.7091ZM405.698 73.9647C403.408 73.9647 401.271 73.5936 399.286 72.8545L399.029 73.5442C401.103 74.3162 403.327 74.7006 405.698 74.7006V73.9647ZM399.29 72.8562C397.329 72.097 395.613 70.991 394.138 69.5374L393.621 70.0615C395.169 71.5868 396.971 72.7475 399.025 73.5425L399.29 72.8562ZM394.142 69.5411C392.692 68.07 391.541 66.247 390.693 64.0645L390.007 64.3309C390.887 66.5953 392.089 68.5068 393.618 70.0578L394.142 69.5411ZM390.693 64.0645C389.85 61.8921 389.423 59.3593 389.423 56.4589H388.687C388.687 59.4301 389.124 62.0565 390.007 64.3309L390.693 64.0645ZM389.423 56.4589C389.423 54.2328 389.783 52.1387 390.502 50.174L389.81 49.9213C389.061 51.9717 388.687 54.1518 388.687 56.4589H389.423ZM390.5 50.1773C391.24 48.213 392.294 46.5068 393.662 45.0544L393.126 44.5498C391.688 46.0764 390.583 47.8672 389.812 49.918L390.5 50.1773ZM393.662 45.0544C395.028 43.604 396.691 42.4556 398.655 41.6107L398.365 40.9346C396.314 41.8166 394.566 43.0212 393.126 44.5498L393.662 45.0544ZM398.659 41.6094C400.613 40.7478 402.828 40.3131 405.31 40.3131V39.5771C402.741 39.5771 400.423 40.0274 398.362 40.936L398.659 41.6094ZM405.31 40.3131C407.407 40.3131 409.326 40.6518 411.071 41.3246L411.335 40.6379C409.497 39.9291 407.487 39.5771 405.31 39.5771V40.3131ZM411.076 41.3265C412.842 41.9783 414.35 42.9325 415.606 44.188L416.126 43.6676C414.791 42.3328 413.191 41.3226 411.33 40.636L411.076 41.3265ZM415.608 44.1902C416.883 45.4442 417.87 46.9948 418.565 48.8493L419.254 48.5909C418.525 46.6461 417.482 45.0018 416.124 43.6655L415.608 44.1902ZM418.567 48.854C419.281 50.6818 419.642 52.7829 419.642 55.1637H420.378C420.378 52.7091 420.006 50.5144 419.252 48.5861L418.567 48.854ZM419.642 55.1637C419.642 55.8231 419.61 56.3537 419.549 56.7605L420.277 56.8697C420.346 56.413 420.378 55.8426 420.378 55.1637H419.642ZM419.549 56.7605C419.489 57.1653 419.391 57.461 419.272 57.6658L419.907 58.0366C420.09 57.7234 420.208 57.3283 420.277 56.8697L419.549 56.7605ZM419.272 57.6658C419.158 57.8607 419.012 57.9871 418.833 58.062L419.116 58.7414C419.454 58.6004 419.719 58.3599 419.907 58.0366L419.272 57.6658ZM418.858 58.0526C418.65 58.1218 418.359 58.1632 417.97 58.1632V58.8992C418.402 58.8992 418.78 58.8542 419.091 58.7508L418.858 58.0526ZM417.97 58.1632H397.96V58.8992H417.97V58.1632ZM447.38 53.2209V53.5889H447.748V53.2209H447.38ZM446.992 50.5657L446.637 50.6656L446.64 50.6739L446.992 50.5657ZM445.826 48.3315L445.543 48.5671L445.543 48.5671L445.826 48.3315ZM443.786 46.8097L443.628 47.1423L443.636 47.1455L443.786 46.8097ZM433.457 53.2209L433.094 53.1615L433.024 53.5889H433.457V53.2209ZM433.327 58.5312V58.1632H432.925L432.961 58.5641L433.327 58.5312ZM435.982 65.3958L435.726 65.6598L435.728 65.6616L435.982 65.3958ZM445.049 67.1443L445.16 67.4951L445.165 67.4934L445.049 67.1443ZM447.412 66.1729L447.581 66.4999L447.585 66.4979L447.412 66.1729ZM449.258 65.2015L449.428 65.528L449.433 65.5255L449.258 65.2015ZM452.529 65.5253L452.234 65.7462L452.241 65.7552L452.529 65.5253ZM455.119 68.7633L455.398 69.0037L455.597 68.7722L455.406 68.5334L455.119 68.7633ZM451.978 71.5156L452.173 71.828L452.177 71.8253L451.978 71.5156ZM448.416 73.2317L448.533 73.5809L448.538 73.5789L448.416 73.2317ZM444.693 74.0736L444.648 73.7082L444.642 73.7091L444.693 74.0736ZM434.525 73.1994L434.392 73.5425L434.397 73.5442L434.525 73.1994ZM429.247 69.7995L428.985 70.0578L428.989 70.0615L429.247 69.7995ZM425.718 64.1977L425.375 64.3309L425.375 64.3309L425.718 64.1977ZM425.524 50.0477L425.179 49.918L425.178 49.9213L425.524 50.0477ZM428.762 44.8021L429.029 45.0544L429.029 45.0544L428.762 44.8021ZM433.878 41.2727L434.023 41.6107L434.026 41.6094L433.878 41.2727ZM446.571 40.9812L446.438 41.3246L446.443 41.3265L446.571 40.9812ZM451.233 43.9278L450.973 44.188L450.975 44.1902L451.233 43.9278ZM454.277 48.7201L453.932 48.8493L453.934 48.854L454.277 48.7201ZM454.957 57.8512L455.275 58.0366L455.275 58.0366L454.957 57.8512ZM454.342 58.4017L454.458 58.7508L454.471 58.7465L454.483 58.7414L454.342 58.4017ZM447.748 53.2209C447.748 52.258 447.614 51.3363 447.343 50.4575L446.64 50.6739C446.888 51.4789 447.012 52.3274 447.012 53.2209H447.748ZM447.346 50.4658C447.095 49.5761 446.683 48.7848 446.109 48.0959L445.543 48.5671C446.048 49.1735 446.413 49.8716 446.637 50.6656L447.346 50.4658ZM446.109 48.0959C445.531 47.4024 444.804 46.8621 443.936 46.4738L443.636 47.1455C444.408 47.4912 445.042 47.9654 445.543 48.5671L446.109 48.0959ZM443.943 46.4771C443.063 46.06 442.024 45.8588 440.839 45.8588V46.5948C441.943 46.5948 442.868 46.7822 443.628 47.1422L443.943 46.4771ZM440.839 45.8588C438.63 45.8588 436.854 46.4857 435.56 47.7799L436.081 48.3003C437.204 47.1767 438.774 46.5948 440.839 46.5948V45.8588ZM435.56 47.7799C434.281 49.0587 433.469 50.8653 433.094 53.1615L433.82 53.2803C434.178 51.0864 434.942 49.4392 436.081 48.3003L435.56 47.7799ZM433.457 53.5889H447.38V52.8529H433.457V53.5889ZM432.961 58.5641C433.245 61.7384 434.148 64.1273 435.726 65.6598L436.239 65.1318C434.838 63.7716 433.97 61.5841 433.694 58.4984L432.961 58.5641ZM435.728 65.6616C437.318 67.1837 439.379 67.9332 441.875 67.9332V67.1973C439.537 67.1973 437.669 66.5005 436.237 65.1299L435.728 65.6616ZM441.875 67.9332C443.132 67.9332 444.229 67.7901 445.16 67.4951L444.938 66.7935C444.098 67.0597 443.08 67.1973 441.875 67.1973V67.9332ZM445.165 67.4934C446.085 67.1867 446.891 66.8559 447.581 66.4999L447.244 65.8459C446.595 66.1806 445.826 66.4975 444.932 66.7952L445.165 67.4934ZM447.585 66.4979C448.275 66.1313 448.889 65.808 449.428 65.528L449.088 64.875C448.548 65.1563 447.931 65.4806 447.24 65.8479L447.585 66.4979ZM449.433 65.5255C449.95 65.2469 450.441 65.1161 450.909 65.1161V64.3802C450.299 64.3802 449.689 64.5517 449.084 64.8775L449.433 65.5255ZM450.909 65.1161C451.493 65.1161 451.92 65.3276 452.234 65.7461L452.823 65.3045C452.36 64.6868 451.707 64.3802 450.909 64.3802V65.1161ZM452.241 65.7552L454.832 68.9932L455.406 68.5334L452.816 65.2954L452.241 65.7552ZM454.84 68.5229C453.912 69.5989 452.892 70.4924 451.779 71.2059L452.177 71.8253C453.353 71.0709 454.426 70.1296 455.398 69.0037L454.84 68.5229ZM451.784 71.2032C450.662 71.9018 449.499 72.462 448.294 72.8845L448.538 73.5789C449.795 73.138 451.006 72.5541 452.173 71.828L451.784 71.2032ZM448.3 72.8826C447.092 73.2852 445.875 73.5602 444.648 73.7083L444.737 74.4389C446.014 74.2848 447.279 73.9986 448.533 73.5808L448.3 72.8826ZM444.642 73.7091C443.406 73.8797 442.214 73.9647 441.066 73.9647V74.7006C442.25 74.7006 443.476 74.6129 444.743 74.4381L444.642 73.7091ZM441.066 73.9647C438.775 73.9647 436.639 73.5936 434.654 72.8545L434.397 73.5442C436.47 74.3162 438.694 74.7006 441.066 74.7006V73.9647ZM434.658 72.8562C432.697 72.097 430.98 70.991 429.506 69.5374L428.989 70.0615C430.536 71.5868 432.339 72.7475 434.392 73.5425L434.658 72.8562ZM429.509 69.5411C428.059 68.07 426.908 66.247 426.061 64.0645L425.375 64.3309C426.254 66.5953 427.456 68.5068 428.985 70.0578L429.509 69.5411ZM426.061 64.0645C425.217 61.8921 424.791 59.3593 424.791 56.4589H424.055C424.055 59.4301 424.492 62.0565 425.375 64.3309L426.061 64.0645ZM424.791 56.4589C424.791 54.2328 425.151 52.1387 425.869 50.174L425.178 49.9213C424.428 51.9717 424.055 54.1518 424.055 56.4589H424.791ZM425.868 50.1773C426.607 48.213 427.661 46.5068 429.029 45.0544L428.494 44.5498C427.056 46.0764 425.951 47.8672 425.179 49.918L425.868 50.1773ZM429.029 45.0544C430.396 43.604 432.059 42.4556 434.023 41.6107L433.732 40.9346C431.682 41.8166 429.934 43.0212 428.494 44.5498L429.029 45.0544ZM434.026 41.6094C435.98 40.7478 438.195 40.3131 440.677 40.3131V39.5771C438.108 39.5771 435.79 40.0274 433.729 40.936L434.026 41.6094ZM440.677 40.3131C442.774 40.3131 444.693 40.6518 446.438 41.3246L446.703 40.6379C444.865 39.9291 442.855 39.5771 440.677 39.5771V40.3131ZM446.443 41.3265C448.209 41.9783 449.718 42.9325 450.973 44.188L451.493 43.6676C450.159 42.3328 448.558 41.3226 446.698 40.636L446.443 41.3265ZM450.975 44.1902C452.25 45.4442 453.237 46.9948 453.932 48.8493L454.622 48.5909C453.892 46.6461 452.85 45.0018 451.491 43.6655L450.975 44.1902ZM453.934 48.854C454.649 50.6818 455.01 52.7829 455.01 55.1637H455.746C455.746 52.7091 455.373 50.5144 454.62 48.5861L453.934 48.854ZM455.01 55.1637C455.01 55.8231 454.978 56.3537 454.917 56.7605L455.645 56.8697C455.713 56.413 455.746 55.8426 455.746 55.1637H455.01ZM454.917 56.7605C454.856 57.1653 454.759 57.461 454.639 57.6658L455.275 58.0366C455.458 57.7234 455.576 57.3283 455.645 56.8697L454.917 56.7605ZM454.639 57.6658C454.525 57.8607 454.38 57.9871 454.2 58.062L454.483 58.7414C454.822 58.6004 455.086 58.3599 455.275 58.0366L454.639 57.6658ZM454.225 58.0526C454.018 58.1218 453.726 58.1632 453.338 58.1632V58.8992C453.77 58.8992 454.148 58.8542 454.458 58.7508L454.225 58.0526ZM453.338 58.1632H433.327V58.8992H453.338V58.1632ZM482.327 47.3277L482.636 47.5276L482.636 47.5267L482.327 47.3277ZM481.582 48.1372L481.78 48.4477L481.786 48.4434L481.582 48.1372ZM479.251 48.0401L479.092 48.3723L479.092 48.3723L479.251 48.0401ZM477.729 47.3601L477.574 47.6944L477.585 47.699L477.729 47.3601ZM475.786 46.6478L475.679 46.9999L475.682 47.0008L475.786 46.6478ZM469.925 47.2306L470.142 47.5279L470.147 47.524L469.925 47.2306ZM469.407 51.2457L469.147 51.5059L469.147 51.5059L469.407 51.2457ZM471.188 52.4438L471.031 52.7769L471.043 52.782L471.188 52.4438ZM473.746 53.3828L473.634 53.7335L473.642 53.7357L473.746 53.3828ZM476.66 54.3218L476.539 54.6694L476.542 54.6701L476.66 54.3218ZM479.607 55.5199L479.765 55.1878L479.765 55.1878L479.607 55.5199ZM482.132 57.236L481.88 57.5041L481.888 57.5115L482.132 57.236ZM483.946 59.6969L483.612 59.8525L483.614 59.8554L483.946 59.6969ZM483.719 67.6624L483.382 67.5149L483.381 67.5174L483.719 67.6624ZM481.129 71.1918L481.37 71.4697L481.37 71.4697L481.129 71.1918ZM467.561 74.0412L467.631 73.6798L467.624 73.6787L467.561 74.0412ZM464.356 73.1994L464.224 73.543L464.231 73.5454L464.356 73.1994ZM461.506 71.8718L461.326 72.1927L461.326 72.1927L461.506 71.8718ZM459.207 70.2528L458.895 70.0586L458.732 70.3202L458.961 70.5263L459.207 70.2528ZM461.28 66.9176L461.592 67.1118L461.594 67.1095L461.28 66.9176ZM462.154 66.011L461.967 65.6937L461.959 65.699L462.154 66.011ZM465.036 66.1081L464.842 66.4212L464.853 66.4276L465.036 66.1081ZM466.558 66.9824L466.374 67.3013L466.383 67.3064L466.558 66.9824ZM468.533 67.8567L468.405 68.2018L468.416 68.2057L468.533 67.8567ZM473.649 67.9538L473.54 67.6024L473.54 67.6024L473.649 67.9538ZM475.171 67.1767L475.406 67.4595L475.415 67.4517L475.171 67.1767ZM476.013 66.0434L475.677 65.8923L475.673 65.9006L476.013 66.0434ZM475.592 62.9349L475.325 63.189L475.331 63.1952L475.338 63.2011L475.592 62.9349ZM473.778 61.7045L473.622 62.0374L473.625 62.0391L473.778 61.7045ZM471.22 60.7654L471.118 61.1189L471.118 61.1189L471.22 60.7654ZM468.241 59.8264L468.121 60.174L468.123 60.1747L468.241 59.8264ZM465.295 58.596L465.13 58.9251L465.133 58.9266L465.295 58.596ZM462.737 56.8151L462.476 57.0754L462.484 57.0828L462.737 56.8151ZM460.924 54.1275L460.585 54.2725L460.588 54.2782L460.924 54.1275ZM461.053 46.3563L461.39 46.5041L461.391 46.502L461.053 46.3563ZM463.482 43.0536L463.725 43.3298L463.725 43.3298L463.482 43.0536ZM467.497 40.787L467.376 40.4393L467.375 40.4398L467.497 40.787ZM479.574 41.1108L479.438 41.4524L479.438 41.4524L479.574 41.1108ZM484.367 44.1545L484.676 44.3535L484.837 44.104L484.627 43.8943L484.367 44.1545ZM482.018 47.1278C481.797 47.4685 481.582 47.6951 481.378 47.8311L481.786 48.4434C482.1 48.234 482.381 47.921 482.636 47.5276L482.018 47.1278ZM481.384 47.8268C481.23 47.9253 480.975 47.9959 480.578 47.9959V48.7319C481.045 48.7319 481.459 48.6514 481.78 48.4477L481.384 47.8268ZM480.578 47.9959C480.209 47.9959 479.821 47.904 479.409 47.7079L479.092 48.3723C479.587 48.6079 480.083 48.7319 480.578 48.7319V47.9959ZM479.409 47.7079C478.95 47.4892 478.437 47.2604 477.872 47.0212L477.585 47.699C478.143 47.9348 478.645 48.1592 479.092 48.3723L479.409 47.7079ZM477.883 47.026C477.302 46.7579 476.637 46.5145 475.89 46.2947L475.682 47.0008C476.403 47.2127 477.033 47.4442 477.575 47.6942L477.883 47.026ZM475.893 46.2956C475.138 46.0668 474.269 45.956 473.293 45.956V46.6919C474.216 46.6919 475.009 46.797 475.679 46.9999L475.893 46.2956ZM473.293 45.956C471.801 45.956 470.589 46.2671 469.703 46.9372L470.147 47.524C470.859 46.9852 471.892 46.6919 473.293 46.6919V45.956ZM469.708 46.9334C468.817 47.584 468.359 48.4706 468.359 49.562H469.095C469.095 48.7105 469.436 48.0429 470.142 47.5278L469.708 46.9334ZM468.359 49.562C468.359 50.324 468.621 50.9803 469.147 51.5059L469.667 50.9855C469.286 50.6045 469.095 50.1383 469.095 49.562H468.359ZM469.147 51.5059C469.637 51.996 470.269 52.4178 471.031 52.7767L471.345 52.1108C470.639 51.7789 470.084 51.402 469.667 50.9855L469.147 51.5059ZM471.043 52.782C471.811 53.1113 472.676 53.4284 473.634 53.7334L473.858 53.0321C472.917 52.7328 472.076 52.4238 471.333 52.1056L471.043 52.782ZM473.642 53.7357C474.586 54.0146 475.551 54.3258 476.539 54.6694L476.781 53.9743C475.783 53.6271 474.806 53.3123 473.85 53.0299L473.642 53.7357ZM476.542 54.6701C477.543 55.011 478.512 55.4049 479.448 55.852L479.765 55.1878C478.802 54.7282 477.807 54.3234 476.779 53.9735L476.542 54.6701ZM479.448 55.852C480.365 56.2896 481.175 56.8404 481.88 57.504L482.385 56.9681C481.622 56.2501 480.748 55.6568 479.765 55.1878L479.448 55.852ZM481.888 57.5115C482.604 58.1452 483.179 58.9239 483.612 59.8525L484.279 59.5413C483.806 58.5271 483.172 57.6652 482.376 56.9606L481.888 57.5115ZM483.614 59.8554C484.037 60.7434 484.258 61.841 484.258 63.1616H484.994C484.994 61.7622 484.761 60.55 484.278 59.5384L483.614 59.8554ZM484.258 63.1616C484.258 64.7336 483.965 66.1832 483.382 67.5149L484.056 67.8099C484.682 66.3785 484.994 64.8275 484.994 63.1616H484.258ZM483.381 67.5174C482.82 68.8251 481.991 69.9564 480.887 70.9139L481.37 71.4697C482.555 70.4412 483.452 69.2196 484.057 67.8073L483.381 67.5174ZM480.887 70.9139C479.786 71.8695 478.407 72.6249 476.739 73.1736L476.97 73.8727C478.713 73.2989 480.183 72.5 481.37 71.4697L480.887 70.9139ZM476.739 73.1736C475.079 73.7202 473.155 73.9971 470.961 73.9971V74.733C473.215 74.733 475.219 74.4487 476.97 73.8727L476.739 73.1736ZM470.961 73.9971C469.841 73.9971 468.73 73.8913 467.631 73.6799L467.492 74.4026C468.637 74.6229 469.794 74.733 470.961 74.733V73.9971ZM467.624 73.6787C466.522 73.4879 465.474 73.2126 464.481 72.8533L464.231 73.5454C465.267 73.9201 466.356 74.2061 467.499 74.4038L467.624 73.6787ZM464.487 72.8557C463.488 72.4731 462.555 72.038 461.686 71.5509L461.326 72.1927C462.228 72.6985 463.194 73.1485 464.224 73.543L464.487 72.8557ZM461.686 71.5509C460.821 71.0655 460.078 70.5412 459.454 69.9793L458.961 70.5263C459.632 71.13 460.421 71.685 461.326 72.1927L461.686 71.5509ZM459.52 70.447L461.592 67.1118L460.967 66.7234L458.895 70.0586L459.52 70.447ZM461.594 67.1095C461.805 66.7639 462.057 66.5052 462.349 66.323L461.959 65.699C461.56 65.9485 461.229 66.2943 460.966 66.7258L461.594 67.1095ZM462.341 66.3282C462.636 66.1545 463.03 66.0552 463.546 66.0552V65.3192C462.94 65.3192 462.406 65.4357 461.967 65.6938L462.341 66.3282ZM463.546 66.0552C464.018 66.0552 464.448 66.1769 464.842 66.421L465.229 65.7953C464.717 65.4782 464.154 65.3192 463.546 65.3192V66.0552ZM464.853 66.4276C465.306 66.6864 465.813 66.9775 466.374 67.3011L466.742 66.6637C466.18 66.3397 465.672 66.048 465.218 65.7886L464.853 66.4276ZM466.383 67.3064C466.963 67.6184 467.637 67.9165 468.405 68.2016L468.661 67.5117C467.917 67.2355 467.275 66.9508 466.732 66.6584L466.383 67.3064ZM468.416 68.2057C469.243 68.4812 470.245 68.6132 471.415 68.6132V67.8772C470.296 67.8772 469.377 67.7502 468.649 67.5076L468.416 68.2057ZM471.415 68.6132C472.304 68.6132 473.087 68.5133 473.758 68.3052L473.54 67.6024C472.958 67.7828 472.252 67.8772 471.415 67.8772V68.6132ZM473.758 68.3052C474.417 68.1006 474.971 67.8219 475.406 67.4594L474.935 66.894C474.593 67.1791 474.133 67.4184 473.54 67.6024L473.758 68.3052ZM475.415 67.4517C475.838 67.0759 476.154 66.6547 476.352 66.1862L475.673 65.9006C475.525 66.2523 475.281 66.5866 474.926 66.9017L475.415 67.4517ZM476.348 66.1944C476.563 65.7173 476.672 65.2235 476.672 64.7158H475.936C475.936 65.1147 475.851 65.506 475.677 65.8924L476.348 66.1944ZM476.672 64.7158C476.672 63.8944 476.402 63.2 475.846 62.6687L475.338 63.2011C475.731 63.5764 475.936 64.0693 475.936 64.7158H476.672ZM475.858 62.6808C475.365 62.1644 474.719 61.7297 473.931 61.3698L473.625 62.0391C474.349 62.37 474.912 62.7555 475.325 63.189L475.858 62.6808ZM473.935 61.3715C473.18 61.0161 472.308 60.6967 471.322 60.4119L471.118 61.1189C472.075 61.3954 472.909 61.702 473.622 62.0374L473.935 61.3715ZM471.322 60.4119C470.357 60.133 469.369 59.8217 468.36 59.4781L468.123 60.1747C469.143 60.5219 470.141 60.8366 471.118 61.1189L471.322 60.4119ZM468.362 59.4789C467.384 59.1385 466.415 58.734 465.456 58.2654L465.133 58.9266C466.117 59.4077 467.113 59.8236 468.121 60.174L468.362 59.4789ZM465.459 58.2669C464.541 57.8076 463.718 57.2345 462.989 56.5473L462.484 57.0828C463.267 57.8204 464.149 58.4345 465.13 58.9251L465.459 58.2669ZM462.997 56.5549C462.298 55.856 461.718 54.9985 461.259 53.9768L460.588 54.2782C461.079 55.372 461.708 56.3062 462.477 57.0753L462.997 56.5549ZM461.262 53.9826C460.833 52.9826 460.611 51.7504 460.611 50.2743H459.876C459.876 51.8204 460.107 53.157 460.585 54.2725L461.262 53.9826ZM460.611 50.2743C460.611 48.9422 460.871 47.6866 461.39 46.5041L460.716 46.2085C460.155 47.4869 459.876 48.8434 459.876 50.2743H460.611ZM461.391 46.502C461.908 45.3027 462.684 44.2457 463.725 43.3298L463.238 42.7773C462.121 43.7611 461.278 44.9059 460.715 46.2107L461.391 46.502ZM463.725 43.3298C464.763 42.4162 466.058 41.6825 467.619 41.1341L467.375 40.4398C465.74 41.014 464.359 41.7913 463.238 42.7773L463.725 43.3298ZM467.617 41.1346C469.19 40.5896 471.015 40.3131 473.098 40.3131V39.5771C470.951 39.5771 469.042 39.8619 467.376 40.4393L467.617 41.1346ZM473.098 40.3131C475.432 40.3131 477.544 40.6949 479.438 41.4524L479.711 40.7691C477.719 39.9724 475.513 39.5771 473.098 39.5771V40.3131ZM479.438 41.4524C481.343 42.2143 482.895 43.2037 484.106 44.4147L484.627 43.8943C483.334 42.6012 481.692 41.5614 479.711 40.7691L479.438 41.4524ZM484.057 43.9555L482.017 47.1287L482.636 47.5267L484.676 44.3535L484.057 43.9555Z"/></g><g filter="url(#filter1_d)"><path fill="#00AFAF" fill-rule="evenodd" d="M125.447 28.2047C125.447 27.6895 125.716 27.2118 126.157 26.9452L150.344 12.3199C150.442 12.2606 150.567 12.3313 150.567 12.4459V72.944L127.68 86.7833C126.699 87.3764 125.447 86.6701 125.447 85.5238V28.2047Z" clip-rule="evenodd" opacity=".714"/><path fill="#0FF" fill-rule="evenodd" d="M175.687 27.3747L150.79 12.32C150.692 12.2606 150.567 12.3313 150.567 12.4459V72.9441L175.464 87.9988C175.562 88.0581 175.687 87.9875 175.687 87.8728V27.3747Z" clip-rule="evenodd" opacity=".714"/><path fill="#00AFAF" fill-rule="evenodd" d="M175.687 27.3747L198.573 13.5355C199.554 12.9423 200.807 13.6486 200.807 14.795V72.114C200.807 72.6292 200.538 73.107 200.097 73.3735L175.91 87.9988C175.812 88.0581 175.687 87.9875 175.687 87.8728V27.3747Z" clip-rule="evenodd" opacity=".714"/><path fill="#F0F0F0" fill-rule="evenodd" d="M130.471 31.2425C130.471 30.7273 130.74 30.2495 131.181 29.983L150.567 18.2606V66.8679L132.704 77.6692C131.723 78.2624 130.471 77.556 130.471 76.4097V31.2425Z" clip-rule="evenodd"/><path fill="#F0F0F0" fill-rule="evenodd" d="M175.687 33.4503L193.549 22.649C194.53 22.0559 195.783 22.7622 195.783 23.9086V69.0758C195.783 69.591 195.514 70.0687 195.073 70.3353L175.687 82.0576V33.4503Z" clip-rule="evenodd"/><path fill="#fff" fill-rule="evenodd" d="M175.687 33.4504L150.567 18.2606V66.8679L175.687 82.0577V33.4504Z" clip-rule="evenodd"/><path fill="#FF5E00" fill-rule="evenodd" d="M130.471 54.7163L170.663 30.4127L130.471 54.7163Z" clip-rule="evenodd"/><path stroke="#2000FF" stroke-opacity=".5" stroke-width=".883" d="M130.471 54.7163L170.663 30.4127"/><path fill="#FF5E00" fill-rule="evenodd" d="M155.591 69.9055L195.783 45.6018L155.591 69.9055Z" clip-rule="evenodd"/><path stroke="#2000FF" stroke-opacity=".5" stroke-width=".883" d="M155.591 69.9055L195.783 45.6018"/><path fill="#FF5E00" fill-rule="evenodd" d="M130.471 30.4127L195.783 69.9061L130.471 30.4127Z" clip-rule="evenodd"/><path stroke="#2000FF" stroke-opacity=".5" stroke-width=".883" d="M130.471 30.4127L195.783 69.9061"/><path fill="#FF5E00" fill-rule="evenodd" d="M130.471 36.4882L155.591 21.2984L130.471 36.4882Z" clip-rule="evenodd"/><path stroke="#4A30FF" stroke-opacity=".5" stroke-width=".442" d="M130.471 36.4882L155.591 21.2984"/><path fill="#FF5E00" fill-rule="evenodd" d="M160.615 24.3363L130.471 42.564L160.615 24.3363Z" clip-rule="evenodd"/><path stroke="#4A30FF" stroke-opacity=".5" stroke-width=".442" d="M160.615 24.3363L130.471 42.564"/><path fill="#FF5E00" fill-rule="evenodd" d="M130.471 48.6398L165.639 27.3741L130.471 48.6398Z" clip-rule="evenodd"/><path stroke="#4A30FF" stroke-opacity=".5" stroke-width=".442" d="M130.471 48.6398L165.639 27.3741"/><path fill="#FF5E00" fill-rule="evenodd" d="M130.471 60.7921L175.687 33.4505L130.471 60.7921Z" clip-rule="evenodd"/><path stroke="#4A30FF" stroke-opacity=".5" stroke-width=".442" d="M130.471 60.7921L175.687 33.4505"/><path fill="#FF5E00" fill-rule="evenodd" d="M130.471 66.8675L195.783 27.3741L130.471 66.8675Z" clip-rule="evenodd"/><path stroke="#4A30FF" stroke-opacity=".5" stroke-width=".442" d="M130.471 66.8675L195.783 27.3741"/><path fill="#FF5E00" fill-rule="evenodd" d="M195.783 33.4505L130.471 72.9439L195.783 33.4505Z" clip-rule="evenodd"/><path stroke="#4A30FF" stroke-opacity=".5" stroke-width=".442" d="M195.783 33.4505L130.471 72.9439"/><path fill="#FF5E00" fill-rule="evenodd" d="M150.567 66.8678L195.783 39.5262L150.567 66.8678Z" clip-rule="evenodd"/><path stroke="#4A30FF" stroke-opacity=".5" stroke-width=".442" d="M150.567 66.8678L195.783 39.5262"/><path fill="#FF5E00" fill-rule="evenodd" d="M195.783 51.6783L160.615 72.9439L195.783 51.6783Z" clip-rule="evenodd"/><path stroke="#4A30FF" stroke-opacity=".5" stroke-width=".442" d="M195.783 51.6783L160.615 72.9439"/><path fill="#FF5E00" fill-rule="evenodd" d="M165.639 75.9817L195.783 57.7539L165.639 75.9817Z" clip-rule="evenodd"/><path stroke="#4A30FF" stroke-opacity=".5" stroke-width=".442" d="M165.639 75.9817L195.783 57.7539"/><path fill="#FF5E00" fill-rule="evenodd" d="M170.663 79.0195L195.783 63.8297L170.663 79.0195Z" clip-rule="evenodd"/><path stroke="#4A30FF" stroke-opacity=".5" stroke-width=".442" d="M170.663 79.0195L195.783 63.8297"/><path fill="#FF5E00" fill-rule="evenodd" d="M135.495 75.9818L130.471 72.9439L135.495 75.9818Z" clip-rule="evenodd"/><path stroke="#4A30FF" stroke-opacity=".5" stroke-width=".442" d="M135.495 75.9818L130.471 72.9439"/><path fill="#FF5E00" fill-rule="evenodd" d="M140.519 72.9434L130.471 66.8675L140.519 72.9434Z" clip-rule="evenodd"/><path stroke="#4A30FF" stroke-opacity=".5" stroke-width=".442" d="M140.519 72.9434L130.471 66.8675"/><path fill="#FF5E00" fill-rule="evenodd" d="M145.543 69.9057L130.471 60.7918L145.543 69.9057Z" clip-rule="evenodd"/><path stroke="#4A30FF" stroke-opacity=".5" stroke-width=".442" d="M145.543 69.9057L130.471 60.7918"/><path fill="#FF5E00" fill-rule="evenodd" d="M150.567 66.8679L130.471 54.7161L150.567 66.8679Z" clip-rule="evenodd"/><path stroke="#2000FF" stroke-opacity=".5" stroke-width=".883" d="M150.567 66.8679L130.471 54.7161"/><path fill="#FF5E00" fill-rule="evenodd" d="M180.711 79.0193L130.471 48.6397L180.711 79.0193Z" clip-rule="evenodd"/><path stroke="#4A30FF" stroke-opacity=".5" stroke-width=".442" d="M180.711 79.0193L130.471 48.6397"/><path fill="#FF5E00" fill-rule="evenodd" d="M130.471 42.564L185.735 75.9816L130.471 42.564Z" clip-rule="evenodd"/><path stroke="#4A30FF" stroke-opacity=".5" stroke-width=".442" d="M130.471 42.564L185.735 75.9816"/><path fill="#FF5E00" fill-rule="evenodd" d="M190.759 72.9438L130.471 36.4883L190.759 72.9438Z" clip-rule="evenodd"/><path stroke="#4A30FF" stroke-opacity=".5" stroke-width=".442" d="M190.759 72.9438L130.471 36.4883"/><path fill="#FF5E00" fill-rule="evenodd" d="M135.495 27.3741L195.783 63.8296L135.495 27.3741Z" clip-rule="evenodd"/><path stroke="#4A30FF" stroke-opacity=".5" stroke-width=".442" d="M135.495 27.3741L195.783 63.8296"/><path fill="#FF5E00" fill-rule="evenodd" d="M140.519 24.3363L195.783 57.7538L140.519 24.3363Z" clip-rule="evenodd"/><path stroke="#4A30FF" stroke-opacity=".5" stroke-width=".442" d="M140.519 24.3363L195.783 57.7538"/><path fill="#FF5E00" fill-rule="evenodd" d="M145.543 21.2984L195.783 51.678L145.543 21.2984Z" clip-rule="evenodd"/><path stroke="#4A30FF" stroke-opacity=".5" stroke-width=".442" d="M145.543 21.2984L195.783 51.678"/><path fill="#FF5E00" fill-rule="evenodd" d="M195.783 45.6023L175.687 33.4505L195.783 45.6023Z" clip-rule="evenodd"/><path stroke="#4A30FF" stroke-opacity=".5" stroke-width=".442" d="M195.783 45.6023L175.687 33.4505"/><path fill="#FF5E00" fill-rule="evenodd" d="M180.711 30.4127L195.783 39.5265L180.711 30.4127Z" clip-rule="evenodd"/><path stroke="#2000FF" stroke-opacity=".5" stroke-width=".883" d="M180.711 30.4127L195.783 39.5265"/><path fill="#FF5E00" fill-rule="evenodd" d="M185.735 27.3741L195.783 33.45L185.735 27.3741Z" clip-rule="evenodd"/><path stroke="#4A30FF" stroke-opacity=".5" stroke-width=".442" d="M185.735 27.3741L195.783 33.45"/><path fill="#FF5E00" fill-rule="evenodd" d="M190.759 24.3363L195.783 27.3742L190.759 24.3363Z" clip-rule="evenodd"/><path stroke="#4A30FF" stroke-opacity=".5" stroke-width=".442" d="M190.759 24.3363L195.783 27.3742"/><path fill="#DEDEDE" fill-opacity=".8" fill-rule="evenodd" d="M130.471 31.2425C130.471 30.7273 130.74 30.2495 131.181 29.983L150.567 18.2606V66.8679L132.704 77.6692C131.723 78.2624 130.471 77.556 130.471 76.4097V31.2425Z" clip-rule="evenodd"/><path fill="#DEDEDE" fill-opacity=".8" fill-rule="evenodd" d="M175.687 33.4503L193.549 22.649C194.53 22.0559 195.783 22.7622 195.783 23.9086V69.0758C195.783 69.591 195.514 70.0687 195.073 70.3353L175.687 82.0576V33.4503Z" clip-rule="evenodd"/><path fill="#fff" fill-opacity=".8" fill-rule="evenodd" d="M175.687 33.4504L150.567 18.2606V66.8679L175.687 82.0577V33.4504Z" clip-rule="evenodd"/><path fill="#FF5E00" d="M162.747 49.7058C161.756 49.1067 160.952 47.5319 160.952 46.1903C160.952 44.8488 161.756 44.2461 162.747 44.845C163.737 45.4441 164.541 47.0188 164.541 48.3603C164.541 49.7019 163.737 50.3047 162.747 49.7058ZM162.747 40.4703C159.969 38.7908 157.723 40.4751 157.723 44.2374C157.723 49.3412 162.747 59.9132 162.747 59.9132C162.747 59.9132 167.771 55.4171 167.771 50.3134C167.771 46.5511 165.524 42.1499 162.747 40.4703Z"/></g><defs><filter id="filter0_d" width="486.431" height="53.63" x=".563" y="25.103" color-interpolation-filters="sRGB" filterUnits="userSpaceOnUse"><feFlood flood-opacity="0" result="BackgroundImageFix"/><feColorMatrix in="SourceAlpha" type="matrix" values="0 0 0 0 0 0 0 0 0 0 0 0 0 0 0 0 0 0 127 0"/><feOffset dy="2"/><feGaussianBlur stdDeviation="1"/><feColorMatrix type="matrix" values="0 0 0 0 0 0 0 0 0 0 0 0 0 0 0 0 0 0 0.25 0"/><feBlend in2="BackgroundImageFix" mode="normal" result="effect1_dropShadow"/><feBlend in="SourceGraphic" in2="effect1_dropShadow" mode="normal" result="shape"/></filter><filter id="filter1_d" width="79.36" height="79.722" x="123.447" y="12.299" color-interpolation-filters="sRGB" filterUnits="userSpaceOnUse"><feFlood flood-opacity="0" result="BackgroundImageFix"/><feColorMatrix in="SourceAlpha" type="matrix" values="0 0 0 0 0 0 0 0 0 0 0 0 0 0 0 0 0 0 127 0"/><feOffset dy="2"/><feGaussianBlur stdDeviation="1"/><feColorMatrix type="matrix" values="0 0 0 0 0 0 0 0 0 0 0 0 0 0 0 0 0 0 0.25 0"/><feBlend in2="BackgroundImageFix" mode="normal" result="effect1_dropShadow"/><feBlend in="SourceGraphic" in2="effect1_dropShadow" mode="normal" result="shape"/></filter></defs></svg>